<svg id="Capa_1" enable-background="new 0 0 511.999 511.999" height="512" viewBox="0 0 511.999 511.999" width="512" xmlns="http://www.w3.org/2000/svg"><path d="m255.995 455.815c-110.178 0-199.816-89.637-199.816-199.815s89.637-199.815 199.816-199.815c33.362 0 66.391 8.391 95.516 24.267 3.637 1.982 4.978 6.538 2.995 10.175-1.981 3.637-6.535 4.977-10.175 2.996-26.929-14.679-57.475-22.437-88.337-22.437-101.907-.001-184.815 82.907-184.815 184.814s82.908 184.815 184.816 184.815c101.913 0 184.826-82.908 184.826-184.815 0-57.917-26.386-111.387-72.39-146.701-3.286-2.522-3.905-7.23-1.383-10.516 2.522-3.285 7.231-3.904 10.516-1.382 23.801 18.269 43.5 42.045 56.969 68.759 14.126 28.018 21.289 58.245 21.289 89.841-.002 110.177-89.643 199.814-199.827 199.814z"/><path d="m255.998 340.395c-46.535 0-84.394-37.859-84.394-84.395s37.859-84.395 84.394-84.395c46.536 0 84.395 37.859 84.395 84.395s-37.859 84.395-84.395 84.395zm0-153.79c-38.265 0-69.394 31.13-69.394 69.395s31.13 69.395 69.394 69.395 69.395-31.13 69.395-69.395-31.131-69.395-69.395-69.395z"/><path d="m255.998 311.047c-30.352 0-55.047-24.694-55.047-55.047s24.694-55.047 55.047-55.047 55.048 24.694 55.048 55.047-24.695 55.047-55.048 55.047zm0-95.094c-22.082 0-40.047 17.965-40.047 40.047s17.965 40.047 40.047 40.047 40.048-17.965 40.048-40.047-17.966-40.047-40.048-40.047z"/><path d="m268.822 511.999c-3.214 0-6.329-1.287-8.628-3.585l-18.193-18.184c-1.533-1.536-3.567-2.314-5.731-2.197-2.158.117-4.104 1.125-5.478 2.837-1.457 1.808-1.625 3.791-1.511 5.139.324 3.771-1.083 7.422-3.862 10.005-2.758 2.563-6.466 3.691-10.173 3.1-26.387-4.222-51.828-12.522-75.618-24.669-3.042-1.546-5.315-4.346-6.227-7.675l-6.68-24.933c-.521-1.943-1.764-3.564-3.502-4.566-1.75-1.015-3.777-1.279-5.726-.75-2.748.744-4.083 2.799-4.635 3.957-1.647 3.442-4.709 5.885-8.406 6.714-3.657.821-7.417-.067-10.321-2.432-20.706-16.873-38.578-36.758-53.121-59.104-1.89-2.897-2.453-6.486-1.543-9.84l6.652-24.84c.519-1.941.251-3.975-.755-5.719-1.005-1.744-2.633-2.989-4.584-3.509-2.759-.729-4.945.393-6.004 1.128-3.165 2.174-7.038 2.762-10.661 1.63-3.579-1.117-6.396-3.765-7.73-7.265-2.388-6.26-4.564-12.741-6.471-19.263-1.162-3.976 1.119-8.141 5.096-9.303 3.977-1.163 8.141 1.119 9.303 5.095 1.479 5.064 3.132 10.1 4.926 15.012 4.773-2.328 10.228-2.901 15.393-1.532 5.844 1.555 10.717 5.289 13.728 10.515 3.002 5.205 3.802 11.273 2.251 17.083l-6.341 23.676c12.964 19.694 28.683 37.332 46.772 52.488 2.978-4.382 7.401-7.582 12.528-8.971 5.835-1.584 11.93-.787 17.156 2.242 5.2 2.999 8.928 7.858 10.483 13.674l6.348 23.689c21.079 10.625 43.51 18.051 66.749 22.102.314-4.504 1.965-8.769 4.796-12.28 4.01-4.997 9.975-8.069 16.354-8.415 6.379-.344 12.638 2.049 17.152 6.571l17.317 17.308c23.629-1.347 46.766-6.111 68.847-14.174-1.986-4.055-2.694-8.583-1.999-13.056.982-6.345 4.615-11.985 9.966-15.473 5.355-3.49 11.967-4.541 18.134-2.887l23.707 6.348c19.666-12.959 37.278-28.665 52.433-46.747-3.725-2.522-6.58-6.074-8.208-10.265-2.323-5.984-2.001-12.682.886-18.377 2.89-5.703 8.086-9.924 14.256-11.58l23.746-6.361c10.604-21.061 18.02-43.477 22.06-66.691-4.497-.308-8.77-1.958-12.3-4.794-5.006-4.023-8.075-9.986-8.421-16.362-.347-6.381 2.046-12.632 6.562-17.149l17.333-17.332c-1.346-23.634-6.111-46.766-14.18-68.839-4.056 1.988-8.587 2.697-13.067 2.002-6.35-.983-11.991-4.617-15.479-9.97-3.487-5.353-4.537-11.958-2.882-18.123l6.354-23.714c-12.945-19.653-28.658-37.274-46.752-52.432-2.525 3.733-6.085 6.593-10.284 8.212-5.97 2.318-12.67 1.997-18.365-.89-5.701-2.89-9.921-8.086-11.576-14.258l-6.348-23.725c-21.065-10.608-43.479-18.019-66.7-22.056-.375 5.293-2.603 10.297-6.356 14.086-4.296 4.296-9.963 6.648-15.983 6.648-6.008 0-11.66-2.345-15.918-6.603l-17.321-17.311c-23.651 1.347-46.8 6.116-68.886 14.186 2.333 4.794 2.9 10.243 1.536 15.395-1.558 5.853-5.291 10.729-10.515 13.74-5.209 3.002-11.275 3.801-17.079 2.249l-23.681-6.346c-19.682 12.959-37.317 28.682-52.481 46.782 4.387 2.99 7.578 7.41 8.964 12.524 1.585 5.831.789 11.927-2.242 17.158-3 5.203-7.855 8.931-13.664 10.484l-23.694 6.348c-10.62 21.08-18.045 43.521-22.082 66.747 5.3.385 10.293 2.617 14.066 6.367 4.281 4.251 6.64 9.922 6.64 15.964 0 6.02-2.341 11.676-6.592 15.928l-17.294 17.284c.484 8.563 1.431 17.164 2.817 25.594.673 4.087-2.096 7.946-6.184 8.618-4.078.678-7.944-2.096-8.617-6.183-1.545-9.391-2.575-18.98-3.063-28.501-.181-3.433 1.116-6.809 3.559-9.252l18.177-18.166c1.416-1.417 2.197-3.307 2.197-5.32 0-2.017-.785-3.907-2.211-5.323-2.033-2.02-4.504-2.147-5.797-2.042-3.813.301-7.477-1.118-10.048-3.903-2.511-2.719-3.614-6.374-3.028-10.028 4.196-26.384 12.496-51.864 24.668-75.721 1.597-3.091 4.407-5.351 7.728-6.233l24.88-6.666c1.935-.518 3.552-1.761 4.556-3.501 1.016-1.753 1.28-3.78.752-5.722-.746-2.754-2.81-4.099-3.973-4.656-3.417-1.628-5.861-4.688-6.69-8.391-.821-3.664.068-7.43 2.441-10.332 16.867-20.698 36.745-38.57 59.072-53.108 2.888-1.881 6.46-2.451 9.804-1.564l24.9 6.673c1.936.519 3.964.25 5.708-.755 1.741-1.003 2.986-2.635 3.508-4.594.73-2.756-.396-4.957-1.133-6.021-2.164-3.123-2.764-6.996-1.642-10.622 1.112-3.589 3.762-6.415 7.271-7.753 24.875-9.484 51.06-14.997 77.827-16.383 3.445-.185 6.81 1.121 9.257 3.568l18.193 18.184c1.427 1.426 3.313 2.211 5.313 2.211 2.014 0 3.914-.792 5.352-2.229 2.001-2.02 2.123-4.489 2.016-5.78-.306-3.844 1.118-7.507 3.904-10.079 2.719-2.51 6.375-3.612 10.025-3.026 26.395 4.2 51.858 12.49 75.671 24.637 3.046 1.55 5.319 4.349 6.229 7.677l6.68 24.965c.561 2.088 1.935 3.78 3.868 4.76 1.928.977 4.119 1.077 6.169.281 1.689-.651 3.06-1.958 3.875-3.684 1.618-3.432 4.672-5.885 8.376-6.723 3.676-.831 7.452.058 10.363 2.439 20.699 16.866 38.563 36.73 53.089 59.032 1.882 2.886 2.453 6.461 1.563 9.805l-6.683 24.939c-.561 2.088-.218 4.234.963 6.048 1.182 1.813 3.031 2.998 5.207 3.335 2.305.354 4.109-.493 5.218-1.267 3.117-2.181 6.989-2.79 10.624-1.672 3.607 1.111 6.443 3.769 7.778 7.291 9.48 24.852 14.993 51.024 16.379 77.775.18 3.411-1.105 6.776-3.527 9.226l-18.247 18.245c-1.53 1.531-2.309 3.565-2.191 5.729.117 2.158 1.126 4.105 2.839 5.482 1.815 1.459 3.799 1.624 5.146 1.509 3.785-.325 7.439 1.082 10.022 3.86 2.563 2.757 3.693 6.465 3.101 10.174-4.21 26.35-12.496 51.774-24.628 75.564-1.585 3.093-4.408 5.366-7.753 6.248l-24.906 6.672c-2.088.561-3.78 1.936-4.761 3.873-.978 1.928-1.078 4.118-.283 6.166.839 2.159 2.468 3.299 3.687 3.876 3.423 1.607 5.88 4.657 6.721 8.36.835 3.679-.054 7.461-2.439 10.378-16.87 20.693-36.736 38.557-59.041 53.087-2.876 1.891-6.473 2.46-9.844 1.545l-24.881-6.663c-2.091-.561-4.243-.219-6.061.965-1.812 1.181-2.997 3.03-3.333 5.205-.357 2.297.492 4.099 1.268 5.207 2.178 3.113 2.788 6.979 1.674 10.607-1.108 3.607-3.767 6.447-7.293 7.791-24.875 9.479-51.049 14.988-77.796 16.373-.207.014-.417.019-.626.019zm-54.488-14.725c.001.003.001.007.001.01 0-.003 0-.007-.001-.01zm-67.897-26.194c.003.001.006.003.009.004-.003-.001-.006-.002-.009-.004zm241.083-12.69c-.006.003-.011.007-.017.011.006-.004.012-.008.017-.011zm2.241-.38.016.004c-.006-.001-.011-.003-.016-.004zm54.304-45.322c.006.003.012.005.018.008-.007-.003-.012-.005-.018-.008zm-390.11-22.982-.004.017c.001-.006.003-.011.004-.017zm418.931-25.661c-.007.002-.013.003-.02.005zm8.692-193.984c.002.003.003.007.004.01-.001-.003-.003-.007-.004-.01zm-442.434-22.158-.011.003c.004-.001.008-.002.011-.003zm28.801-48.572c.004.002.009.004.013.006-.004-.001-.009-.004-.013-.006z"/><path d="m255.998 149.469c-15.428 0-27.979-12.552-27.979-27.979 0-15.428 12.552-27.98 27.979-27.98s27.979 12.552 27.979 27.98-12.552 27.979-27.979 27.979zm0-40.959c-7.157 0-12.979 5.823-12.979 12.98s5.822 12.979 12.979 12.979 12.979-5.823 12.979-12.979c0-7.157-5.822-12.98-12.979-12.98z"/><path d="m255.998 418.49c-15.428 0-27.979-12.552-27.979-27.98s12.552-27.979 27.979-27.979 27.979 12.552 27.979 27.979c0 15.428-12.552 27.98-27.979 27.98zm0-40.96c-7.157 0-12.979 5.823-12.979 12.979 0 7.157 5.822 12.98 12.979 12.98s12.979-5.823 12.979-12.98c0-7.156-5.822-12.979-12.979-12.979z"/><path d="m160.885 188.853c-7.165 0-14.33-2.727-19.784-8.182-10.909-10.909-10.909-28.66-.001-39.569 10.91-10.908 28.661-10.909 39.569 0h.001c10.909 10.909 10.909 28.66 0 39.569-5.455 5.455-12.62 8.182-19.785 8.182zm0-40.94c-3.324 0-6.647 1.265-9.179 3.796-5.06 5.06-5.06 13.295.001 18.356 5.063 5.06 13.296 5.061 18.356-.001 5.061-5.061 5.061-13.295-.001-18.356-2.53-2.53-5.853-3.795-9.177-3.795z"/><path d="m351.111 379.079c-7.165 0-14.33-2.727-19.784-8.182-10.909-10.909-10.909-28.66-.001-39.569 10.91-10.908 28.661-10.909 39.569 0h.001c10.909 10.909 10.909 28.66 0 39.569-5.455 5.455-12.62 8.182-19.785 8.182zm0-40.94c-3.324 0-6.647 1.265-9.179 3.796-5.06 5.06-5.06 13.295.001 18.356 5.062 5.06 13.295 5.06 18.356-.001s5.061-13.295-.001-18.356c-2.53-2.529-5.853-3.795-9.177-3.795z"/><path d="m121.487 283.979c-15.428 0-27.979-12.552-27.979-27.979s12.552-27.979 27.979-27.979c15.429 0 27.98 12.552 27.98 27.979s-12.551 27.979-27.98 27.979zm0-40.958c-7.157 0-12.979 5.823-12.979 12.979 0 7.157 5.822 12.979 12.979 12.979s12.98-5.823 12.98-12.979c.001-7.157-5.822-12.979-12.98-12.979z"/><path d="m390.508 283.979c-15.428 0-27.979-12.552-27.979-27.979s12.552-27.979 27.979-27.979c15.428 0 27.979 12.552 27.979 27.979s-12.551 27.979-27.979 27.979zm0-40.958c-7.157 0-12.979 5.823-12.979 12.979 0 7.157 5.822 12.979 12.979 12.979s12.979-5.823 12.979-12.979c.001-7.157-5.822-12.979-12.979-12.979z"/><path d="m160.885 379.079c-7.165 0-14.33-2.727-19.784-8.182-10.909-10.909-10.909-28.66-.001-39.569h.001c10.908-10.909 28.66-10.909 39.568 0 10.91 10.909 10.91 28.66.001 39.569-5.455 5.455-12.62 8.182-19.785 8.182zm-9.178-37.145c-5.061 5.061-5.061 13.296 0 18.357 5.063 5.06 13.296 5.06 18.356-.001 5.061-5.061 5.061-13.295-.001-18.356-5.058-5.059-13.293-5.059-18.355 0z"/><path d="m351.111 188.853c-7.165 0-14.33-2.727-19.784-8.182-10.909-10.909-10.909-28.66-.001-39.569h.001c10.908-10.909 28.66-10.909 39.568 0 10.91 10.909 10.91 28.66.001 39.569-5.455 5.455-12.62 8.182-19.785 8.182zm-9.178-37.145c-5.061 5.061-5.061 13.296 0 18.357 5.062 5.06 13.295 5.061 18.356-.001 5.061-5.061 5.061-13.295-.001-18.356-5.059-5.059-13.294-5.059-18.355 0z"/></svg>