<?xml version="1.0" encoding="iso-8859-1"?>
<!-- Generator: Adobe Illustrator 19.0.0, SVG Export Plug-In . SVG Version: 6.00 Build 0)  -->
<svg version="1.1" id="Capa_1" xmlns="http://www.w3.org/2000/svg" xmlns:xlink="http://www.w3.org/1999/xlink" x="0px" y="0px"
	 viewBox="0 0 511.999 511.999" style="enable-background:new 0 0 511.999 511.999;" xml:space="preserve">
<g>
	<g>
		<path d="M460.842,231.336c-1.073-8.962-10.019-14.713-18.585-11.943c-11.54,3.735-49.385,15.984-61.144,19.79
			c-1.167,0.378-2.327-0.41-2.505-1.594c-1.992-13.323-6.131-26.156-12.302-38.145c-0.494-0.961-0.078-2.151,0.978-2.493
			c5.135-1.662,53.41-17.286,59.171-19.15c9.732-3.152,14.131-14.439,9.092-23.317c-29.896-52.678-80.946-89.489-140.061-100.996
			c-8.943-1.738-17.27,5.103-17.27,14.227c0,69.654,0.243,66.356-0.501,66.219c-30.642-5.443-43.936,2.219-43.936-0.887
			c0-14.116,0-51.686,0-65.797c0-8.862-8.083-15.529-16.796-13.854c-25.815,4.963-50.158,14.723-72.351,29.007
			c-3.482,2.242-4.489,6.883-2.247,10.366c2.243,3.484,6.885,4.486,10.366,2.247c20.277-13.054,42.485-22.029,66.027-26.688v15.029
			c-49.643,10.731-91.277,42.312-115.68,84.358c-10.687-3.864-12.547-3.309-13.228-5.074c-0.149-0.388-0.251-0.982,0.113-1.617
			c9.659-16.816,21.818-32.068,36.137-45.335c3.039-2.815,3.22-7.561,0.405-10.599c-2.816-3.04-7.563-3.221-10.599-0.405
			c-15.433,14.297-28.536,30.737-38.95,48.868c-5.355,9.319-0.716,21.243,9.543,24.563c0.14,0.046-1.833-0.593,17.833,5.771
			c43.554,14.096,42.452,13.42,42.05,14.187c-14.244,26.847-11.583,42.379-14.148,41.551c-10.182-3.295-52.292-16.925-62.185-20.127
			c-8.755-2.832-17.884,3.063-18.961,12.197c-6.832,57.883,10.858,118.216,53.458,164.268c6.582,7.116,18.022,6.42,23.701-1.411
			l12.186-16.796c25.199-34.286,25.363-36.72,27.296-34.764c10.122,10.265,21.817,18.62,34.829,24.801
			c-3.559,4.905-34.772,47.93-38.177,52.623c-5.782,7.967-2.828,19.246,6.126,23.338c30.984,14.161,63.932,20.05,96.893,18.24
			c4.136-0.227,7.305-3.764,7.077-7.899c-0.227-4.137-3.77-7.31-7.899-7.077c-31.413,1.718-61.703-4.047-89.837-16.906
			c-0.326-0.148-0.444-0.57-0.22-0.886l8.393-11.569c45.324,20.035,97.265,19.832,142.127,0l8.819,12.158
			c-11.483,5.298-23.572,9.463-35.954,12.386c-4.031,0.952-6.527,4.991-5.576,9.023c0.953,4.033,4.995,6.528,9.023,5.576
			c13.846-3.27,27.354-7.979,40.153-14c3.731-1.756,6.463-5.061,7.493-9.067c1.037-4.033,0.229-8.279-2.215-11.647
			c-10.951-15.094-33.408-46.178-39.265-54.284c12.875-6.189,24.515-14.498,34.595-24.695c0.434-0.439,0.917-0.495,1.256-0.475
			c0.323,0.024,0.781,0.154,1.128,0.632c1.977,2.726,34.156,47.082,37.096,51.135c2.958,4.074,7.618,6.403,12.572,6.403
			c4.32,0,8.424-1.787,11.375-4.983C450,349.852,467.811,289.491,460.842,231.336z M115.585,385.78
			c-38.773-41.915-55.912-97.354-49.63-151.849l14.312,4.633c-4.862,49.423,10.988,98.228,44.422,135.384
			C115.698,386.341,115.991,386.216,115.585,385.78z M378.282,361.498l-19.62-27.043c-6.008-8.283-18.005-9.165-25.191-1.894
			c-22.856,23.124-35.2,18.643-38.475,31.591c-1.108,4.384-0.222,8.996,2.433,12.655l20.607,28.404
			c-38.62,16.104-83.622,16.938-124.069,0l20.757-28.608c5.504-7.59,2.719-18.249-5.719-22.297
			c-29.769-14.295-29.3-27.799-43.524-26.703c-4.82,0.363-9.213,2.816-12.054,6.73l-19.706,27.164
			c-27.652-31.96-42.247-73.833-38.796-118.19l32.715,10.589c9.29,3.007,19.07-3.095,20.394-12.755
			c4.451-32.515,17.436-36.382,12.29-49.076c-1.729-4.266-5.231-7.523-9.609-8.94l-32.97-10.671
			c22.287-36.667,58.587-63.429,101.039-73.714v34.303c0,4.685,2.056,9.101,5.641,12.115c10.677,8.985,18.015-2.262,50.669,3.54
			c9.437,1.674,18.127-5.607,18.127-15.24V98.741c15.143,3.58,29.65,9.328,43.228,17.156c3.587,2.067,8.175,0.838,10.243-2.751
			c2.069-3.589,0.838-8.175-2.751-10.243c-15.876-9.153-32.909-15.716-50.721-19.548V68.328
			c54.559,10.799,101.654,44.871,129.286,93.559c0.357,0.628,0.017,1.421-0.666,1.642l-12.938,4.188
			c-9.384-16.202-21.245-30.762-35.322-43.348c-3.09-2.761-7.829-2.497-10.59,0.592c-2.761,3.088-2.496,7.829,0.592,10.59
			c12.079,10.8,22.367,23.189,30.681,36.903l-31.594,10.225c-4.674,1.513-8.427,4.983-10.299,9.521
			c-5.359,12.999,6.749,16.471,11.408,47.606c1.548,10.356,11.992,16.87,21.958,13.646l31.341-10.144
			C420.431,286.465,406.751,328.585,378.282,361.498z M396.543,385.643c-0.817,0.851-1.062-0.875-9.229-11.695
			c32.942-36.612,49.346-85.294,44.421-135.384l14.311-4.633C452.317,288.25,435.286,343.678,396.543,385.643z"/>
	</g>
</g>
<g>
	<g>
		<path d="M511.999,255.999c0-11.192-8.267-20.491-19.016-22.109c-0.553-5.997-1.331-11.976-2.327-17.88
			c16.722-7.286,18.061-30.688,2.202-39.846c-4.174-2.41-8.903-3.387-13.609-2.868c-2.083-5.608-4.398-11.182-6.925-16.668
			c8.414-6.717,11.026-18.847,5.377-28.629c-2.986-5.173-7.808-8.872-13.577-10.418c-4.674-1.253-9.518-0.969-13.939,0.771
			c-3.473-4.888-7.146-9.666-10.983-14.29c6.458-8.745,5.73-21.168-2.185-29.084c-7.916-7.914-20.34-8.644-29.084-2.185
			c-4.625-3.839-9.402-7.511-14.29-10.983c1.741-4.421,2.024-9.264,0.772-13.938c-1.546-5.769-5.245-10.59-10.418-13.576
			c-5.171-2.985-11.197-3.779-16.967-2.234c-4.663,1.25-8.708,3.907-11.663,7.61c-5.487-2.526-11.062-4.842-16.672-6.926
			c1.185-10.778-5.651-21.135-16.441-24.025c-10.803-2.895-21.915,2.671-26.268,12.62c-5.904-0.996-11.884-1.774-17.882-2.328
			C276.492,8.268,267.193,0,256,0c-11.192,0-20.491,8.268-22.11,19.016c-5.996,0.553-11.974,1.331-17.878,2.327
			c-1.895-4.351-5.117-7.969-9.304-10.386c-15.795-9.117-35.407,3.594-33.407,21.792c-5.61,2.083-11.185,4.399-16.672,6.926
			c-6.713-8.412-18.845-11.027-28.629-5.376c-5.173,2.986-8.872,7.808-10.418,13.576c-1.252,4.675-0.969,9.519,0.772,13.938
			c-4.888,3.473-9.666,7.146-14.29,10.983c-8.745-6.459-21.168-5.73-29.084,2.185c-8.071,8.072-8.545,20.507-2.187,29.086
			c-3.838,4.624-7.51,9.4-10.981,14.288c-17.021-6.703-34.482,8.947-29.748,26.612c1.249,4.662,3.906,8.706,7.61,11.662
			c-2.527,5.488-4.843,11.062-6.926,16.669c-4.707-0.527-9.435,0.457-13.608,2.868c-15.852,9.151-14.531,32.554,2.202,39.846
			c-0.996,5.902-1.774,11.881-2.327,17.88C8.267,235.508,0,244.807,0,255.999c0.002,11.193,8.268,20.492,19.017,22.111
			c0.553,5.998,1.331,11.977,2.327,17.879c-9.796,4.268-15.567,15.273-12.62,26.267c2.955,11.028,13.47,17.623,24.026,16.446
			c2.083,5.606,4.398,11.181,6.926,16.669c-14.215,11.345-9.516,34.299,8.2,39.046c4.676,1.255,9.519,0.97,13.938-0.772
			c3.472,4.888,7.143,9.665,10.981,14.288c-10.921,14.736-0.265,35.634,17.997,35.634c4.845,0,9.454-1.53,13.276-4.362
			c4.623,3.839,9.399,7.51,14.288,10.982c-6.69,16.986,8.914,34.484,26.612,29.748c4.662-1.249,8.706-3.906,11.663-7.61
			c5.487,2.527,11.062,4.843,16.672,6.926c-1.999,18.2,17.617,30.909,33.407,21.792c4.186-2.416,7.407-6.035,9.304-10.387
			c5.904,0.997,11.882,1.775,17.879,2.328c1.618,10.748,10.917,19.016,22.109,19.016s20.491-8.268,22.11-19.016
			c5.997-0.553,11.976-1.331,17.882-2.328c4.352,9.947,15.464,15.514,26.267,12.62c10.79-2.891,17.626-13.247,16.441-24.025
			c5.611-2.084,11.186-4.4,16.672-6.926c2.956,3.704,7,6.361,11.663,7.61c5.772,1.545,11.796,0.752,16.967-2.234
			c5.173-2.986,8.872-7.808,10.418-13.576c1.252-4.675,0.969-9.518-0.772-13.939c4.888-3.474,9.665-7.145,14.288-10.982
			c3.822,2.832,8.432,4.362,13.276,4.362c5.973,0,11.588-2.326,15.811-6.549c4.223-4.224,6.548-9.838,6.548-15.811
			c0-4.845-1.529-9.454-4.361-13.275c3.837-4.623,7.509-9.401,10.981-14.288c4.423,1.741,9.266,2.026,13.939,0.772
			c17.709-4.745,22.424-27.698,8.2-39.046c2.526-5.486,4.842-11.06,6.925-16.669c4.705,0.526,9.435-0.458,13.609-2.868
			c5.172-2.986,8.872-7.809,10.417-13.577c2.943-10.98-2.805-21.993-12.619-26.269c0.996-5.903,1.774-11.88,2.327-17.879
			C503.731,276.49,511.999,267.191,511.999,255.999z M489.643,263.36c-1.161-0.004-2.515,0.011-3.374-0.015
			c-4.091-0.147-7.467,2.979-7.724,7.02c-0.628,9.89-1.915,19.773-3.825,29.374c-0.772,3.884,1.608,7.698,5.435,8.713
			c0.112,0.029,2.573,0.682,3.431,0.91c3.92,1.051,6.254,5.094,5.204,9.013c-1.054,3.933-5.089,6.256-9.012,5.205l-3.42-0.917
			c-3.822-1.025-7.78,1.095-9.047,4.841c-3.126,9.241-6.945,18.439-11.353,27.335c-1.756,3.546-0.456,7.846,2.971,9.824
			c1.808,1.31,5.411,2.116,6.52,6.253c1.689,6.302-5.128,11.543-10.789,8.278l-2.636-1.522c-3.791-2.453-8.278-1.21-10.448,2.04
			c-5.459,8.172-11.531,16.072-18.047,23.482c-2.612,2.971-2.469,7.459,0.328,10.257l2.556,2.556c2.87,2.869,2.87,7.537,0,10.407
			c-1.39,1.39-3.237,2.155-5.203,2.155c-1.966,0-3.814-0.766-5.204-2.156l-2.556-2.556c-2.797-2.796-7.285-2.94-10.257-0.328
			c-7.399,6.507-15.289,12.571-23.45,18.026c-0.006,0.004-0.012,0.008-0.018,0.012c-0.002,0.001-0.004,0.003-0.007,0.004
			c-3.41,2.279-4.353,6.869-2.135,10.304l1.609,2.786c0.983,1.703,1.244,3.685,0.735,5.584c-0.509,1.898-1.727,3.485-3.429,4.469
			c-1.703,0.983-3.684,1.245-5.585,0.735c-1.898-0.509-3.485-1.726-4.469-3.43l-1.785-3.091c-1.979-3.427-6.279-4.723-9.823-2.97
			c-8.894,4.406-18.091,8.226-27.334,11.353c-3.746,1.267-5.864,5.225-4.841,9.045l0.916,3.421c1.05,3.92-1.284,7.963-5.204,9.014
			c-3.917,1.048-7.964-1.284-9.014-5.203l-0.923-3.449c-1.022-3.816-4.83-6.188-8.707-5.416c-9.602,1.908-19.477,3.194-29.35,3.822
			c-3.949,0.252-7.023,3.528-7.023,7.485v3.613c0,4.058-3.302,7.359-7.359,7.359c-4.058,0-7.359-3.302-7.359-7.359v-3.613
			c0-3.957-3.074-7.233-7.023-7.484c-18.999-1.21-28.498-3.968-30.816-3.968c-7.345,0-7.67,8.091-8.162,9.009
			c-1.051,3.92-5.099,6.253-9.014,5.204c-3.92-1.051-6.254-5.094-5.203-9.015l0.915-3.42c1.023-3.82-1.095-7.778-4.842-9.045
			c-9.24-3.125-18.438-6.944-27.334-11.353c-3.543-1.757-7.847-0.456-9.824,2.971l-1.784,3.091
			c-2.034,3.521-6.528,4.728-10.053,2.693c-3.519-2.033-4.729-6.528-2.694-10.051l1.796-3.108c1.977-3.423,0.959-7.793-2.328-9.988
			c-8.165-5.455-16.061-11.523-23.467-18.036c-2.971-2.612-7.458-2.468-10.256,0.327l-2.557,2.556c-2.874,2.876-7.53,2.878-10.408,0
			c-2.876-2.875-2.877-7.53,0.001-10.406l2.556-2.556c2.797-2.798,2.941-7.286,0.328-10.257c-6.512-7.405-12.58-15.3-18.036-23.467
			c-2.194-3.285-6.564-4.304-9.986-2.328l-3.108,1.795c-3.503,2.021-8.007,0.849-10.054-2.694c-2.033-3.523-0.83-8.018,2.694-10.053
			l3.09-1.784c3.427-1.978,4.727-6.278,2.971-9.824c-4.41-8.903-8.229-18.101-11.353-27.334c-1.267-3.747-5.22-5.865-9.047-4.842
			l-3.419,0.917c-6.379,1.709-11.517-5.184-8.277-10.788c2.138-3.707,5.744-3.523,7.919-4.355c3.816-1.023,6.185-4.831,5.414-8.707
			c-1.908-9.594-3.194-19.468-3.823-29.348c-0.251-3.949-3.527-7.023-7.484-7.023h-3.614c-4.058,0-7.359-3.302-7.359-7.359
			c-0.001-4.058,3.301-7.36,7.359-7.36h3.613c3.957,0,7.233-3.074,7.484-7.023c0.629-9.881,1.915-19.755,3.823-29.348
			c0.771-3.876-1.598-7.684-5.414-8.707c-2.085-0.797-5.779-0.644-7.919-4.355c-2.03-3.512-0.836-8.014,2.693-10.053
			c3.704-2.139,6.729-0.181,9.003,0.182c3.823,1.023,7.78-1.096,9.047-4.842c3.123-9.234,6.942-18.432,11.353-27.334
			c1.756-3.546,0.456-7.846-2.971-9.824l-3.09-1.784c-3.516-2.032-4.732-6.522-2.694-10.053c2.032-3.517,6.524-4.732,10.054-2.694
			c1.132,0.365,6.986,5.782,12.159,0.607c1.832-1.84,6.362-10.27,18.972-24.607c2.612-2.971,2.469-7.459-0.328-10.257
			c-1.44-1.771-4.712-3.467-4.712-7.759c0-6.54,7.959-9.809,12.563-5.204l2.556,2.556c2.798,2.796,7.287,2.939,10.256,0.328
			c7.41-6.516,15.31-12.586,23.478-18.043c3.405-2.274,4.384-6.891,2.091-10.372c-0.767-1.746-3.394-4.229-2.303-8.3
			c1.053-3.929,5.084-6.256,9.013-5.204c4.134,1.108,4.887,4.634,6.253,6.52c1.979,3.427,6.28,4.727,9.824,2.971
			c8.902-4.409,18.104-8.23,27.349-11.357c3.747-1.267,5.865-5.225,4.842-9.045c-0.093-0.349,0.346,1.265-0.931-3.416
			c-1.05-3.92,1.284-7.963,5.204-9.014c3.92-1.048,7.963,1.284,9.013,5.203l0.924,3.449c1.023,3.816,4.833,6.186,8.707,5.416
			c9.604-1.909,19.482-3.195,29.358-3.822c4.041-0.257,7.144-3.676,7.016-7.724c-0.003-0.049-0.002-3.326-0.002-3.375
			c0-4.058,3.302-7.359,7.359-7.359c4.058,0,7.359,3.302,7.359,7.359c-0.002,1.842,0.003,3.123-0.004,3.375
			c-0.129,4.048,2.979,7.466,7.02,7.724c9.883,0.628,19.763,1.915,29.362,3.824c3.889,0.773,7.699-1.608,8.713-5.435
			c0.024-0.092,0.047-0.185,0.067-0.276l0.845-3.154c1.05-3.92,5.098-6.251,9.014-5.204c3.92,1.051,6.254,5.094,5.204,9.015
			l-0.787,2.938c-0.054,0.156-0.102,0.315-0.145,0.478c-1.023,3.82,1.096,7.778,4.842,9.045c9.247,3.127,18.448,6.948,27.349,11.357
			c3.543,1.754,7.845,0.457,9.823-2.97l1.786-3.093c0.982-1.702,2.569-2.919,4.468-3.428c1.899-0.509,3.884-0.248,5.585,0.735
			c1.702,0.983,2.92,2.57,3.429,4.469c0.509,1.898,0.248,3.881-0.735,5.584c-0.468,0.808-1.472,2.556-1.556,2.685
			c-2.299,3.444-1.371,8.1,2.072,10.399c8.174,5.459,16.077,11.534,23.492,18.055c2.991,2.63,7.651,2.543,10.545-0.633l2.258-2.259
			c2.871-2.869,7.539-2.87,10.408-0.001c2.869,2.87,2.87,7.539,0,10.408l-2.556,2.556c-2.797,2.798-2.94,7.286-0.328,10.257
			c6.518,7.411,12.591,15.314,18.05,23.489c2.275,3.407,6.868,4.359,10.308,2.133c0.598-0.383,1.443-0.846,2.773-1.622
			c5.692-3.286,12.471,2.001,10.789,8.278c-1.094,4.082-4.669,4.936-6.298,6.125c-3.554,1.891-5.02,6.296-3.175,9.987
			c4.4,8.889,8.214,18.073,11.335,27.3c1.266,3.746,5.22,5.863,9.047,4.841l3.419-0.917c3.924-1.054,7.96,1.275,9.013,5.205
			c1.05,3.919-1.284,7.962-5.205,9.013l-3.067,0.822c-3.959,0.838-6.602,4.715-5.798,8.8c1.911,9.61,3.198,19.494,3.825,29.376
			c0.257,4.04,3.694,7.172,7.723,7.021c0.959-0.027,2.068-0.011,3.375-0.016c4.058,0,7.359,3.302,7.359,7.359
			C497.001,260.059,493.699,263.36,489.643,263.36z"/>
	</g>
</g>
<g>
	<g>
		<circle cx="116.089" cy="210.966" r="9.2"/>
	</g>
</g>
<g>
	<g>
		<circle cx="170.258" cy="374.683" r="9.2"/>
	</g>
</g>
<g>
	<g>
		<circle cx="395.663" cy="210.966" r="9.2"/>
	</g>
</g>
<g>
	<g>
		<circle cx="341.974" cy="374.683" r="9.2"/>
	</g>
</g>
<g>
	<g>
		<circle cx="255.996" cy="109.338" r="9.2"/>
	</g>
</g>
<g>
</g>
<g>
</g>
<g>
</g>
<g>
</g>
<g>
</g>
<g>
</g>
<g>
</g>
<g>
</g>
<g>
</g>
<g>
</g>
<g>
</g>
<g>
</g>
<g>
</g>
<g>
</g>
<g>
</g>
</svg>
