<svg id="Capa_1" enable-background="new 0 0 512 512" height="512" viewBox="0 0 512 512" width="512" xmlns="http://www.w3.org/2000/svg"><g><path d="m448.295.677c-35.126 0-63.703 28.578-63.703 63.705 3.203 84.396 124.218 84.371 127.408-.001 0-35.125-28.578-63.704-63.705-63.704z"/><path d="m354.614 62.612c.228-12.242 2.811-23.918 7.321-34.59l-116.747 42.492c17.346 2.771 34.073 7.419 49.961 13.741z"/><path d="m428.422 217.528c6.323 15.888 10.97 32.615 13.741 49.961l42.492-116.747c-10.672 4.51-22.348 7.093-34.59 7.321z"/><path d="m207.576 279.934c-13.877 0-25.167 11.29-25.167 25.167 1.265 33.342 49.074 33.332 50.334 0 0-13.877-11.29-25.167-25.167-25.167z"/><path d="m207.576 97.526c-114.458 0-207.576 93.118-207.576 207.575 10.435 274.999 404.758 274.925 415.152-.003-.001-114.454-93.119-207.572-207.576-207.572zm143.536 231.676c0 7.564-5.633 13.945-13.14 14.884l-18.301 2.288c-1.1 2.98-2.318 5.917-3.652 8.802l11.326 14.563c4.645 5.971 4.116 14.467-1.233 19.815l-34.084 34.084c-5.349 5.351-13.843 5.879-19.816 1.233l-14.562-11.326c-2.886 1.335-5.822 2.554-8.803 3.652l-2.287 18.3c-.938 7.507-7.318 13.14-14.884 13.14h-48.201c-7.564 0-13.945-5.633-14.884-13.14l-2.288-18.3c-2.98-1.1-5.918-2.318-8.803-3.653l-14.562 11.327c-5.969 4.646-14.466 4.116-19.815-1.233l-34.084-34.084c-5.35-5.35-5.878-13.845-1.233-19.815l11.327-14.562c-1.336-2.886-2.555-5.822-3.653-8.803l-18.3-2.288c-7.507-.938-13.14-7.319-13.14-14.884v-48.201c0-7.565 5.633-13.946 13.14-14.884l18.3-2.287c1.1-2.98 2.318-5.918 3.653-8.803l-11.327-14.562c-4.645-5.972-4.116-14.467 1.233-19.816l34.084-34.084c5.351-5.35 13.846-5.878 19.815-1.233l14.562 11.326c2.886-1.335 5.823-2.554 8.803-3.652l2.288-18.301c.938-7.507 7.319-13.14 14.884-13.14h48.201c7.565 0 13.946 5.633 14.884 13.14l2.287 18.301c2.98 1.1 5.917 2.318 8.802 3.652l14.563-11.326c5.972-4.645 14.467-4.115 19.815 1.233l34.084 34.084c5.35 5.349 5.878 13.845 1.233 19.815l-11.326 14.562c1.335 2.886 2.554 5.822 3.652 8.803l18.301 2.287c7.507.938 13.14 7.318 13.14 14.884v48.202z"/><path d="m293.856 281.483c-1.969-7.201-4.854-14.154-8.576-20.665-3.017-5.278-2.55-11.854 1.183-16.653l9.073-11.666-15.357-15.357-11.666 9.073c-4.798 3.731-11.376 4.197-16.653 1.183-6.507-3.72-13.46-6.605-20.667-8.576-5.859-1.603-10.174-6.581-10.927-12.608l-1.831-14.647h-21.718l-1.831 14.647c-.753 6.028-5.068 11.007-10.929 12.608-7.202 1.969-14.154 4.854-20.665 8.576-5.278 3.015-11.855 2.549-16.653-1.183l-11.666-9.073-15.357 15.357 9.074 11.666c3.733 4.799 4.2 11.377 1.182 16.654-3.72 6.505-6.604 13.458-8.576 20.666-1.603 5.859-6.581 10.174-12.608 10.927l-14.646 1.831v21.718l14.646 1.831c6.028.753 11.007 5.068 12.608 10.929 1.97 7.202 4.854 14.155 8.576 20.664 3.019 5.278 2.552 11.855-1.182 16.655l-9.074 11.665 15.357 15.357 11.665-9.074c4.801-3.732 11.379-4.198 16.655-1.182 6.505 3.72 13.458 6.604 20.666 8.576 5.859 1.603 10.174 6.581 10.927 12.608l1.831 14.646h21.718l1.831-14.646c.753-6.028 5.068-11.007 10.929-12.608 7.202-1.969 14.154-4.854 20.664-8.576 5.279-3.019 11.857-2.551 16.654 1.182l11.666 9.074 15.357-15.357-9.073-11.666c-3.732-4.799-4.199-11.376-1.183-16.653 3.72-6.507 6.605-13.46 8.576-20.667 1.603-5.859 6.581-10.174 12.608-10.927l14.647-1.831v-21.718l-14.647-1.831c-6.027-.753-11.006-5.069-12.608-10.929zm-86.28 78.785c-30.419 0-55.167-24.748-55.167-55.167 2.774-73.086 107.571-73.066 110.334.001 0 30.418-24.748 55.166-55.167 55.166z"/></g></svg>
