<svg id="Layer_1" enable-background="new 0 0 512 512" height="512" viewBox="0 0 512 512" width="512" xmlns="http://www.w3.org/2000/svg"><path d="m485.812 292.334-62.088-107.54c-6.586-11.406-21.224-15.328-32.628-8.743l-35.377 20.425c-9.155 5.286-13.483 15.76-11.43 25.587-22.273 5.861-44.659 5.807-71.346-.068-28.466-6.266-42.266-.325-60.976 16.397l-44.358-15.846c2.3-9.965-2.021-20.698-11.327-26.071l-35.377-20.425c-11.407-6.586-26.043-2.663-32.628 8.743l-62.088 107.54c-6.584 11.406-2.663 26.043 8.743 32.628l35.377 20.425c3.752 2.167 7.853 3.195 11.902 3.195 7.588 0 14.986-3.624 19.567-10.144l26.522 33.12-.68.967c-9.913 14.093-4.242 29.104 6.483 36.65 3.886 2.734 8.469 4.512 13.208 4.998-.467 4.377.25 8.799 2.181 12.964 4.09 8.82 12.99 15.081 22.673 15.949 3.292.297 6.49-.047 9.503-.976 1.932 5.228 5.564 9.754 10.1 12.945 7.26 5.105 16.954 6.877 25.538 3.121 2.046 4.481 5.354 8.354 9.373 11.18 4.6 3.236 10.176 5.132 15.829 5.132 7.53-.001 15.194-3.367 20.856-11.417l3.733-5.306 21.129 12.303c4.66 2.713 9.278 3.897 13.627 3.897 9.547 0 17.796-5.708 22.33-13.491 2.367-4.063 3.743-8.726 3.848-13.438 9.815.265 18.374-5.513 23.016-13.483 2.187-3.753 3.527-8.018 3.801-12.361 10.74 1.271 20.207-4.775 25.186-13.327 4.661-8.005 5.477-18.341.306-26.778 4.023-2.417 7.382-5.904 9.736-9.951 4.702-8.084 5.476-18.546.125-27.03l17.897-9.138.968 1.676c3.181 5.51 8.333 9.456 14.508 11.11 2.068.554 4.166.829 6.249.829 4.134 0 8.207-1.081 11.871-3.196l35.377-20.425c11.404-6.584 15.326-21.221 8.741-32.627zm-407.504 39.197-35.378-20.425c-3.765-2.174-5.06-7.006-2.886-10.772l62.088-107.54c1.459-2.527 4.115-3.941 6.842-3.941 1.337 0 2.691.34 3.93 1.055l35.377 20.425c3.766 2.174 5.061 7.006 2.886 10.771l-62.087 107.541c-2.175 3.765-7.008 5.061-10.772 2.886zm65 64.559c-1.419-.999-8.213-6.382-2.603-14.359l18.373-26.12c5.609-7.973 12.971-3.403 14.389-2.406 1.419.997 8.215 6.376 2.618 14.347l-6.16 8.758-12.223 17.376c-.001.001-.001.002-.002.003-5.61 7.975-12.973 3.4-14.392 2.401zm41.975 22.315c-.011.015-.021.03-.032.045l-2.917 4.147c-2.343 3.332-5.291 4.869-8.741 4.552-3.968-.355-7.911-3.128-9.586-6.743-1.46-3.148-1.013-6.434 1.331-9.765l5.438-7.731c.003-.005.007-.011.011-.016v-.001l12.225-17.379 13.474-19.156c5.611-7.977 12.975-3.401 14.394-2.403s8.214 6.382 2.604 14.358l-2.51 3.567c-.004.006-.008.012-.012.018l-.001.001v.001l-24.357 34.627zm30.084 21.161c-5.611 7.976-12.975 3.4-14.395 2.402-1.417-.997-8.194-6.367-2.626-14.325l1.344-1.911 24.357-34.627.006-.008c5.61-7.958 12.967-3.387 14.386-2.389 1.418.999 8.212 6.382 2.602 14.358l-11.623 16.524c-.003.004-.007.01-.01.014l-.001.001-7.789 11.074zm44.121 1.205-9.212 13.096c-5.611 7.978-12.973 3.401-14.394 2.403-1.419-.998-8.214-6.381-2.603-14.358l1.425-2.026 7.788-11.072s0 0 0-.001c5.611-7.974 12.973-3.398 14.392-2.4 1.419.997 8.214 6.381 2.604 14.358zm116.756-77.679c-.872 1.498-5.645 8.72-14.065 3.839l-.005-.003-32.338-18.83c-3.816-2.223-8.715-.93-10.939 2.888-2.223 3.818-.93 8.716 2.888 10.939l32.338 18.83 8.456 4.923c8.429 4.908 4.5 12.637 3.627 14.136-.873 1.5-5.654 8.73-14.083 3.822l-10.442-6.08c-.009-.005-.018-.011-.027-.016l-.002-.001-32.657-19.015c-3.817-2.222-8.716-.93-10.939 2.888s-.93 8.716 2.888 10.939l32.657 19.015.014.008c8.404 4.911 4.479 12.628 3.606 14.126-.873 1.499-5.655 8.728-14.082 3.821l-8.35-4.862-26.636-15.509c-3.816-2.222-8.715-.93-10.939 2.888-2.223 3.818-.93 8.715 2.888 10.939l26.636 15.509s.001 0 .001.001c8.419 4.911 4.491 12.634 3.618 14.133-.874 1.499-5.656 8.728-14.082 3.821l-20.539-11.959c5.131-12.287-.358-24.421-9.646-30.956-2.968-2.088-6.343-3.619-9.883-4.441 6.893-13.053 1.305-26.318-8.563-33.261-4.646-3.269-10.292-5.189-16.001-5.133-.588-8.005-5.18-15.134-11.559-19.621-8.229-5.79-19.591-7.291-28.912-1.311-2.059-3.746-5.015-6.99-8.505-9.443-10.725-7.537-26.766-7.796-36.676 6.292l-8.107 11.525-27.448-34.277 50.036-86.666 38.475 13.744c-1.55 1.52-3.139 3.084-4.79 4.71-3.611 3.558-7.345 7.236-11.506 11.266-1.462 1.416-2.33 3.335-2.426 5.368l-2.118 44.59c-.548 11.538 5.05 16.834 8.436 18.965 7.356 4.629 17.938 3.653 29.795-2.749 10.073-5.438 15.896-17.879 21.034-28.856 1.043-2.229 2.046-4.37 3.039-6.365.662-.313 1.323-.626 1.984-.94 13.605-6.459 22.396-10.159 31.29-5.023l98.927 57.262c8.427 4.904 4.504 12.631 3.632 14.13zm.636-30.15-95.184-55.096c-16.626-9.6-32.316-2.151-46.16 4.421-1.444.686-2.89 1.373-4.339 2.041-1.589.733-2.894 1.967-3.715 3.512-1.581 2.976-3.115 6.253-4.598 9.423-4.088 8.733-8.722 18.632-14.145 21.56-7.409 4-12.319 4.137-13.673 3.285-.579-.364-1.104-1.947-.976-4.663l1.968-41.433c3.353-3.265 6.496-6.361 9.329-9.152 29.049-28.619 35.95-35.419 64.116-29.219 19.281 4.244 48.267 8.577 81.866-.908l48.716 84.379zm92.189-21.836-35.377 20.425c-1.809 1.044-3.933 1.316-5.979.77-2.046-.549-3.749-1.847-4.793-3.656l-62.088-107.54c-2.174-3.765-.879-8.598 2.886-10.771l35.377-20.425c3.766-2.173 8.598-.879 10.772 2.886l62.088 107.54c2.175 3.765.88 8.597-2.886 10.771zm-127.45-164.886 48.406-27.948c3.826-2.208 8.719-.898 10.928 2.928s.898 8.719-2.928 10.928l-48.406 27.948c-1.26.727-2.635 1.073-3.993 1.073-2.765 0-5.454-1.435-6.936-4.001-2.208-3.826-.897-8.719 2.929-10.928zm-93.619-44.813v-55.895c0-4.418 3.582-8 8-8s8 3.582 8 8v55.895c0 4.418-3.582 8-8 8s-8-3.582-8-8zm52.814 9.864 27.947-48.406c2.209-3.827 7.103-5.138 10.928-2.928 3.826 2.209 5.137 7.102 2.928 10.928l-27.947 48.406c-1.482 2.566-4.171 4.001-6.936 4.001-1.357 0-2.733-.346-3.993-1.073-3.825-2.21-5.136-7.102-2.927-10.928zm-131.431-40.406c-2.209-3.826-.898-8.719 2.928-10.928 3.826-2.207 8.719-.898 10.928 2.928l27.948 48.406c2.209 3.826.898 8.719-2.928 10.928-1.26.727-2.635 1.073-3.993 1.073-2.765 0-5.454-1.435-6.936-4.001zm-58.336 50.335c2.209-3.827 7.103-5.138 10.928-2.928l48.406 27.948c3.826 2.209 5.137 7.102 2.928 10.928-1.482 2.566-4.171 4.001-6.936 4.001-1.357 0-2.733-.346-3.993-1.073l-48.406-27.948c-3.825-2.209-5.136-7.102-2.927-10.928z"/></svg>