<svg id="Layer_1" enable-background="new 0 0 500 500" viewBox="0 0 500 500" xmlns="http://www.w3.org/2000/svg"><g><path d="m334.132 475h-221.565c-12.812 0-25.086-5.45-33.678-14.954-8.593-9.506-12.783-22.267-11.493-35.012l24.504-242.251c2.026-20.037 18.741-35.147 38.882-35.147h185.136c20.139 0 36.857 15.11 38.886 35.147l2.063 20.407c.415 4.114-2.582 7.787-6.691 8.202-4.12.429-7.787-2.583-8.202-6.693l-2.063-20.408c-1.252-12.361-11.567-21.685-23.993-21.685h-185.136c-12.426 0-22.741 9.321-23.989 21.685l-24.504 242.248c-.878 8.669 1.859 17.005 7.704 23.469 5.844 6.461 13.862 10.022 22.574 10.022h221.565c8.716 0 16.736-3.561 22.577-10.026 5.844-6.463 8.579-14.796 7.701-23.466l-2.412-23.848c-.415-4.114 2.581-7.787 6.693-8.202 4.137-.395 7.789 2.579 8.201 6.693l2.412 23.849c1.29 12.747-2.897 25.508-11.486 35.011-8.594 9.506-20.871 14.959-33.686 14.959z"/><path d="m282.512 131.01c-4.134 0-7.485-3.351-7.485-7.485v-31.88c0-28.494-23.182-51.675-51.675-51.675-28.495 0-51.677 23.182-51.677 51.675v31.88c0 4.134-3.351 7.485-7.485 7.485s-7.485-3.351-7.485-7.485v-31.88c0-36.748 29.898-66.645 66.646-66.645s66.645 29.897 66.645 66.645v31.88c.001 4.134-3.35 7.485-7.484 7.485z"/><path d="m189.17 131.01h-44.036c-4.134 0-7.485-3.351-7.485-7.485s3.351-7.485 7.485-7.485h44.036c4.134 0 7.485 3.351 7.485 7.485s-3.351 7.485-7.485 7.485z"/><path d="m301.568 131.01h-44.036c-4.134 0-7.485-3.351-7.485-7.485s3.351-7.485 7.485-7.485h44.036c4.134 0 7.485 3.351 7.485 7.485s-3.351 7.485-7.485 7.485z"/><path d="m331.928 313.243c-3.841 0-7.68-1.216-11.033-3.651l-12.456-9.049c-1.35-.977-3.139-.973-4.468-.002l-12.463 9.051c-6.704 4.871-15.367 4.871-22.065 0-6.702-4.868-9.38-13.106-6.821-20.986l4.759-14.645c.512-1.573-.043-3.281-1.379-4.251l-12.455-9.049c-6.707-4.871-9.382-13.11-6.821-20.99 2.559-7.878 9.567-12.969 17.849-12.969h15.403c1.652 0 3.105-1.056 3.613-2.629l4.757-14.642c2.561-7.878 9.57-12.971 17.855-12.971 8.286.003 15.294 5.093 17.852 12.971l4.761 14.645c.508 1.57 1.961 2.626 3.613 2.626h15.399c8.283 0 15.292 5.09 17.853 12.966 2.561 7.88-.115 16.118-6.819 20.992-.003 0-12.461 9.049-12.461 9.049-1.333.97-1.889 2.678-1.377 4.249l4.757 14.647c2.561 7.88-.117 16.118-6.819 20.986-3.351 2.436-7.192 3.652-11.034 3.652zm-67.353-71.571c-2.49 0-3.356 1.835-3.613 2.625s-.637 2.787 1.383 4.254l12.454 9.049c6.602 4.795 9.342 13.23 6.821 20.99l-4.759 14.642c-.772 2.37.707 3.762 1.379 4.25.676.489 2.466 1.466 4.47 0l12.461-9.049c6.596-4.8 15.466-4.803 22.069.004l12.452 9.045c2.021 1.462 3.802.48 4.47 0 .673-.488 2.152-1.88 1.381-4.25l-4.757-14.645c-2.52-7.757.219-16.192 6.817-20.987l12.461-9.049c2.015-1.467 1.635-3.464 1.381-4.254-.257-.79-1.123-2.625-3.617-2.625h-15.399c-8.155 0-15.329-5.21-17.852-12.968l-4.761-14.647c-.768-2.371-2.783-2.629-3.613-2.629s-2.848.257-3.617 2.629l-4.757 14.645c-2.523 7.76-9.697 12.97-17.852 12.97z"/><path d="m398.123 387.058c-3.841 0-7.68-1.216-11.033-3.651l-12.458-9.053c-1.333-.97-3.134-.97-4.468 0l-12.458 9.053c-6.707 4.87-15.367 4.87-22.067 0-6.701-4.871-9.377-13.108-6.819-20.987l4.757-14.645c.512-1.573-.043-3.279-1.379-4.251l-12.458-9.051c-3.344-2.43-4.084-7.11-1.654-10.455 2.435-3.339 7.116-4.079 10.455-1.656l12.458 9.053c6.598 4.795 9.338 13.23 6.817 20.988l-4.757 14.642c-.772 2.371.708 3.763 1.377 4.251.679.492 2.462 1.467 4.474 0l12.454-9.051c6.602-4.795 15.466-4.795 22.069 0l12.458 9.051c2.013 1.467 3.798.479 4.466 0 .672-.488 2.152-1.88 1.38-4.251l-4.757-14.645c-2.52-7.756.219-16.191 6.818-20.986l12.458-9.053c2.017-1.465 1.641-3.458 1.383-4.247-.257-.792-1.123-2.629-3.617-2.629h-15.399c-8.155 0-15.329-5.21-17.852-12.966l-4.761-14.651c-.402-1.239-1.183-2.056-2.327-2.426-1.216-.392-2.625-.194-3.593.515-3.337 2.439-8.024 1.708-10.459-1.629-2.438-3.338-1.71-8.02 1.629-10.457 4.859-3.549 11.227-4.549 17.033-2.669 5.713 1.848 10.07 6.239 11.955 12.043l4.761 14.647c.508 1.57 1.961 2.625 3.613 2.625h15.399c8.286 0 15.294 5.09 17.856 12.973 2.557 7.877-.12 16.116-6.821 20.983l-12.458 9.051c-1.336.972-1.891 2.678-1.379 4.249l4.757 14.647c2.561 7.88-.117 16.116-6.819 20.987-3.35 2.435-7.192 3.651-11.034 3.651z"/><path d="m116.674 415.263c-.269 0-.541-.014-.813-.043-4.111-.444-7.081-4.135-6.637-8.245l22.246-205.791c.916-8.467 8.026-14.849 16.54-14.849h67.403c4.134 0 7.485 3.351 7.485 7.485s-3.351 7.485-7.485 7.485h-67.403c-.853 0-1.564.639-1.658 1.488l-22.246 205.789c-.414 3.836-3.657 6.681-7.432 6.681z"/></g></svg>
