<svg id="Layer_1" enable-background="new 0 0 500 500" viewBox="0 0 500 500" xmlns="http://www.w3.org/2000/svg"><g><path d="m215.327 440.327c-104.945 0-190.327-85.382-190.327-190.327 0-104.946 85.382-190.327 190.327-190.327s190.327 85.381 190.327 190.327c-.001 104.945-85.382 190.327-190.327 190.327zm0-365.94c-96.837 0-175.614 78.777-175.614 175.613s78.777 175.613 175.614 175.613c96.835 0 175.613-78.778 175.613-175.613 0-96.836-78.778-175.613-175.613-175.613z"/><path d="m215.327 351.554c-55.996 0-101.555-45.558-101.555-101.554s45.559-101.555 101.555-101.555c55.995 0 101.554 45.559 101.554 101.555s-45.559 101.554-101.554 101.554zm0-188.395c-47.886 0-86.842 38.954-86.842 86.841 0 47.886 38.955 86.841 86.842 86.841 47.886 0 86.841-38.955 86.841-86.841 0-47.887-38.955-86.841-86.841-86.841z"/><path d="m284.673 440.327h-69.346c-.69 0-1.38-.098-2.041-.288-.925-.27-22.632-6.782-23.144-27.822-.098-4.063 3.115-7.437 7.178-7.534 3.936.005 7.437 3.115 7.534 7.178.207 8.718 8.857 12.684 11.691 13.753h68.128c96.836 0 175.613-78.778 175.613-175.613 0-96.836-78.778-175.613-175.613-175.613h-47.99c2.19 3.615 3.701 8.034 3.834 13.402.098 4.057-3.115 7.431-7.178 7.535-3.799.092-7.438-3.115-7.535-7.179-.253-10.385-12.397-14.012-12.518-14.046-3.523-1.017-5.759-4.471-5.242-8.098.512-3.632 3.616-6.327 7.282-6.327h69.346c104.946-.002 190.328 85.379 190.328 190.325 0 104.945-85.382 190.327-190.327 190.327z"/><path d="m250 344.881c-.92 0-1.839-.172-2.713-.517-38.978-15.454-64.168-52.495-64.168-94.364 0-41.864 25.19-78.899 64.168-94.365 1.748-.689 3.678-.689 5.425 0 38.978 15.466 64.168 52.501 64.168 94.365 0 41.869-25.19 78.91-64.168 94.364-.873.345-1.793.517-2.712.517zm0-174.441c-31.788 13.834-52.168 44.748-52.168 79.56 0 34.816 20.38 65.731 52.168 79.559 31.788-13.828 52.169-44.743 52.169-79.559-.001-34.811-20.381-65.726-52.169-79.56z"/><path d="m287.506 111.192c-.775 0-1.569-.121-2.345-.385-3.851-1.293-5.925-5.466-4.626-9.316 3.253-9.678-6.581-17.196-7.001-17.512-3.235-2.425-3.925-7.024-1.523-10.276 2.408-3.247 6.972-3.972 10.23-1.581.782.569 18.948 14.11 12.236 34.059-1.033 3.074-3.895 5.011-6.971 5.011z"/><path d="m333.14 144.692c-1.609 0-3.224-.522-4.581-1.603-3.178-2.535-3.695-7.167-1.167-10.339 6.374-7.983-.299-18.414-.586-18.851-1.477-2.264-1.609-5.173-.322-7.546s3.753-3.874 6.454-3.874h67.921c4.064 0 7.357 3.294 7.357 7.357s-3.293 7.356-7.357 7.356h-56.944c1.718 6.995 1.787 16.196-5.017 24.731-1.453 1.821-3.597 2.769-5.758 2.769z"/><path d="m364.578 191.78c-2.478 0-4.897-1.253-6.288-3.523-2.115-3.471-1.017-7.995 2.448-10.115 8.719-5.316 6.013-17.396 5.892-17.908-.506-2.185.006-4.507 1.397-6.265 1.397-1.759 3.511-2.81 5.759-2.81h69.725c4.064 0 7.357 3.293 7.357 7.356 0 4.064-3.293 7.357-7.357 7.357h-61.714c-.16 7.609-2.575 18.23-13.391 24.834-1.196.729-2.524 1.074-3.828 1.074z"/><path d="m377.991 246.781c-3.431 0-6.5-2.408-7.207-5.902-.805-3.983 1.776-7.862 5.758-8.666 10.185-2.052 11.644-14.638 11.656-14.765.402-3.742 3.557-6.574 7.316-6.574h69.22c4.063 0 7.356 3.293 7.356 7.356s-3.293 7.356-7.356 7.356h-63.399c-2.321 7.259-8.069 18.265-21.885 21.052-.487.098-.976.143-1.459.143z"/><path d="m375.032 303.306c-1.386 0-2.828-.103-4.322-.327-4.018-.609-6.782-4.356-6.179-8.374.609-4.017 4.35-6.753 8.374-6.178 10.052 1.603 15.793-9.46 16.023-9.931 1.253-2.477 3.81-4.081 6.586-4.081h67.91c4.063 0 7.357 3.293 7.357 7.356s-3.294 7.357-7.357 7.357h-63.812c-3.792 5.407-11.908 14.178-24.58 14.178z"/><path d="m356.163 356.307c-4.063 0-8.443-.931-12.949-3.385-3.563-1.943-4.879-6.414-2.937-9.983 1.943-3.563 6.409-4.879 9.983-2.937 8.937 4.874 18.075-3.494 18.46-3.851 1.362-1.276 3.196-2.022 5.063-2.022h68.467c4.063 0 7.356 3.293 7.356 7.356s-3.293 7.356-7.356 7.356h-65.823c-3.689 2.805-11.183 7.466-20.264 7.466z"/><path d="m321.438 399.773c-6.747 0-14.679-2-21.133-9.321-2.689-3.046-2.396-7.696.656-10.38 3.034-2.69 7.69-2.391 10.38.655 6.758 7.655 18.184 2.897 18.661 2.689.914-.391 1.943-.609 2.937-.609h67.685c4.063 0 7.356 3.293 7.356 7.356 0 4.064-3.293 7.357-7.356 7.357h-66.324c-2.407.851-7.218 2.253-12.862 2.253z"/><path d="m276.943 429.315c-5.288 0-23.15-1.293-29.806-18.265-1.482-3.782.38-8.047 4.167-9.535 3.77-1.471 8.052.38 9.535 4.166 3.73 9.5 16.092 8.943 16.616 8.908 4.183-.275 7.528 2.862 7.77 6.897.247 4.035-2.782 7.512-6.816 7.788-.133.012-.65.041-1.466.041z"/><path d="m152.721 429.286c-1.494 0-3-.454-4.305-1.408-.775-.563-18.954-14.109-12.236-34.064 1.299-3.839 5.448-5.92 9.322-4.621 3.845 1.299 5.919 5.472 4.621 9.322-3.259 9.672 6.58 17.19 7 17.506 3.236 2.425 3.925 7.024 1.523 10.27-1.447 1.955-3.671 2.995-5.925 2.995z"/><path d="m97.692 397.509c-2.357 0-4.667-1.138-6.086-3.247-.535-.794-12.972-19.742.16-36.185 2.535-3.166 7.167-3.701 10.339-1.155 3.173 2.535 3.69 7.161 1.156 10.339-6.368 7.977.299 18.403.586 18.839 2.212 3.391 1.287 7.943-2.086 10.179-1.253.828-2.673 1.23-4.069 1.23z"/><path d="m56.845 348.818c-3.299 0-6.293-2.224-7.12-5.569-.23-.931-5.443-22.989 12.523-33.955 3.466-2.116 7.995-1.012 10.115 2.448 2.116 3.471 1.018 7.994-2.448 10.115-8.718 5.316-6.012 17.397-5.891 17.909.914 3.936-1.512 7.902-5.443 8.845-.58.144-1.161.207-1.736.207z"/><path d="m35.15 289.127c-.265 0-.528-.012-.793-.04-4.041-.431-6.966-4.058-6.535-8.098.103-.96 2.741-23.466 23.38-27.627 3.949-.799 7.857 1.77 8.667 5.759.805 3.983-1.776 7.863-5.759 8.667-10.184 2.052-11.644 14.638-11.655 14.764-.403 3.776-3.598 6.575-7.305 6.575z"/><path d="m35.127 225.562c-1.098 0-2.207-.247-3.259-.77-3.621-1.805-5.115-6.167-3.334-9.799.42-.868 10.587-21.075 31.415-17.966 4.017.61 6.782 4.362 6.178 8.38-.609 4.017-4.368 6.736-8.379 6.172-10.121-1.609-15.788 9.46-16.023 9.926-1.3 2.563-3.903 4.057-6.598 4.057z"/><path d="m56.88 165.843c-1.948 0-3.886-.759-5.328-2.282-2.787-2.931-2.696-7.546.218-10.351.689-.661 17.161-16.213 35.667-6.133 3.563 1.943 4.879 6.414 2.937 9.983-1.943 3.563-6.408 4.879-9.983 2.937-8.943-4.88-18.075 3.495-18.46 3.851-1.419 1.334-3.235 1.995-5.051 1.995z"/><path d="m124.83 121.767c-2.035 0-4.064-.845-5.518-2.494-6.753-7.65-18.178-2.892-18.661-2.69-3.747 1.581-8.047-.121-9.661-3.822-1.609-3.713.046-8.017 3.747-9.65.885-.396 21.696-9.351 35.61 6.437 2.69 3.046 2.397 7.695-.655 10.38-1.396 1.235-3.132 1.839-4.862 1.839z"/><path d="m176.665 98.996c-2.937 0-5.713-1.77-6.851-4.672-3.725-9.506-16.092-8.96-16.61-8.914-4.161.155-7.529-2.862-7.77-6.897-.248-4.035 2.782-7.511 6.816-7.788.988-.086 23.587-1.367 31.265 18.23 1.483 3.782-.385 8.052-4.167 9.535-.879.345-1.787.506-2.683.506z"/><path d="m417.614 440.327h-316.256c-4.064 0-7.357-3.294-7.357-7.357s3.293-7.356 7.357-7.356h316.255c4.063 0 7.356 3.293 7.356 7.356.001 4.063-3.292 7.357-7.355 7.357z"/></g></svg>
