<svg id="Layer_1" enable-background="new 0 0 500 500" viewBox="0 0 500 500" xmlns="http://www.w3.org/2000/svg"><g><path d="m188.153 452.784h-121.407c-15.453 0-28.026-12.57-28.026-28.026v-144.624c0-39.023 14.713-76.381 41.431-105.201 1.351-1.457 3.249-2.288 5.239-2.288h84.121c1.99 0 3.888.831 5.238 2.288 26.717 28.819 41.431 66.178 41.431 105.201v144.625c-.001 15.455-12.574 28.025-28.027 28.025zm-99.598-265.85c-22.947 25.844-35.546 58.816-35.546 93.2v144.625c0 7.575 6.163 13.737 13.737 13.737h121.407c7.575 0 13.737-6.162 13.737-13.737v-144.625c0-34.384-12.598-67.356-35.545-93.2z"/><path d="m183.992 186.934h-113.084c-9.179 0-16.648-7.469-16.648-16.645v-10.963c0-9.181 7.469-16.65 16.648-16.65h113.084c9.18 0 16.648 7.469 16.648 16.65v10.963c0 9.176-7.469 16.645-16.648 16.645zm-113.084-29.969c-1.3 0-2.358 1.061-2.358 2.361v10.963c0 1.3 1.058 2.356 2.358 2.356h113.084c1.301 0 2.358-1.055 2.358-2.356v-10.963c0-1.3-1.057-2.361-2.358-2.361z"/><path d="m169.075 156.965h-83.25c-3.947 0-7.145-3.198-7.145-7.145v-43.013c0-3.946 3.198-7.145 7.145-7.145h83.25c3.946 0 7.145 3.198 7.145 7.145v43.013c0 3.947-3.199 7.145-7.145 7.145zm-76.105-14.289h68.961v-28.724h-68.961z"/><path d="m153.259 113.952h-51.618c-2.256 0-4.376-1.066-5.724-2.869-1.351-1.809-1.767-4.142-1.125-6.308l15.543-52.447c.898-3.031 3.684-5.113 6.849-5.113h20.533c3.164 0 5.95 2.082 6.849 5.113l15.543 52.447c.642 2.165.225 4.499-1.125 6.308-1.349 1.803-3.47 2.869-5.725 2.869zm-42.048-14.289h32.478l-11.307-38.158h-9.866z"/><path d="m165.972 388.66c-5.194 0-10.391-1.641-14.924-4.935l-17.074-12.413c-3.904-2.825-9.146-2.83-13.051.005l-17.072 12.403c-9.065 6.592-20.778 6.598-29.849 0-9.065-6.586-12.684-17.728-9.223-28.384l6.522-20.078c1.493-4.583-.129-9.572-4.03-12.403l-17.077-12.413c-9.065-6.581-12.685-17.728-9.222-28.384 3.464-10.655 12.942-17.543 24.147-17.543h21.105c4.823 0 9.065-3.081 10.556-7.669l6.522-20.073c3.463-10.655 12.941-17.543 24.15-17.543 11.205 0 20.684 6.888 24.147 17.549l6.522 20.067c1.49 4.588 5.733 7.669 10.555 7.669h21.105c11.206 0 20.684 6.888 24.147 17.543 3.464 10.656-.156 21.802-9.221 28.389l-17.075 12.403c-3.905 2.836-5.526 7.825-4.033 12.408l6.523 20.072c3.46 10.661-.159 21.802-9.224 28.389-4.536 3.295-9.73 4.941-14.926 4.941zm-38.521-33.77c5.23 0 10.457 1.625 14.92 4.862l17.077 12.414c4.812 3.488 9.891 2.283 13.048-.006 3.157-2.288 5.872-6.754 4.033-12.414l-6.522-20.066c-3.41-10.5.296-21.904 9.227-28.389l17.072-12.403c4.811-3.499 5.238-8.702 4.033-12.414-1.205-3.706-4.61-7.669-10.558-7.669h-21.105c-11.032 0-20.736-7.049-24.147-17.537l-6.522-20.072c-1.836-5.66-6.658-7.675-10.555-7.675-3.899 0-8.722 2.016-10.558 7.669l-6.522 20.078c-3.41 10.488-13.115 17.537-24.147 17.537h-21.106c-5.947 0-9.352 3.963-10.558 7.669-1.205 3.712-.778 8.915 4.034 12.409l17.075 12.413c8.928 6.48 12.635 17.884 9.224 28.384l-6.522 20.072c-1.839 5.655.877 10.12 4.034 12.408 3.153 2.289 8.236 3.5 13.047 0l17.075-12.402c4.46-3.243 9.693-4.868 14.923-4.868z"/><path d="m79.372 417.82h-32.534c-3.946 0-7.145-3.199-7.145-7.145 0-3.947 3.199-7.145 7.145-7.145h32.534c3.946 0 7.145 3.198 7.145 7.145 0 3.946-3.199 7.145-7.145 7.145z"/><path d="m311.363 452.784h-121.406c-3.947 0-7.145-3.199-7.145-7.145s3.199-7.145 7.145-7.145h121.407c7.574 0 13.737-6.162 13.737-13.737v-144.623c0-34.384-12.599-67.356-35.546-93.2h-65.742c-3.946 0-7.145-3.199-7.145-7.145s3.199-7.145 7.145-7.145h68.908c1.99 0 3.888.831 5.239 2.288 26.717 28.819 41.431 66.178 41.431 105.201v144.625c-.001 15.456-12.574 28.026-28.028 28.026z"/><path d="m307.202 186.934h-86.513c-3.946 0-7.145-3.199-7.145-7.145s3.199-7.145 7.145-7.145h86.513c1.301 0 2.358-1.055 2.358-2.356v-10.963c0-1.3-1.058-2.361-2.358-2.361h-83.18c-3.946 0-7.145-3.198-7.145-7.145 0-3.946 3.199-7.145 7.145-7.145h83.18c9.179 0 16.648 7.469 16.648 16.65v10.963c0 9.178-7.469 16.647-16.648 16.647z"/><path d="m292.285 156.965h-68.263c-3.946 0-7.145-3.198-7.145-7.145 0-3.946 3.199-7.145 7.145-7.145h61.118v-28.724h-68.961v12.492c0 3.946-3.198 7.145-7.145 7.145-3.946 0-7.145-3.199-7.145-7.145v-19.637c0-3.946 3.199-7.145 7.145-7.145h83.25c3.947 0 7.145 3.198 7.145 7.145v43.013c0 3.948-3.197 7.146-7.144 7.146z"/><path d="m276.469 113.952h-51.614c-2.255 0-4.376-1.066-5.724-2.869-1.351-1.809-1.767-4.142-1.128-6.308l15.54-52.447c.902-3.031 3.687-5.113 6.851-5.113h20.535c3.165 0 5.951 2.082 6.852 5.113l15.539 52.447c.64 2.165.224 4.499-1.127 6.308-1.348 1.803-3.469 2.869-5.724 2.869zm-42.045-14.289h32.475l-11.303-38.158h-9.868z"/><path d="m289.184 388.66c-5.196.006-10.39-1.641-14.925-4.935l-17.074-12.413c-3.905-2.825-9.146-2.83-13.05.005-3.193 2.322-7.664 1.602-9.98-1.585-2.316-3.193-1.607-7.658 1.585-9.98 8.925-6.474 20.924-6.474 29.843 0l17.078 12.414c4.815 3.494 9.891 2.283 13.05-.006 3.153-2.288 5.869-6.754 4.03-12.414l-6.522-20.066c-3.411-10.494.298-21.904 9.226-28.389l17.072-12.403c4.812-3.499 5.239-8.702 4.034-12.414-1.204-3.706-4.611-7.669-10.558-7.669h-21.102c-11.035 0-20.739-7.049-24.15-17.537l-6.522-20.072c-1.836-5.66-6.659-7.675-10.558-7.675-3.896 0-8.719 2.016-10.555 7.669-1.225 3.751-5.266 5.806-9.004 4.588-3.753-1.216-5.807-5.247-4.588-8.997 3.463-10.661 12.941-17.549 24.147-17.549 11.208 0 20.686 6.888 24.15 17.549l6.522 20.067c1.491 4.588 5.733 7.669 10.558 7.669h21.102c11.208 0 20.686 6.888 24.15 17.549 3.461 10.655-.159 21.796-9.224 28.383l-17.074 12.403c-3.904 2.836-5.526 7.825-4.033 12.408l6.522 20.072c3.461 10.661-.159 21.802-9.224 28.389-4.535 3.293-9.732 4.939-14.926 4.939z"/><path d="m434.228 452.784h-121.405c-3.947 0-7.145-3.199-7.145-7.145s3.198-7.145 7.145-7.145h121.404c7.577 0 13.74-6.162 13.74-13.737v-144.623c0-34.384-12.599-67.356-35.548-93.2h-65.742c-3.946 0-7.145-3.199-7.145-7.145s3.198-7.145 7.145-7.145h68.908c1.99 0 3.888.831 5.239 2.288 26.72 28.819 41.433 66.184 41.433 105.201v144.625c0 15.456-12.573 28.026-28.029 28.026z"/><path d="m430.066 186.934h-86.51c-3.946 0-7.145-3.199-7.145-7.145s3.198-7.145 7.145-7.145h86.51c1.301 0 2.358-1.055 2.358-2.356v-10.963c0-1.3-1.058-2.361-2.358-2.361h-83.18c-3.946 0-7.145-3.198-7.145-7.145 0-3.946 3.198-7.145 7.145-7.145h83.18c9.179 0 16.648 7.469 16.648 16.65v10.963c0 9.178-7.469 16.647-16.648 16.647z"/><path d="m415.151 156.965h-68.265c-3.946 0-7.145-3.198-7.145-7.145 0-3.946 3.198-7.145 7.145-7.145h61.121v-28.724h-68.963v12.492c0 3.946-3.199 7.145-7.145 7.145s-7.145-3.199-7.145-7.145v-19.637c0-3.946 3.199-7.145 7.145-7.145h83.252c3.947 0 7.145 3.198 7.145 7.145v43.013c0 3.948-3.198 7.146-7.145 7.146z"/><path d="m399.333 113.952h-51.615c-2.255 0-4.375-1.066-5.724-2.869-1.35-1.809-1.766-4.142-1.127-6.308l15.54-52.447c.901-3.031 3.686-5.113 6.851-5.113h20.535c3.165 0 5.95 2.082 6.852 5.113l15.539 52.447c.639 2.165.224 4.499-1.127 6.308-1.348 1.803-3.47 2.869-5.724 2.869zm-42.045-14.289h32.475l-11.303-38.158h-9.869z"/><path d="m412.048 388.66c-5.197.006-10.39-1.641-14.925-4.935l-17.072-12.413c-3.902-2.825-9.146-2.83-13.053.005-3.196 2.322-7.667 1.602-9.98-1.585-2.316-3.193-1.607-7.658 1.585-9.98 8.925-6.474 20.92-6.474 29.845 0l17.075 12.414c4.814 3.494 9.891 2.283 13.05-.006 3.153-2.288 5.869-6.754 4.03-12.414l-6.523-20.066c-3.408-10.5.302-21.904 9.227-28.389l17.072-12.403c4.812-3.499 5.239-8.702 4.033-12.414-1.203-3.706-4.611-7.669-10.558-7.669h-21.102c-11.036 0-20.739-7.049-24.15-17.537l-6.522-20.072c-1.837-5.66-6.659-7.675-10.558-7.675-3.896 0-8.719 2.016-10.555 7.669-1.222 3.751-5.259 5.806-9.004 4.588-3.753-1.216-5.807-5.247-4.588-8.997 3.463-10.661 12.942-17.549 24.147-17.549 11.208 0 20.686 6.888 24.15 17.549l6.522 20.067c1.491 4.588 5.733 7.669 10.558 7.669h21.102c11.208 0 20.686 6.888 24.15 17.549 3.461 10.655-.16 21.796-9.224 28.383l-17.075 12.403c-3.901 2.836-5.523 7.825-4.033 12.414l6.522 20.066c3.461 10.661-.16 21.802-9.224 28.389-4.532 3.293-9.728 4.939-14.922 4.939z"/><path d="m467.855 452.784h-435.71c-3.946 0-7.145-3.199-7.145-7.145s3.198-7.145 7.145-7.145h435.711c3.946 0 7.145 3.198 7.145 7.145-.001 3.947-3.2 7.145-7.146 7.145z"/></g></svg>
