<?xml version="1.0" encoding="UTF-8"?>
<svg id="Calque_1" data-name="Calque 1" xmlns="http://www.w3.org/2000/svg" viewBox="0 0 300 70.61">
  <defs>
    <style>
      .cls-1 {
        fill: #fbbc35;
      }

      .cls-2 {
        fill: #192440;
      }
    </style>
  </defs>
  <g>
    <path class="cls-2" d="m31.6,49.28c-1.39-1.19-2.09-3.18-2.09-5.96v-12.81h-3.53v-5.5h3.53v-6.14h7.45v6.14h4.62v5.5h-4.62v11.93c0,1.15.26,1.96.77,2.43.51.47,1.29.7,2.34.7.32,0,.59-.01.83-.04.24-.02.47-.05.69-.08v5.36c-.41.06-.91.12-1.51.18-.59.06-1.27.08-2.03.08-2.91,0-5.06-.6-6.45-1.79Z"/>
    <path class="cls-2" d="m48.04,49.49c-1.91-1.05-3.38-2.57-4.42-4.56-1.04-1.99-1.56-4.37-1.56-7.14v-.05c0-2.75.53-5.12,1.59-7.1,1.06-1.98,2.54-3.51,4.45-4.58,1.9-1.07,4.15-1.6,6.72-1.6s4.82.53,6.73,1.59c1.91,1.06,3.4,2.58,4.45,4.56,1.05,1.98,1.58,4.36,1.58,7.13v.05c0,2.78-.52,5.17-1.55,7.15-1.04,1.98-2.51,3.5-4.42,4.55-1.91,1.05-4.17,1.58-6.76,1.58s-4.89-.53-6.79-1.58Zm9.58-5.03c.78-.59,1.39-1.45,1.81-2.58.43-1.13.64-2.49.64-4.09v-.05c0-1.6-.22-2.96-.65-4.08-.44-1.12-1.05-1.98-1.84-2.57-.79-.59-1.72-.89-2.77-.89s-1.96.3-2.75.89c-.79.59-1.4,1.45-1.84,2.57-.44,1.12-.65,2.48-.65,4.08v.05c0,1.6.22,2.96.65,4.09.43,1.13,1.04,1.99,1.83,2.58.78.59,1.72.89,2.81.89s1.98-.3,2.76-.89Z"/>
    <path class="cls-2" d="m69.02,25h7.4v4.48h.17c.46-1.04,1.06-1.94,1.79-2.69.74-.75,1.6-1.33,2.61-1.73,1-.4,2.11-.6,3.33-.6,2.13,0,3.98.53,5.53,1.58s2.73,2.57,3.55,4.55c.81,1.98,1.22,4.38,1.22,7.17v.02c0,2.77-.4,5.14-1.21,7.13s-1.98,3.51-3.51,4.56c-1.53,1.06-3.36,1.59-5.48,1.59-1.22,0-2.34-.2-3.37-.59-1.03-.4-1.92-.96-2.67-1.68-.75-.73-1.36-1.6-1.81-2.61h-.14v12.66h-7.4V25Zm15.59,19.1c.8-.59,1.42-1.43,1.85-2.5.44-1.08.65-2.35.65-3.82v-.02c0-1.5-.22-2.79-.65-3.87-.43-1.08-1.06-1.9-1.86-2.48-.81-.58-1.75-.87-2.82-.87s-2.02.29-2.83.88c-.81.58-1.45,1.42-1.9,2.49-.45,1.08-.68,2.36-.68,3.84v.02c0,1.49.23,2.77.68,3.84.45,1.08,1.08,1.91,1.9,2.49.81.58,1.76.88,2.83.88s2.04-.3,2.83-.89Z"/>
    <path class="cls-2" d="m99.98,49.48c-1.54-1.06-2.73-2.58-3.56-4.56s-1.24-4.37-1.24-7.15v-.02c0-2.78.42-5.17,1.26-7.15.84-1.98,2.02-3.5,3.56-4.55,1.53-1.05,3.37-1.58,5.5-1.58,1.22,0,2.33.2,3.33.6,1,.4,1.89.98,2.64,1.72.76.74,1.37,1.64,1.83,2.68h.14v-13.14h7.4v34.22h-7.4v-4.36h-.14c-.44,1.03-1.04,1.91-1.8,2.63s-1.64,1.28-2.66,1.67c-1.01.39-2.13.58-3.34.58-2.13,0-3.97-.53-5.51-1.59Zm10.9-5.36c.82-.58,1.46-1.42,1.91-2.5s.68-2.36.68-3.83v-.02c0-1.49-.23-2.77-.69-3.84-.46-1.07-1.1-1.9-1.91-2.49-.81-.58-1.75-.88-2.81-.88s-2.04.29-2.83.87c-.8.58-1.42,1.4-1.86,2.48-.44,1.08-.66,2.36-.66,3.84v.02c0,1.49.22,2.77.65,3.85.43,1.08,1.06,1.92,1.86,2.5s1.75.88,2.85.88,2-.29,2.82-.88Z"/>
    <path class="cls-2" d="m123.35,25h7.38v25.54h-7.38v-25.54Zm7.24-3.24h-7.1v-7.1h7.1v7.1Z"/>
    <path class="cls-2" d="m157.9,19.41c0-.85.08-1.75.68-2.1.65-.37.81-.28,1.87.01.3.09.59.23.88.36.29.12.54.24.75.35l1.56-4.37c-.27-.25-.74-.6-1.33-.95,0,0-1.35-.81-3.02-.91-2.62-.16-3.71.26-4.98.78-1.26.53-2.18,1.33-2.76,2.41-.32.6-.55,1.3-.69,2.09-.15-.11-.35-.23-.65-.36-1.19-.53-3.05-1.76-6.32-1.61-3.2.14-4.06.7-5.39,1.35-1.24.6-2,1.45-2.58,2.53-.57,1.08-.86,2.46-.86,4.14v1.87h-3.44v5.51h3.44v20.03h7.4v-20.03h8.23v20.03h7.39v-20.03h4.84v-5.51h-5.02v-5.59Zm-7.21,5.59h-8.42v-1.59c0-.85.26-1.51.79-1.96,3.05-2.59,6.17-.32,6.69-.05.55.28.67.34.94.4v3.2Z"/>
    <path class="cls-2" d="m168.3,49.92c-1.3-.77-2.3-1.87-2.99-3.3-.69-1.43-1.03-3.14-1.03-5.13v-16.48h7.4v14.94c0,1.58.37,2.82,1.11,3.71s1.87,1.34,3.37,1.34c.74,0,1.41-.13,1.99-.39s1.09-.63,1.52-1.1.75-1.04.97-1.68c.22-.65.33-1.38.33-2.18v-14.63h7.38v25.54h-7.38v-4.29h-.17c-.43,1-1,1.86-1.73,2.58-.73.73-1.59,1.28-2.58,1.66-1,.38-2.14.57-3.44.57-1.87,0-3.45-.38-4.75-1.15Z"/>
    <path class="cls-2" d="m195.25,50.05c-1.68-.68-2.98-1.64-3.92-2.87-.94-1.23-1.51-2.66-1.7-4.29l-.02-.21h7.21l.05.21c.21.96.68,1.72,1.41,2.25.74.54,1.77.81,3.12.81.84,0,1.55-.1,2.13-.31s1.04-.49,1.35-.87c.32-.37.47-.82.47-1.34v-.02c0-.63-.24-1.15-.72-1.54-.48-.4-1.32-.73-2.53-1l-4.39-.9c-1.64-.35-3.02-.85-4.14-1.52-1.12-.66-1.95-1.49-2.51-2.48-.56-.99-.84-2.12-.84-3.4v-.02c0-1.64.45-3.07,1.34-4.28.89-1.21,2.16-2.15,3.79-2.81,1.64-.66,3.56-1,5.77-1,2.32,0,4.29.37,5.89,1.11s2.83,1.73,3.69,2.95c.85,1.23,1.3,2.6,1.35,4.11v.21h-6.78l-.02-.19c-.11-.85-.51-1.58-1.21-2.17-.7-.59-1.67-.89-2.92-.89-.76,0-1.42.1-1.97.31-.55.21-.98.5-1.29.88s-.46.84-.46,1.38v.02c0,.4.11.75.32,1.08.21.32.57.6,1.07.84.5.24,1.16.45,1.98.64l4.39.9c2.67.55,4.6,1.39,5.79,2.5,1.19,1.11,1.78,2.61,1.78,4.49v.02c0,1.69-.48,3.17-1.45,4.43-.96,1.27-2.3,2.24-4,2.93-1.7.69-3.67,1.03-5.92,1.03-2.4,0-4.44-.34-6.12-1.02Z"/>
    <path class="cls-2" d="m214.1,25h7.38v25.54h-7.38v-25.54Z"/>
    <path class="cls-2" d="m228.98,49.49c-1.91-1.05-3.38-2.57-4.42-4.56-1.04-1.99-1.57-4.37-1.57-7.14v-.05c0-2.75.53-5.12,1.59-7.1s2.54-3.51,4.45-4.58c1.91-1.07,4.15-1.6,6.72-1.6s4.82.53,6.73,1.59c1.91,1.06,3.39,2.58,4.45,4.56,1.05,1.98,1.58,4.36,1.58,7.13v.05c0,2.78-.52,5.17-1.55,7.15-1.04,1.98-2.51,3.5-4.42,4.55-1.91,1.05-4.17,1.58-6.76,1.58s-4.89-.53-6.79-1.58Zm9.58-5.03c.78-.59,1.39-1.45,1.81-2.58.43-1.13.64-2.49.64-4.09v-.05c0-1.6-.22-2.96-.65-4.08-.44-1.12-1.05-1.98-1.84-2.57-.79-.59-1.72-.89-2.77-.89s-1.96.3-2.75.89c-.79.59-1.4,1.45-1.84,2.57-.44,1.12-.65,2.48-.65,4.08v.05c0,1.6.22,2.96.65,4.09.43,1.13,1.04,1.99,1.83,2.58.78.59,1.72.89,2.81.89s1.98-.3,2.76-.89Z"/>
    <path class="cls-2" d="m249.95,25h7.4v4.29h.14c.66-1.52,1.64-2.7,2.93-3.56,1.29-.85,2.9-1.28,4.83-1.28,2.8,0,4.96.85,6.49,2.55,1.53,1.7,2.29,4.04,2.29,7.03v16.5h-7.38v-14.94c0-1.6-.38-2.84-1.13-3.72-.75-.88-1.87-1.33-3.36-1.33-1,0-1.85.23-2.57.68s-1.27,1.08-1.66,1.87-.58,1.73-.58,2.79v14.66h-7.4v-25.54Z"/>
  </g>
  <rect class="cls-1" x="213.91" y="14.93" width="7.75" height="7.75"/>
</svg>