<?xml version="1.0" encoding="UTF-8"?>
<svg id="Calque_1" data-name="Calque 1" xmlns="http://www.w3.org/2000/svg" viewBox="0 0 620 235.84">
  <defs>
    <style>
      .cls-1 {
        fill: #fff;
      }

      .cls-2, .cls-3 {
        fill: #fbb03b;
      }

      .cls-4 {
        fill: #ccc;
      }

      .cls-5 {
        fill: gray;
      }

      .cls-6 {
        fill: none;
        stroke: #999;
        stroke-miterlimit: 10;
      }

      .cls-7 {
        opacity: .5;
      }

      .cls-3 {
        opacity: .3;
      }
    </style>
  </defs>
  <g>
    <g>
      <rect class="cls-1" x="26.83" y="-65.74" width="245.95" height="245.95" rx="9.59" ry="9.59"/>
      <path class="cls-4" d="m263.19-65.24c5.01,0,9.09,4.08,9.09,9.09v226.76c0,5.01-4.08,9.09-9.09,9.09H36.43c-5.01,0-9.09-4.08-9.09-9.09V-56.15c0-5.01,4.08-9.09,9.09-9.09h226.76m0-1H36.43c-5.57,0-10.09,4.52-10.09,10.09v226.76c0,5.57,4.52,10.09,10.09,10.09h226.76c5.57,0,10.09-4.52,10.09-10.09V-56.15c0-5.57-4.52-10.09-10.09-10.09h0Z"/>
    </g>
    <rect class="cls-2" x="41.03" y="127.47" width="217.56" height="34.73" rx="8.17" ry="8.17"/>
    <rect class="cls-7" x="103.05" y="142.29" width="93.51" height="5.48" rx="2.74" ry="2.74"/>
    <line class="cls-6" x1="41.03" y1="100.09" x2="258.59" y2="100.09"/>
    <g>
      <path class="cls-5" d="m49.5,118.2v-8.33h1.13v8.33h-1.13Zm.76-3.24v-.98h2.27c.31,0,.59-.06.83-.19s.44-.31.58-.54c.14-.23.21-.51.21-.83s-.07-.6-.21-.83c-.14-.23-.33-.41-.58-.54s-.52-.19-.83-.19h-2.27v-.98h2.33c.51,0,.97.1,1.38.31.41.21.73.5.97.88.24.38.35.83.35,1.35s-.12.96-.35,1.34c-.24.38-.56.68-.97.89-.41.21-.87.31-1.38.31h-2.33Z"/>
      <path class="cls-5" d="m56.58,118.2v-5.7h1.08v5.7h-1.08Zm1.08-3.24l-.41-.19c0-.73.17-1.31.5-1.74.34-.43.82-.65,1.45-.65.29,0,.55.05.78.15.23.1.45.27.65.5l-.71.73c-.12-.13-.25-.22-.4-.28s-.31-.08-.5-.08c-.4,0-.73.13-.98.38s-.38.65-.38,1.18Z"/>
      <path class="cls-5" d="m61.94,111.36c-.2,0-.36-.07-.49-.2s-.19-.3-.19-.5.06-.35.19-.49c.13-.13.29-.2.49-.2s.36.07.49.2c.13.13.19.29.19.49s-.06.37-.19.5-.29.2-.49.2Zm-.55,6.84v-5.7h1.09v5.7h-1.09Z"/>
      <path class="cls-5" d="m63.49,118.2l2.35-3.17.61.79-1.69,2.38h-1.27Zm4.33,0l-1.78-2.5-.2-.18-2.26-3.02h1.32l1.62,2.22.2.17,2.4,3.31h-1.31Zm-1.01-2.7l-.64-.77,1.58-2.23h1.26l-2.21,3Z"/>
      <path class="cls-5" d="m72.61,120.58v-8.09h1.08v1.5l-.2,1.38.2,1.39v3.82h-1.08Zm3-2.27c-.43,0-.82-.09-1.17-.27-.35-.18-.63-.43-.83-.75-.21-.32-.32-.68-.35-1.09v-1.72c.02-.42.14-.78.35-1.1.21-.32.49-.56.84-.74.35-.18.73-.27,1.16-.27.52,0,.99.13,1.41.4.42.26.75.62.99,1.07.24.45.36.95.36,1.51s-.12,1.06-.36,1.51c-.24.45-.57.8-.99,1.06-.42.26-.89.39-1.41.39Zm-.18-1.02c.36,0,.68-.08.95-.25s.49-.4.64-.69c.16-.29.23-.63.23-1.01s-.08-.71-.23-1c-.16-.29-.37-.52-.64-.69s-.59-.25-.95-.25-.66.08-.94.25-.48.4-.64.69c-.15.29-.23.63-.23,1.01s.07.71.22,1c.15.29.36.52.64.69s.59.25.94.25Z"/>
      <path class="cls-5" d="m81.9,118.29c-.47,0-.89-.1-1.27-.31s-.66-.49-.87-.87-.31-.81-.31-1.31v-3.31h1.08v3.26c0,.31.05.58.16.81s.27.4.47.52c.21.12.45.18.73.18.42,0,.76-.13,1-.4.24-.27.36-.64.36-1.11v-3.26h1.08v3.31c0,.5-.1.93-.31,1.31-.21.38-.5.67-.86.87-.37.2-.79.31-1.26.31Z"/>
      <path class="cls-5" d="m85.78,118.2v-8.57h1.08v4.26l-.2,1.38.2,1.39v1.54h-1.08Zm3,.12c-.43,0-.82-.09-1.17-.27-.35-.18-.63-.43-.83-.75-.21-.32-.32-.68-.35-1.09v-1.72c.02-.42.14-.78.35-1.1.21-.32.49-.56.84-.74.35-.18.73-.27,1.16-.27.52,0,.99.13,1.41.4.42.26.75.62.99,1.07.24.45.36.95.36,1.51s-.12,1.06-.36,1.51c-.24.45-.57.8-.99,1.06-.42.26-.89.39-1.41.39Zm-.18-1.02c.36,0,.68-.08.95-.25s.49-.4.64-.69c.16-.29.23-.63.23-1.01s-.08-.71-.23-1c-.16-.29-.37-.52-.64-.69s-.59-.25-.95-.25-.66.08-.94.25-.48.4-.64.69c-.15.29-.23.63-.23,1.01s.07.71.22,1c.15.29.36.52.64.69s.59.25.94.25Z"/>
      <path class="cls-5" d="m92.77,118.2v-8.57h1.08v8.57h-1.08Z"/>
      <path class="cls-5" d="m95.98,111.36c-.2,0-.36-.07-.49-.2s-.19-.3-.19-.5.06-.35.19-.49c.13-.13.29-.2.49-.2s.36.07.49.2c.13.13.19.29.19.49s-.06.37-.19.5-.29.2-.49.2Zm-.55,6.84v-5.7h1.09v5.7h-1.09Z"/>
      <path class="cls-5" d="m100.72,118.32c-.56,0-1.07-.13-1.52-.4-.45-.26-.81-.62-1.07-1.07-.26-.45-.39-.95-.39-1.51s.13-1.06.39-1.51c.26-.45.62-.8,1.07-1.06s.96-.39,1.52-.39c.44,0,.85.08,1.22.25.38.16.7.4.97.71l-.72.72c-.18-.21-.39-.37-.65-.47-.26-.11-.53-.16-.83-.16-.36,0-.68.08-.96.25-.28.16-.5.39-.66.68-.16.29-.24.62-.24,1s.08.71.24,1,.38.52.66.68c.28.17.6.25.96.25.3,0,.58-.05.83-.16s.47-.27.65-.47l.71.72c-.26.3-.59.54-.97.71s-.79.25-1.23.25Z"/>
      <path class="cls-5" d="m109.08,118.32c-.56,0-1.07-.13-1.52-.4-.45-.26-.81-.62-1.07-1.07-.26-.45-.39-.95-.39-1.51s.13-1.06.39-1.51c.26-.45.62-.8,1.07-1.06s.96-.39,1.52-.39c.44,0,.85.08,1.22.25.38.16.7.4.97.71l-.72.72c-.18-.21-.39-.37-.65-.47-.26-.11-.53-.16-.83-.16-.36,0-.68.08-.96.25-.28.16-.5.39-.66.68-.16.29-.24.62-.24,1s.08.71.24,1,.38.52.66.68c.28.17.6.25.96.25.3,0,.58-.05.83-.16s.47-.27.65-.47l.71.72c-.26.3-.59.54-.97.71s-.79.25-1.23.25Z"/>
      <path class="cls-5" d="m114.81,118.32c-.55,0-1.05-.13-1.5-.4-.45-.26-.8-.62-1.07-1.07s-.4-.96-.4-1.52.13-1.05.4-1.49c.26-.44.62-.8,1.07-1.06.45-.26.95-.4,1.5-.4s1.07.13,1.52.39.81.61,1.07,1.06.4.95.4,1.5-.13,1.07-.4,1.52-.62.81-1.07,1.07c-.45.26-.96.4-1.52.4Zm0-1.04c.37,0,.69-.08.97-.25.28-.17.5-.4.66-.69.16-.29.24-.63.24-1s-.08-.7-.25-.98c-.16-.29-.38-.51-.66-.68s-.6-.25-.97-.25-.67.08-.95.25c-.28.16-.5.39-.66.68-.16.29-.24.62-.24.98s.08.71.24,1,.38.52.66.69c.28.17.6.25.95.25Z"/>
      <path class="cls-5" d="m119,118.2v-5.7h1.08v5.7h-1.08Zm4.02,0v-3.32c0-.43-.13-.79-.4-1.07-.27-.28-.62-.42-1.05-.42-.29,0-.54.06-.77.19-.22.13-.4.3-.53.53s-.19.48-.19.77l-.44-.25c0-.43.1-.82.29-1.15.19-.34.46-.6.8-.8.34-.2.73-.29,1.16-.29s.81.11,1.15.32.59.5.79.85c.19.35.29.72.29,1.11v3.54h-1.09Z"/>
      <path class="cls-5" d="m127.39,118.32c-.32,0-.62-.04-.91-.13s-.55-.2-.79-.36c-.24-.16-.44-.34-.62-.56l.7-.7c.21.26.45.45.72.57s.58.19.91.19.6-.06.78-.17.28-.28.28-.49-.07-.37-.22-.49c-.15-.12-.34-.21-.57-.29s-.48-.15-.74-.22c-.26-.07-.51-.17-.74-.29-.23-.12-.42-.29-.57-.5s-.22-.49-.22-.83.08-.64.25-.89.4-.45.7-.58c.3-.14.67-.2,1.09-.2.45,0,.85.08,1.19.23.35.16.63.39.86.7l-.7.7c-.17-.21-.37-.37-.6-.48-.23-.11-.5-.17-.79-.17-.31,0-.55.06-.71.17s-.25.26-.25.44.07.34.22.44c.14.1.33.19.57.26.24.07.48.15.74.22.26.08.5.18.73.31.23.13.42.3.57.52.15.22.22.5.22.85,0,.54-.19.96-.57,1.27-.38.31-.89.47-1.53.47Z"/>
      <path class="cls-5" d="m133.34,118.32c-.58,0-1.09-.13-1.54-.39-.45-.26-.81-.61-1.07-1.06s-.4-.96-.4-1.52.13-1.06.39-1.51c.26-.45.61-.8,1.06-1.06.44-.26.94-.39,1.49-.39.52,0,.98.12,1.39.36.41.24.73.57.95,1s.34.91.34,1.45c0,.08,0,.17-.01.26,0,.09-.02.19-.05.31h-4.81v-.9h4.24l-.4.35c0-.38-.07-.71-.2-.98-.14-.27-.33-.48-.58-.62-.25-.15-.55-.22-.9-.22s-.69.08-.97.24c-.28.16-.5.38-.65.67s-.23.63-.23,1.02.08.75.24,1.05c.16.3.39.53.68.7.3.16.64.25,1.02.25.32,0,.61-.06.88-.17.27-.11.5-.28.69-.5l.7.71c-.28.32-.62.56-1.01.73s-.81.25-1.26.25Z"/>
      <path class="cls-5" d="m137.68,111.36c-.2,0-.36-.07-.49-.2s-.19-.3-.19-.5.06-.35.19-.49c.13-.13.29-.2.49-.2s.36.07.49.2c.13.13.19.29.19.49s-.06.37-.19.5-.29.2-.49.2Zm-.55,6.84v-5.7h1.09v5.7h-1.09Z"/>
      <path class="cls-5" d="m139.82,118.2v-8.57h1.08v8.57h-1.08Z"/>
      <path class="cls-5" d="m142.48,118.2v-8.57h1.08v8.57h-1.08Z"/>
      <path class="cls-5" d="m147.79,118.32c-.58,0-1.09-.13-1.54-.39-.45-.26-.81-.61-1.07-1.06s-.4-.96-.4-1.52.13-1.06.39-1.51c.26-.45.61-.8,1.06-1.06.44-.26.94-.39,1.49-.39.52,0,.98.12,1.39.36s.72.57.95,1,.34.91.34,1.45c0,.08,0,.17-.01.26s-.02.19-.05.31h-4.81v-.9h4.24l-.4.35c0-.38-.07-.71-.21-.98-.13-.27-.33-.48-.57-.62-.25-.15-.55-.22-.9-.22-.37,0-.69.08-.97.24-.28.16-.5.38-.65.67s-.23.63-.23,1.02.08.75.24,1.05c.16.3.39.53.68.7.29.16.63.25,1.02.25.32,0,.61-.06.88-.17.27-.11.5-.28.69-.5l.7.71c-.28.32-.62.56-1.01.73s-.81.25-1.26.25Zm-.8-6.67l-.49-.49,1.56-1.93.85.85-1.92,1.57Z"/>
    </g>
    <rect x="41.03" y="46.73" width="161.45" height="5.48" rx="2.74" ry="2.74"/>
    <g>
      <path class="cls-5" d="m208.52,111.33v-1.61h3.4v1.61h-3.4Zm1.63,6.86v-8.47h1.88v8.47h-1.88Z"/>
      <path class="cls-5" d="m216.84,118.33c-.69,0-1.31-.18-1.85-.55s-.98-.88-1.3-1.54c-.32-.66-.48-1.42-.48-2.29s.16-1.64.47-2.29c.32-.66.75-1.16,1.29-1.52.54-.36,1.16-.54,1.85-.54s1.32.18,1.86.54c.54.36.97.87,1.29,1.52.32.66.47,1.42.47,2.3s-.16,1.64-.47,2.29c-.32.66-.74,1.17-1.28,1.53s-1.15.55-1.84.55Zm-.01-1.67c.35,0,.65-.1.91-.31s.45-.51.59-.91c.14-.4.22-.9.22-1.49s-.07-1.08-.22-1.48c-.14-.4-.34-.7-.6-.91-.26-.2-.56-.31-.91-.31s-.65.1-.91.31-.46.51-.59.91c-.14.4-.2.89-.2,1.48s.07,1.09.2,1.49c.14.4.33.7.59.91s.57.31.92.31Z"/>
      <path class="cls-5" d="m224.83,118.33c-.69,0-1.31-.18-1.85-.55s-.98-.88-1.3-1.54c-.32-.66-.48-1.42-.48-2.29s.16-1.64.47-2.29c.32-.66.75-1.16,1.29-1.52.54-.36,1.16-.54,1.85-.54s1.32.18,1.86.54c.54.36.97.87,1.29,1.52.32.66.47,1.42.47,2.3s-.16,1.64-.47,2.29c-.32.66-.74,1.17-1.28,1.53s-1.15.55-1.84.55Zm-.01-1.67c.35,0,.65-.1.91-.31s.45-.51.59-.91c.14-.4.22-.9.22-1.49s-.07-1.08-.22-1.48c-.14-.4-.34-.7-.6-.91-.26-.2-.56-.31-.91-.31s-.65.1-.91.31-.46.51-.59.91c-.14.4-.2.89-.2,1.48s.07,1.09.2,1.49c.14.4.33.7.59.91s.57.31.92.31Z"/>
      <path class="cls-5" d="m229.22,119.65l.88-1.64.55-.16c-.06.11-.13.21-.21.29-.08.08-.18.12-.28.12-.23,0-.44-.1-.64-.29s-.29-.44-.29-.73.11-.57.32-.79.48-.34.8-.34c.3,0,.56.11.78.33.22.22.34.49.34.8,0,.13-.03.28-.08.45-.05.17-.15.39-.29.67l-.97,1.78-.9-.48Z"/>
      <path class="cls-5" d="m235.78,118.33c-.69,0-1.31-.18-1.85-.55s-.98-.88-1.3-1.54-.48-1.42-.48-2.29.16-1.64.47-2.29.75-1.16,1.29-1.52c.54-.36,1.16-.54,1.85-.54s1.32.18,1.86.54c.54.36.97.87,1.29,1.52.32.66.47,1.42.47,2.3s-.16,1.64-.47,2.29c-.32.66-.74,1.17-1.28,1.53s-1.15.55-1.84.55Zm-.01-1.67c.35,0,.65-.1.91-.31s.45-.51.59-.91c.14-.4.22-.9.22-1.49s-.07-1.08-.22-1.48c-.14-.4-.34-.7-.6-.91s-.56-.31-.91-.31-.65.1-.91.31c-.26.2-.46.51-.59.91-.14.4-.2.89-.2,1.48s.07,1.09.2,1.49c.14.4.33.7.59.91.26.21.57.31.92.31Z"/>
      <path class="cls-5" d="m243.77,118.33c-.69,0-1.31-.18-1.85-.55s-.98-.88-1.3-1.54c-.32-.66-.48-1.42-.48-2.29s.16-1.64.47-2.29c.32-.66.75-1.16,1.29-1.52.54-.36,1.16-.54,1.85-.54s1.32.18,1.86.54c.54.36.97.87,1.29,1.52.32.66.47,1.42.47,2.3s-.16,1.64-.47,2.29c-.32.66-.74,1.17-1.28,1.53s-1.15.55-1.84.55Zm-.01-1.67c.35,0,.65-.1.91-.31s.45-.51.59-.91c.14-.4.22-.9.22-1.49s-.07-1.08-.22-1.48c-.14-.4-.34-.7-.6-.91-.26-.2-.56-.31-.91-.31s-.65.1-.91.31-.46.51-.59.91c-.14.4-.2.89-.2,1.48s.07,1.09.2,1.49c.14.4.33.7.59.91s.57.31.92.31Z"/>
      <path class="cls-5" d="m249.99,113.61v-1.16h5.77l-.3,1.16h-5.47Zm0,1.91v-1.14h5.34l-.3,1.14h-5.04Zm5.08,2.81c-.62,0-1.18-.11-1.7-.33-.52-.22-.97-.53-1.36-.93-.39-.4-.69-.87-.91-1.4-.21-.53-.32-1.11-.32-1.72s.11-1.19.32-1.72.51-.99.9-1.39c.39-.39.84-.7,1.36-.92.52-.22,1.08-.33,1.7-.33.65,0,1.23.11,1.73.32.51.22.96.51,1.35.89l-1.27,1.28c-.22-.25-.48-.44-.78-.58-.3-.14-.66-.21-1.06-.21-.46,0-.87.11-1.22.33-.35.22-.62.53-.81.93-.19.4-.29.86-.29,1.39s.1,1.01.29,1.41c.2.4.47.72.82.94.35.22.76.33,1.24.33.4,0,.75-.07,1.06-.2.3-.14.57-.33.79-.59l1.28,1.28c-.4.38-.86.68-1.37.89-.51.21-1.1.32-1.76.32Z"/>
    </g>
    <g>
      <path class="cls-2" d="m46.65,84.93c-1.03,0-1.92-.18-2.67-.54-.75-.36-1.34-.85-1.75-1.48-.41-.63-.62-1.34-.62-2.14,0-.67.13-1.27.38-1.8.25-.53.62-.98,1.09-1.35s1.02-.61,1.65-.73l-.06.64c-.53-.11-.99-.33-1.36-.66-.37-.33-.66-.74-.85-1.21-.19-.47-.29-.96-.29-1.45,0-.76.19-1.43.56-2,.37-.57.9-1.03,1.58-1.36.68-.33,1.46-.5,2.34-.5s1.66.17,2.33.5c.67.33,1.2.79,1.58,1.36.38.57.57,1.24.57,2,0,.49-.1.98-.29,1.45-.19.47-.47.88-.84,1.21-.37.33-.82.55-1.37.66l-.08-.64c.64.12,1.2.36,1.67.73s.84.82,1.09,1.35.38,1.13.38,1.8c0,.8-.2,1.51-.61,2.14s-.99,1.12-1.75,1.48c-.76.36-1.65.54-2.68.54Zm0-2.7c.4,0,.75-.08,1.05-.24.3-.16.54-.39.72-.68.18-.29.27-.62.27-.98,0-.39-.09-.72-.27-.99-.18-.27-.42-.49-.72-.66-.3-.17-.65-.25-1.05-.25s-.73.08-1.04.25c-.31.17-.55.39-.73.66-.18.27-.27.6-.27.99,0,.36.09.69.27.98.18.29.42.52.72.68.3.16.65.24,1.05.24Zm0-6.12c.47,0,.85-.15,1.14-.44.29-.29.44-.67.44-1.12s-.15-.85-.44-1.15c-.29-.3-.67-.45-1.14-.45s-.83.15-1.14.44c-.31.29-.46.67-.46,1.14s.15.83.46,1.13.69.45,1.14.45Z"/>
      <path class="cls-2" d="m58.95,84.93c-1.15,0-2.18-.31-3.09-.92s-1.64-1.47-2.17-2.57c-.53-1.1-.8-2.37-.8-3.81s.26-2.73.79-3.82c.53-1.09,1.24-1.94,2.15-2.54.91-.6,1.93-.9,3.08-.9s2.19.3,3.1.9c.91.6,1.62,1.45,2.15,2.54.53,1.09.79,2.37.79,3.84s-.26,2.73-.79,3.82c-.53,1.09-1.24,1.94-2.14,2.55-.9.61-1.92.91-3.07.91Zm-.02-2.78c.59,0,1.09-.17,1.51-.52s.75-.85.99-1.52c.24-.67.36-1.49.36-2.48s-.12-1.79-.36-2.46c-.24-.67-.57-1.17-1-1.51-.43-.34-.93-.51-1.52-.51s-1.08.17-1.51.51-.76.84-.99,1.51c-.23.67-.34,1.49-.34,2.46s.11,1.81.34,2.48c.23.67.56,1.17.99,1.52s.94.52,1.53.52Z"/>
      <path class="cls-2" d="m66.27,87.13l1.46-2.74.92-.26c-.09.19-.21.35-.35.48-.14.13-.3.2-.47.2-.39,0-.74-.16-1.06-.48s-.48-.73-.48-1.22.18-.95.53-1.32c.35-.37.8-.56,1.33-.56.49,0,.93.18,1.3.55.37.37.56.81.56,1.33,0,.21-.04.46-.13.75-.09.29-.25.66-.49,1.11l-1.62,2.96-1.5-.8Z"/>
      <path class="cls-2" d="m77.19,84.93c-1.15,0-2.18-.31-3.09-.92s-1.64-1.47-2.17-2.57c-.53-1.1-.8-2.37-.8-3.81s.26-2.73.79-3.82c.53-1.09,1.24-1.94,2.15-2.54.91-.6,1.93-.9,3.08-.9s2.19.3,3.1.9c.91.6,1.62,1.45,2.15,2.54.53,1.09.79,2.37.79,3.84s-.26,2.73-.79,3.82c-.53,1.09-1.24,1.94-2.14,2.55-.9.61-1.92.91-3.07.91Zm-.02-2.78c.59,0,1.09-.17,1.51-.52s.75-.85.99-1.52c.24-.67.36-1.49.36-2.48s-.12-1.79-.36-2.46c-.24-.67-.57-1.17-1-1.51-.43-.34-.93-.51-1.52-.51s-1.08.17-1.51.51-.76.84-.99,1.51c-.23.67-.34,1.49-.34,2.46s.11,1.81.34,2.48c.23.67.56,1.17.99,1.52s.94.52,1.53.52Z"/>
      <path class="cls-2" d="m90.51,84.93c-1.15,0-2.18-.31-3.09-.92s-1.64-1.47-2.17-2.57c-.53-1.1-.8-2.37-.8-3.81s.26-2.73.79-3.82c.53-1.09,1.24-1.94,2.15-2.54.91-.6,1.93-.9,3.08-.9s2.19.3,3.1.9c.91.6,1.62,1.45,2.15,2.54.53,1.09.79,2.37.79,3.84s-.26,2.73-.79,3.82c-.53,1.09-1.24,1.94-2.14,2.55-.9.61-1.92.91-3.07.91Zm-.02-2.78c.59,0,1.09-.17,1.51-.52s.75-.85.99-1.52c.24-.67.36-1.49.36-2.48s-.12-1.79-.36-2.46c-.24-.67-.57-1.17-1-1.51-.43-.34-.93-.51-1.52-.51s-1.08.17-1.51.51-.76.84-.99,1.51c-.23.67-.34,1.49-.34,2.46s.11,1.81.34,2.48c.23.67.56,1.17.99,1.52s.94.52,1.53.52Z"/>
      <path class="cls-2" d="m100.89,77.07v-1.94h9.62l-.5,1.94h-9.12Zm0,3.18v-1.9h8.9l-.5,1.9h-8.4Zm8.46,4.68c-1.03,0-1.97-.18-2.83-.55-.86-.37-1.62-.88-2.27-1.55s-1.16-1.44-1.51-2.33c-.35-.89-.53-1.84-.53-2.87s.18-1.98.53-2.87c.35-.89.85-1.66,1.5-2.31.65-.65,1.4-1.16,2.26-1.53.86-.37,1.8-.55,2.83-.55,1.08,0,2.04.18,2.89.54.85.36,1.6.85,2.25,1.48l-2.12,2.14c-.36-.41-.79-.74-1.3-.97-.51-.23-1.09-.35-1.76-.35-.77,0-1.45.18-2.03.55-.58.37-1.03.88-1.35,1.55-.32.67-.48,1.44-.48,2.32s.16,1.68.49,2.35c.33.67.78,1.19,1.37,1.56.59.37,1.27.55,2.06.55.67,0,1.25-.11,1.76-.34.51-.23.95-.55,1.32-.98l2.14,2.14c-.67.64-1.43,1.14-2.28,1.49-.85.35-1.83.53-2.94.53Z"/>
    </g>
    <rect class="cls-3" x="41.03" y="-83.71" width="217.17" height="117.65" rx="7.74" ry="7.74"/>
  </g>
  <g>
    <g>
      <rect class="cls-1" x="335.26" y="-65.74" width="245.95" height="245.95" rx="9.59" ry="9.59"/>
      <path class="cls-4" d="m571.62-65.24c5.01,0,9.09,4.08,9.09,9.09v226.76c0,5.01-4.08,9.09-9.09,9.09h-226.76c-5.01,0-9.09-4.08-9.09-9.09V-56.15c0-5.01,4.08-9.09,9.09-9.09h226.76m0-1h-226.76c-5.57,0-10.09,4.52-10.09,10.09v226.76c0,5.57,4.52,10.09,10.09,10.09h226.76c5.57,0,10.09-4.52,10.09-10.09V-56.15c0-5.57-4.52-10.09-10.09-10.09h0Z"/>
    </g>
    <rect class="cls-2" x="349.46" y="127.47" width="217.56" height="34.73" rx="8.17" ry="8.17"/>
    <rect class="cls-7" x="411.48" y="142.29" width="93.51" height="5.48" rx="2.74" ry="2.74"/>
    <rect x="349.46" y="78.68" width="161.45" height="5.48" rx="2.74" ry="2.74"/>
    <g>
      <path class="cls-2" d="m355.66,111.58c-1.03,0-1.92-.18-2.67-.54-.75-.36-1.34-.85-1.75-1.48-.41-.63-.62-1.34-.62-2.14,0-.67.13-1.27.38-1.8.25-.53.62-.98,1.09-1.35.47-.37,1.02-.61,1.65-.73l-.06.64c-.53-.11-.99-.33-1.36-.66-.37-.33-.66-.74-.85-1.21s-.29-.96-.29-1.45c0-.76.19-1.43.56-2,.37-.57.9-1.03,1.58-1.36.68-.33,1.46-.5,2.34-.5s1.66.17,2.33.5c.67.33,1.2.79,1.58,1.36.38.57.57,1.24.57,2,0,.49-.1.98-.29,1.45s-.47.88-.84,1.21c-.37.33-.82.55-1.37.66l-.08-.64c.64.12,1.2.36,1.67.73.47.37.84.82,1.09,1.35.25.53.38,1.13.38,1.8,0,.8-.2,1.51-.61,2.14-.41.63-.99,1.12-1.75,1.48-.76.36-1.65.54-2.68.54Zm0-2.7c.4,0,.75-.08,1.05-.24s.54-.39.72-.68c.18-.29.27-.62.27-.98,0-.39-.09-.72-.27-.99s-.42-.49-.72-.66c-.3-.17-.65-.25-1.05-.25s-.73.08-1.04.25c-.31.17-.55.39-.73.66s-.27.6-.27.99c0,.36.09.69.27.98.18.29.42.52.72.68.3.16.65.24,1.05.24Zm0-6.12c.47,0,.85-.15,1.14-.44.29-.29.44-.67.44-1.12s-.15-.85-.44-1.15c-.29-.3-.67-.45-1.14-.45s-.83.15-1.14.44c-.31.29-.46.67-.46,1.14s.15.83.46,1.13.69.45,1.14.45Z"/>
      <path class="cls-2" d="m367.95,111.58c-1.15,0-2.18-.31-3.09-.92s-1.64-1.47-2.17-2.57c-.53-1.1-.8-2.37-.8-3.81s.26-2.73.79-3.82c.53-1.09,1.24-1.94,2.15-2.54.91-.6,1.93-.9,3.08-.9s2.19.3,3.1.9c.91.6,1.62,1.45,2.15,2.54.53,1.09.79,2.37.79,3.84s-.26,2.73-.79,3.82c-.53,1.09-1.24,1.94-2.14,2.55-.9.61-1.92.91-3.07.91Zm-.02-2.78c.59,0,1.09-.17,1.51-.52s.75-.85.99-1.52c.24-.67.36-1.49.36-2.48s-.12-1.79-.36-2.46-.57-1.17-1-1.51-.93-.51-1.52-.51-1.08.17-1.51.51c-.43.34-.76.84-.99,1.51-.23.67-.34,1.49-.34,2.46s.11,1.81.34,2.48c.23.67.56,1.17.99,1.52.43.35.94.52,1.53.52Z"/>
      <path class="cls-2" d="m375.27,113.78l1.46-2.74.92-.26c-.09.19-.21.35-.35.48-.14.13-.3.2-.47.2-.39,0-.74-.16-1.06-.48-.32-.32-.48-.73-.48-1.22s.18-.95.53-1.32.8-.56,1.33-.56c.49,0,.93.18,1.3.55.37.37.56.81.56,1.33,0,.21-.04.46-.13.75-.09.29-.25.66-.49,1.11l-1.62,2.96-1.5-.8Z"/>
      <path class="cls-2" d="m386.19,111.58c-1.15,0-2.18-.31-3.09-.92s-1.64-1.47-2.17-2.57c-.53-1.1-.8-2.37-.8-3.81s.26-2.73.79-3.82c.53-1.09,1.24-1.94,2.15-2.54.91-.6,1.93-.9,3.08-.9s2.19.3,3.1.9c.91.6,1.62,1.45,2.15,2.54.53,1.09.79,2.37.79,3.84s-.26,2.73-.79,3.82c-.53,1.09-1.24,1.94-2.14,2.55-.9.61-1.92.91-3.07.91Zm-.02-2.78c.59,0,1.09-.17,1.51-.52s.75-.85.99-1.52c.24-.67.36-1.49.36-2.48s-.12-1.79-.36-2.46c-.24-.67-.57-1.17-1-1.51-.43-.34-.93-.51-1.52-.51s-1.08.17-1.51.51c-.43.34-.76.84-.99,1.51s-.34,1.49-.34,2.46.11,1.81.34,2.48c.23.67.56,1.17.99,1.52.43.35.94.52,1.53.52Z"/>
      <path class="cls-2" d="m399.51,111.58c-1.15,0-2.18-.31-3.09-.92s-1.64-1.47-2.17-2.57c-.53-1.1-.8-2.37-.8-3.81s.26-2.73.79-3.82c.53-1.09,1.24-1.94,2.15-2.54.91-.6,1.93-.9,3.08-.9s2.19.3,3.1.9c.91.6,1.62,1.45,2.15,2.54.53,1.09.79,2.37.79,3.84s-.26,2.73-.79,3.82c-.53,1.09-1.24,1.94-2.14,2.55-.9.61-1.92.91-3.07.91Zm-.02-2.78c.59,0,1.09-.17,1.51-.52s.75-.85.99-1.52c.24-.67.36-1.49.36-2.48s-.12-1.79-.36-2.46-.57-1.17-1-1.51-.93-.51-1.52-.51-1.08.17-1.51.51c-.43.34-.76.84-.99,1.51-.23.67-.34,1.49-.34,2.46s.11,1.81.34,2.48c.23.67.56,1.17.99,1.52.43.35.94.52,1.53.52Z"/>
      <path class="cls-2" d="m409.89,103.72v-1.94h9.62l-.5,1.94h-9.12Zm0,3.18v-1.9h8.9l-.5,1.9h-8.4Zm8.46,4.68c-1.03,0-1.97-.18-2.83-.55-.86-.37-1.62-.88-2.27-1.55s-1.16-1.44-1.51-2.33c-.35-.89-.53-1.84-.53-2.87s.18-1.98.53-2.87c.35-.89.85-1.66,1.5-2.31.65-.65,1.4-1.16,2.26-1.53.86-.37,1.8-.55,2.83-.55,1.08,0,2.04.18,2.89.54.85.36,1.6.85,2.25,1.48l-2.12,2.14c-.36-.41-.79-.74-1.3-.97-.51-.23-1.09-.35-1.76-.35-.77,0-1.45.18-2.03.55-.58.37-1.03.88-1.35,1.55-.32.67-.48,1.44-.48,2.32s.16,1.68.49,2.35c.33.67.78,1.19,1.37,1.56.59.37,1.27.55,2.06.55.67,0,1.25-.11,1.76-.34.51-.23.95-.55,1.32-.98l2.14,2.14c-.67.64-1.43,1.14-2.28,1.49-.85.35-1.83.53-2.94.53Z"/>
    </g>
    <rect class="cls-3" x="349.46" y="-51.76" width="217.17" height="117.65" rx="7.74" ry="7.74"/>
  </g>
  <g>
    <path d="m42.81,212.87v-12.71h2.84v12.71h-2.84Zm2.18-4.63v-2.21h2.74c.35,0,.66-.07.94-.21.28-.14.51-.34.68-.62.17-.28.25-.61.25-.99s-.08-.73-.25-1.01c-.17-.28-.39-.48-.68-.62-.28-.14-.6-.21-.94-.21h-2.74v-2.21h3.15c.8,0,1.53.16,2.19.49.65.32,1.17.79,1.55,1.39.38.61.57,1.33.57,2.17s-.19,1.54-.57,2.15c-.38.61-.89,1.07-1.55,1.39-.65.32-1.38.49-2.19.49h-3.15Z"/>
    <path d="m53.87,212.87v-8.75h2.77v8.75h-2.77Zm2.77-4.79l-1.15-.9c.23-1.03.61-1.83,1.16-2.39.55-.56,1.29-.85,2.24-.85.42,0,.79.06,1.11.19s.6.32.84.57l-1.64,2.09c-.11-.12-.25-.22-.43-.29-.18-.07-.38-.11-.61-.11-.47,0-.84.14-1.11.42-.27.28-.4.71-.4,1.27Z"/>
    <path d="m62.94,202.93c-.42,0-.77-.15-1.06-.45s-.43-.66-.43-1.08.14-.79.43-1.08.64-.43,1.06-.43c.44,0,.8.14,1.07.43s.4.65.4,1.08-.13.78-.4,1.08-.63.45-1.07.45Zm-1.39,9.94v-8.75h2.77v8.75h-2.77Z"/>
    <path d="m65.35,212.87l3.58-5.09,1.58,1.78-2.14,3.31h-3.02Zm6.3,0l-2.09-3.38-.59-.4-3.44-4.97h3.22l1.96,3.17.58.38,3.56,5.2h-3.2Zm-.36-3.8l-1.58-1.76,1.96-3.19h3.02l-3.4,4.95Z"/>
    <path d="m79.32,216.56v-12.44h2.77v2.23l-.45,2.14.41,2.12v5.94h-2.74Zm5.08-3.51c-.6,0-1.15-.11-1.64-.34s-.89-.54-1.2-.95c-.31-.4-.48-.86-.53-1.38v-3.69c.05-.53.23-1,.54-1.41.31-.41.71-.74,1.21-.98.49-.24,1.03-.36,1.62-.36.82,0,1.54.2,2.19.59.64.4,1.15.94,1.52,1.62.37.68.56,1.46.56,2.34s-.18,1.65-.55,2.33-.87,1.22-1.52,1.62c-.65.4-1.38.6-2.2.6Zm-.52-2.5c.38,0,.72-.09,1.02-.26.29-.17.53-.42.7-.73.17-.31.26-.67.26-1.06s-.09-.75-.26-1.06c-.17-.31-.4-.56-.69-.73s-.62-.26-1.01-.26-.72.09-1.02.26-.52.42-.69.73c-.17.31-.25.67-.25,1.06s.08.75.25,1.06c.17.31.4.55.69.73s.63.26,1,.26Z"/>
    <path d="m90.03,212.87v-8.75h2.77v8.75h-2.77Zm2.77-4.79l-1.15-.9c.23-1.03.61-1.83,1.16-2.39.55-.56,1.29-.85,2.24-.85.42,0,.79.06,1.11.19.32.13.6.32.84.57l-1.64,2.09c-.11-.12-.25-.22-.43-.29-.18-.07-.38-.11-.61-.11-.47,0-.84.14-1.11.42-.27.28-.41.71-.41,1.27Z"/>
    <path d="m101.69,213.07c-.91,0-1.73-.2-2.45-.61-.72-.41-1.29-.96-1.71-1.66-.42-.7-.63-1.48-.63-2.34s.21-1.62.62-2.3c.41-.68.98-1.23,1.7-1.63.72-.4,1.54-.6,2.47-.6s1.71.2,2.44.59c.73.4,1.3.94,1.72,1.63.42.69.63,1.46.63,2.31s-.21,1.66-.63,2.35c-.42.69-.99,1.24-1.71,1.65s-1.54.61-2.45.61Zm0-2.52c.38,0,.73-.08,1.03-.25s.53-.41.69-.73c.16-.32.24-.68.24-1.09s-.08-.75-.25-1.05c-.17-.31-.4-.55-.69-.72s-.63-.26-1.02-.26-.73.09-1.03.26c-.3.17-.53.42-.7.73-.17.31-.25.66-.25,1.04,0,.41.08.77.25,1.09.17.32.4.56.7.73.3.17.64.25,1.03.25Z"/>
    <path d="m106.84,206.48v-2.36h7.22v2.36h-7.22Zm1.94,6.39v-9.49c0-.72.16-1.36.47-1.93.31-.57.76-1.02,1.35-1.36s1.27-.5,2.05-.5c.6,0,1.12.1,1.58.31s.84.47,1.18.81l-1.75,1.76c-.11-.12-.23-.21-.38-.28-.14-.07-.32-.1-.52-.1-.38,0-.68.11-.89.32s-.31.51-.31.88v9.58h-2.77Z"/>
    <path d="m119.44,213.07c-.95,0-1.79-.2-2.52-.58-.73-.39-1.31-.93-1.73-1.63-.42-.7-.63-1.49-.63-2.38s.2-1.64.61-2.33c.41-.69.97-1.23,1.67-1.63.71-.4,1.51-.59,2.39-.59s1.64.19,2.3.56,1.18.89,1.57,1.55c.38.66.58,1.42.58,2.27,0,.17,0,.34-.03.51-.02.17-.06.37-.12.58l-7.52.04v-1.91l6.34-.04-1.19.81c-.01-.49-.09-.9-.23-1.23-.14-.33-.36-.58-.64-.77-.28-.18-.62-.27-1.02-.27-.43,0-.81.1-1.12.31-.32.2-.56.49-.74.85-.17.36-.26.79-.26,1.3s.09.94.28,1.31c.19.37.45.66.79.86.34.2.75.3,1.22.3.42,0,.8-.08,1.15-.23.35-.15.65-.38.92-.67l1.53,1.51c-.43.52-.95.9-1.57,1.14-.61.25-1.29.37-2.03.37Z"/>
    <path d="m128.19,213.1c-.52,0-1.03-.07-1.53-.21s-.97-.33-1.39-.58-.79-.53-1.1-.86l1.58-1.58c.3.31.65.56,1.04.73s.83.26,1.31.26c.3,0,.54-.05.71-.14.17-.1.26-.23.26-.41,0-.22-.1-.38-.31-.48-.2-.1-.47-.2-.8-.29s-.67-.19-1.03-.31c-.36-.11-.7-.27-1.03-.46-.32-.19-.59-.46-.79-.79s-.31-.77-.31-1.31.14-1.05.43-1.47.7-.74,1.22-.98,1.16-.36,1.89-.36,1.42.13,2.05.39c.64.26,1.15.64,1.53,1.14l-1.57,1.6c-.28-.32-.58-.55-.93-.69-.34-.14-.67-.21-1-.21s-.55.05-.7.14c-.16.1-.23.22-.23.38,0,.18.11.32.32.43.21.11.47.21.79.29.32.08.66.18,1.02.3.36.11.7.28,1.03.49s.59.49.79.83.31.79.31,1.34c0,.85-.32,1.53-.96,2.04-.64.51-1.51.77-2.6.77Z"/>
    <path d="m136.43,213.1c-.52,0-1.03-.07-1.53-.21s-.97-.33-1.39-.58-.79-.53-1.1-.86l1.58-1.58c.3.31.65.56,1.04.73s.83.26,1.31.26c.3,0,.54-.05.71-.14.17-.1.26-.23.26-.41,0-.22-.1-.38-.31-.48-.2-.1-.47-.2-.8-.29s-.67-.19-1.03-.31c-.36-.11-.7-.27-1.03-.46-.32-.19-.59-.46-.79-.79s-.31-.77-.31-1.31.14-1.05.43-1.47.7-.74,1.22-.98,1.16-.36,1.89-.36,1.42.13,2.05.39c.64.26,1.15.64,1.53,1.14l-1.57,1.6c-.28-.32-.58-.55-.93-.69-.34-.14-.67-.21-1-.21s-.55.05-.7.14c-.16.1-.23.22-.23.38,0,.18.11.32.32.43.21.11.47.21.79.29.32.08.66.18,1.02.3.36.11.7.28,1.03.49s.59.49.79.83.31.79.31,1.34c0,.85-.32,1.53-.96,2.04-.64.51-1.51.77-2.6.77Z"/>
    <path d="m142.88,202.93c-.42,0-.77-.15-1.06-.45s-.43-.66-.43-1.08.14-.79.43-1.08.64-.43,1.06-.43c.44,0,.8.14,1.07.43.27.29.41.65.41,1.08s-.13.78-.41,1.08c-.27.3-.63.45-1.07.45Zm-1.39,9.94v-8.75h2.77v8.75h-2.77Z"/>
    <path d="m150.4,213.07c-.91,0-1.73-.2-2.45-.61-.72-.41-1.29-.96-1.71-1.66-.42-.7-.63-1.48-.63-2.34s.21-1.62.62-2.3c.41-.68.98-1.23,1.7-1.63.72-.4,1.54-.6,2.47-.6s1.71.2,2.44.59c.72.4,1.3.94,1.72,1.63.42.69.63,1.46.63,2.31s-.21,1.66-.63,2.35c-.42.69-.99,1.24-1.71,1.65-.72.41-1.54.61-2.45.61Zm0-2.52c.38,0,.73-.08,1.03-.25.3-.17.53-.41.69-.73.16-.32.24-.68.24-1.09s-.09-.75-.25-1.05c-.17-.31-.4-.55-.69-.72-.29-.17-.63-.26-1.02-.26s-.73.09-1.03.26c-.3.17-.53.42-.7.73-.17.31-.25.66-.25,1.04,0,.41.08.77.25,1.09.17.32.4.56.7.73.3.17.64.25,1.03.25Z"/>
    <path d="m156.54,212.87v-8.75h2.77v8.75h-2.77Zm5.79,0v-4.99c0-.44-.14-.81-.43-1.09-.29-.28-.65-.42-1.08-.42-.29,0-.55.06-.77.19-.23.13-.41.3-.54.53-.13.23-.2.49-.2.79l-1.06-.52c0-.68.15-1.28.46-1.8.31-.52.73-.92,1.26-1.2.54-.28,1.14-.42,1.81-.42.63,0,1.21.15,1.71.45s.9.71,1.19,1.21c.29.51.43,1.06.43,1.67v5.6h-2.77Z"/>
    <path d="m171.15,213.07c-.95,0-1.79-.2-2.52-.58-.73-.39-1.31-.93-1.73-1.63-.42-.7-.63-1.49-.63-2.38s.2-1.64.61-2.33c.41-.69.96-1.23,1.67-1.63.71-.4,1.51-.59,2.39-.59s1.64.19,2.3.56,1.18.89,1.57,1.55.58,1.42.58,2.27c0,.17,0,.34-.03.51s-.06.37-.12.58l-7.52.04v-1.91l6.34-.04-1.19.81c-.01-.49-.09-.9-.23-1.23s-.36-.58-.64-.77c-.28-.18-.62-.27-1.02-.27-.43,0-.81.1-1.12.31s-.56.49-.74.85c-.17.36-.26.79-.26,1.3s.09.94.28,1.31c.19.37.45.66.79.86.34.2.75.3,1.21.3.42,0,.8-.08,1.15-.23.35-.15.65-.38.92-.67l1.53,1.51c-.43.52-.95.9-1.57,1.14-.61.25-1.29.37-2.03.37Z"/>
    <path d="m176.7,212.87v-13.07h2.77v13.07h-2.77Z"/>
    <path d="m184.76,207.99v-2.29h8.39v2.29h-8.39Zm3.02-5.54h2.34v8.78h-2.34v-8.78Z"/>
    <path d="m198.4,216.56v-12.44h2.77v2.23l-.45,2.14.41,2.12v5.94h-2.74Zm5.08-3.51c-.6,0-1.15-.11-1.64-.34s-.89-.54-1.2-.95c-.31-.4-.48-.86-.53-1.38v-3.69c.05-.53.23-1,.54-1.41.31-.41.71-.74,1.21-.98.49-.24,1.03-.36,1.62-.36.81,0,1.54.2,2.19.59.64.4,1.15.94,1.52,1.62.37.68.56,1.46.56,2.34s-.18,1.65-.55,2.33c-.37.68-.87,1.22-1.52,1.62s-1.38.6-2.2.6Zm-.52-2.5c.38,0,.72-.09,1.02-.26s.53-.42.7-.73c.17-.31.26-.67.26-1.06s-.09-.75-.26-1.06c-.17-.31-.4-.56-.69-.73-.29-.17-.62-.26-1.01-.26s-.72.09-1.02.26c-.29.17-.53.42-.69.73-.17.31-.25.67-.25,1.06s.08.75.25,1.06c.17.31.4.55.69.73.29.17.63.26,1,.26Z"/>
    <path d="m213.02,213.07c-.79,0-1.5-.17-2.13-.5-.63-.34-1.12-.79-1.47-1.38s-.52-1.25-.52-2.01v-5.06h2.77v5.02c0,.3.05.56.16.78.11.22.26.39.47.51.2.12.44.18.72.18.41,0,.73-.13.96-.4.23-.26.35-.62.35-1.08v-5.02h2.77v5.06c0,.77-.17,1.44-.51,2.03s-.82,1.04-1.43,1.37c-.61.33-1.33.5-2.14.5Z"/>
    <path d="m218.83,212.87v-13.07h2.77v6.46l-.45,2.11.41,2.14v2.36h-2.74Zm5.08.18c-.6,0-1.15-.12-1.64-.37-.49-.25-.89-.58-1.2-.99s-.48-.88-.53-1.4v-3.69c.05-.53.23-.99.54-1.4.31-.4.71-.71,1.21-.94.49-.22,1.03-.33,1.62-.33.81,0,1.54.2,2.19.59.64.4,1.15.94,1.52,1.62.37.68.56,1.46.56,2.34s-.18,1.65-.55,2.33c-.37.68-.87,1.22-1.52,1.62s-1.38.6-2.2.6Zm-.5-2.5c.37,0,.7-.09,1-.26s.53-.42.7-.73c.17-.31.26-.67.26-1.06s-.09-.75-.26-1.06c-.17-.31-.41-.56-.7-.73s-.63-.26-1-.26-.73.09-1.03.26c-.3.17-.53.42-.69.73-.16.31-.24.66-.24,1.04,0,.41.08.77.25,1.09.17.32.4.56.69.73.29.17.63.25,1.02.25Z"/>
    <path d="m229.54,212.87v-13.07h2.77v13.07h-2.77Z"/>
    <path d="m235.66,202.93c-.42,0-.77-.15-1.06-.45-.29-.3-.43-.66-.43-1.08s.14-.79.43-1.08c.29-.29.64-.43,1.06-.43.44,0,.8.14,1.07.43.27.29.41.65.41,1.08s-.13.78-.41,1.08c-.27.3-.63.45-1.07.45Zm-1.39,9.94v-8.75h2.77v8.75h-2.77Z"/>
    <path d="m243.21,213.07c-.91,0-1.73-.2-2.47-.59-.73-.4-1.3-.94-1.72-1.64-.41-.7-.62-1.48-.62-2.34s.21-1.66.63-2.35c.42-.69.99-1.23,1.73-1.63.73-.4,1.55-.59,2.47-.59.7,0,1.33.12,1.9.35.57.23,1.08.58,1.52,1.04l-1.78,1.8c-.21-.23-.44-.4-.71-.5-.27-.11-.58-.16-.93-.16-.38,0-.73.09-1.04.26s-.55.41-.72.72c-.17.31-.26.66-.26,1.05s.09.77.26,1.08c.17.31.42.55.73.73.31.17.65.26,1.03.26s.68-.06.96-.18.53-.29.73-.52l1.78,1.76c-.47.48-.99.84-1.56,1.09-.57.25-1.21.37-1.93.37Z"/>
  </g>
  <g>
    <path d="m339.33,212.87v-12.71h2.84v12.71h-2.84Zm2.18-4.63v-2.21h2.74c.35,0,.66-.07.94-.21s.51-.34.68-.62c.17-.28.25-.61.25-.99s-.08-.73-.25-1.01c-.17-.28-.39-.48-.68-.62-.28-.14-.6-.21-.94-.21h-2.74v-2.21h3.15c.8,0,1.53.16,2.19.49.65.32,1.17.79,1.55,1.39.38.61.57,1.33.57,2.17s-.19,1.54-.57,2.15c-.38.61-.89,1.07-1.55,1.39-.65.32-1.38.49-2.19.49h-3.15Z"/>
    <path d="m350.38,212.87v-8.75h2.77v8.75h-2.77Zm2.77-4.79l-1.15-.9c.23-1.03.61-1.83,1.16-2.39.55-.56,1.29-.85,2.24-.85.42,0,.79.06,1.11.19.32.13.6.32.84.57l-1.64,2.09c-.11-.12-.25-.22-.43-.29s-.38-.11-.61-.11c-.47,0-.84.14-1.11.42-.27.28-.41.71-.41,1.27Z"/>
    <path d="m359.45,202.93c-.42,0-.77-.15-1.06-.45s-.43-.66-.43-1.08.14-.79.43-1.08.64-.43,1.06-.43c.44,0,.8.14,1.07.43.27.29.41.65.41,1.08s-.13.78-.41,1.08c-.27.3-.63.45-1.07.45Zm-1.39,9.94v-8.75h2.77v8.75h-2.77Z"/>
    <path d="m361.86,212.87l3.58-5.09,1.58,1.78-2.14,3.31h-3.02Zm6.3,0l-2.09-3.38-.59-.4-3.44-4.97h3.22l1.96,3.17.58.38,3.56,5.2h-3.2Zm-.36-3.8l-1.58-1.76,1.96-3.19h3.02l-3.4,4.95Z"/>
    <path d="m375.83,216.56v-12.44h2.77v2.23l-.45,2.14.41,2.12v5.94h-2.74Zm5.08-3.51c-.6,0-1.15-.11-1.64-.34s-.89-.54-1.2-.95c-.31-.4-.48-.86-.53-1.38v-3.69c.05-.53.23-1,.54-1.41.31-.41.71-.74,1.21-.98.49-.24,1.03-.36,1.62-.36.82,0,1.54.2,2.19.59.64.4,1.15.94,1.52,1.62.37.68.56,1.46.56,2.34s-.18,1.65-.55,2.33c-.37.68-.87,1.22-1.52,1.62-.65.4-1.38.6-2.2.6Zm-.52-2.5c.38,0,.72-.09,1.02-.26s.53-.42.7-.73c.17-.31.26-.67.26-1.06s-.09-.75-.26-1.06c-.17-.31-.41-.56-.69-.73-.29-.17-.62-.26-1.01-.26s-.72.09-1.02.26-.53.42-.69.73c-.17.31-.25.67-.25,1.06s.08.75.25,1.06c.17.31.4.55.69.73s.63.26,1,.26Z"/>
    <path d="m386.54,212.87v-8.75h2.77v8.75h-2.77Zm2.77-4.79l-1.15-.9c.23-1.03.61-1.83,1.16-2.39.55-.56,1.29-.85,2.24-.85.42,0,.79.06,1.11.19.32.13.6.32.84.57l-1.64,2.09c-.11-.12-.25-.22-.43-.29s-.38-.11-.61-.11c-.47,0-.84.14-1.11.42-.27.28-.41.71-.41,1.27Z"/>
    <path d="m398.21,213.07c-.91,0-1.73-.2-2.45-.61-.72-.41-1.29-.96-1.71-1.66-.42-.7-.63-1.48-.63-2.34s.21-1.62.62-2.3c.41-.68.98-1.23,1.7-1.63s1.54-.6,2.47-.6,1.71.2,2.44.59c.73.4,1.3.94,1.72,1.63.42.69.63,1.46.63,2.31s-.21,1.66-.63,2.35c-.42.69-.99,1.24-1.71,1.65s-1.54.61-2.45.61Zm0-2.52c.38,0,.73-.08,1.03-.25.3-.17.53-.41.69-.73.16-.32.24-.68.24-1.09s-.08-.75-.25-1.05c-.17-.31-.4-.55-.69-.72-.29-.17-.63-.26-1.02-.26s-.73.09-1.03.26c-.3.17-.53.42-.7.73-.17.31-.25.66-.25,1.04,0,.41.08.77.25,1.09.17.32.4.56.7.73.3.17.64.25,1.03.25Z"/>
    <path d="m403.35,206.48v-2.36h7.22v2.36h-7.22Zm1.94,6.39v-9.49c0-.72.16-1.36.47-1.93.31-.57.76-1.02,1.35-1.36s1.27-.5,2.05-.5c.6,0,1.12.1,1.58.31s.84.47,1.18.81l-1.75,1.76c-.11-.12-.23-.21-.38-.28-.14-.07-.32-.1-.52-.1-.38,0-.68.11-.89.32s-.31.51-.31.88v9.58h-2.77Z"/>
    <path d="m415.95,213.07c-.95,0-1.79-.2-2.52-.58-.73-.39-1.31-.93-1.73-1.63-.42-.7-.63-1.49-.63-2.38s.2-1.64.61-2.33c.41-.69.97-1.23,1.67-1.63.71-.4,1.51-.59,2.39-.59s1.64.19,2.3.56,1.18.89,1.57,1.55c.38.66.58,1.42.58,2.27,0,.17,0,.34-.03.51-.02.17-.06.37-.12.58l-7.52.04v-1.91l6.34-.04-1.19.81c-.01-.49-.09-.9-.23-1.23-.14-.33-.36-.58-.64-.77-.28-.18-.62-.27-1.02-.27-.43,0-.81.1-1.12.31-.32.2-.56.49-.74.85-.17.36-.26.79-.26,1.3s.09.94.28,1.31c.19.37.45.66.79.86.34.2.75.3,1.21.3.42,0,.8-.08,1.15-.23.35-.15.65-.38.92-.67l1.53,1.51c-.43.52-.95.9-1.57,1.14s-1.29.37-2.03.37Z"/>
    <path d="m424.7,213.1c-.52,0-1.03-.07-1.53-.21s-.97-.33-1.39-.58-.79-.53-1.1-.86l1.58-1.58c.3.31.64.56,1.04.73.39.17.82.26,1.3.26.3,0,.54-.05.71-.14.17-.1.26-.23.26-.41,0-.22-.1-.38-.31-.48-.2-.1-.47-.2-.8-.29-.33-.09-.68-.19-1.04-.31-.36-.11-.7-.27-1.03-.46-.32-.19-.59-.46-.79-.79s-.31-.77-.31-1.31.14-1.05.43-1.47.7-.74,1.22-.98c.53-.24,1.16-.36,1.89-.36s1.42.13,2.05.39c.64.26,1.15.64,1.53,1.14l-1.57,1.6c-.28-.32-.58-.55-.93-.69-.34-.14-.67-.21-1-.21s-.55.05-.7.14c-.16.1-.23.22-.23.38,0,.18.1.32.31.43.21.11.47.21.79.29.32.08.66.18,1.02.3.36.11.7.28,1.03.49s.59.49.79.83.31.79.31,1.34c0,.85-.32,1.53-.96,2.04-.64.51-1.51.77-2.6.77Z"/>
    <path d="m432.95,213.1c-.52,0-1.03-.07-1.53-.21s-.97-.33-1.39-.58c-.42-.25-.79-.53-1.1-.86l1.58-1.58c.3.31.65.56,1.04.73s.83.26,1.3.26c.3,0,.54-.05.71-.14.17-.1.26-.23.26-.41,0-.22-.1-.38-.31-.48-.2-.1-.47-.2-.8-.29s-.67-.19-1.04-.31c-.36-.11-.7-.27-1.03-.46-.32-.19-.59-.46-.79-.79-.2-.34-.31-.77-.31-1.31s.14-1.05.43-1.47.7-.74,1.22-.98,1.16-.36,1.89-.36,1.42.13,2.05.39c.64.26,1.15.64,1.53,1.14l-1.57,1.6c-.28-.32-.58-.55-.93-.69-.34-.14-.68-.21-1-.21s-.55.05-.7.14c-.16.1-.23.22-.23.38,0,.18.11.32.32.43.21.11.47.21.79.29.32.08.66.18,1.02.3.36.11.7.28,1.03.49s.59.49.79.83.31.79.31,1.34c0,.85-.32,1.53-.96,2.04-.64.51-1.51.77-2.6.77Z"/>
    <path d="m439.39,202.93c-.42,0-.77-.15-1.06-.45s-.43-.66-.43-1.08.14-.79.43-1.08.64-.43,1.06-.43c.44,0,.8.14,1.07.43.27.29.41.65.41,1.08s-.13.78-.41,1.08c-.27.3-.63.45-1.07.45Zm-1.39,9.94v-8.75h2.77v8.75h-2.77Z"/>
    <path d="m446.91,213.07c-.91,0-1.73-.2-2.45-.61s-1.29-.96-1.71-1.66c-.42-.7-.63-1.48-.63-2.34s.21-1.62.62-2.3c.41-.68.98-1.23,1.7-1.63.72-.4,1.54-.6,2.47-.6s1.71.2,2.44.59c.73.4,1.3.94,1.72,1.63.42.69.63,1.46.63,2.31s-.21,1.66-.63,2.35c-.42.69-.99,1.24-1.71,1.65-.72.41-1.54.61-2.45.61Zm0-2.52c.38,0,.73-.08,1.03-.25s.53-.41.69-.73c.16-.32.24-.68.24-1.09s-.08-.75-.25-1.05c-.17-.31-.4-.55-.69-.72s-.63-.26-1.02-.26-.73.09-1.03.26-.53.42-.7.73c-.17.31-.25.66-.25,1.04,0,.41.08.77.25,1.09.17.32.4.56.7.73s.64.25,1.03.25Z"/>
    <path d="m453.05,212.87v-8.75h2.77v8.75h-2.77Zm5.8,0v-4.99c0-.44-.14-.81-.43-1.09-.29-.28-.65-.42-1.08-.42-.29,0-.55.06-.77.19-.23.13-.41.3-.54.53-.13.23-.2.49-.2.79l-1.06-.52c0-.68.15-1.28.46-1.8.31-.52.73-.92,1.26-1.2s1.14-.42,1.81-.42c.64,0,1.21.15,1.71.45s.9.71,1.19,1.21.43,1.06.43,1.67v5.6h-2.77Z"/>
    <path d="m467.67,213.07c-.95,0-1.79-.2-2.52-.58-.73-.39-1.31-.93-1.73-1.63-.42-.7-.63-1.49-.63-2.38s.2-1.64.61-2.33c.41-.69.97-1.23,1.67-1.63.71-.4,1.51-.59,2.39-.59s1.64.19,2.3.56,1.18.89,1.57,1.55c.38.66.58,1.42.58,2.27,0,.17,0,.34-.03.51-.02.17-.06.37-.12.58l-7.52.04v-1.91l6.34-.04-1.19.81c-.01-.49-.09-.9-.23-1.23-.14-.33-.36-.58-.64-.77-.28-.18-.62-.27-1.02-.27-.43,0-.81.1-1.12.31-.32.2-.56.49-.74.85-.17.36-.26.79-.26,1.3s.09.94.28,1.31c.19.37.45.66.79.86.34.2.75.3,1.21.3.42,0,.8-.08,1.15-.23.35-.15.65-.38.92-.67l1.53,1.51c-.43.52-.95.9-1.57,1.14s-1.29.37-2.03.37Z"/>
    <path d="m473.21,212.87v-13.07h2.77v13.07h-2.77Z"/>
    <path d="m485.25,213.07c-.79,0-1.5-.17-2.13-.5s-1.12-.79-1.47-1.38c-.35-.58-.52-1.25-.52-2.01v-5.06h2.77v5.02c0,.3.05.56.16.78.11.22.26.39.47.51.2.12.44.18.72.18.41,0,.73-.13.96-.4.23-.26.35-.62.35-1.08v-5.02h2.77v5.06c0,.77-.17,1.44-.51,2.03s-.82,1.04-1.43,1.37c-.61.33-1.33.5-2.14.5Z"/>
    <path d="m491.07,212.87v-8.75h2.77v8.75h-2.77Zm5.8,0v-4.99c0-.44-.14-.81-.43-1.09-.29-.28-.65-.42-1.08-.42-.29,0-.55.06-.77.19s-.41.3-.54.53c-.13.23-.2.49-.2.79l-1.06-.52c0-.68.15-1.28.46-1.8.31-.52.73-.92,1.26-1.2s1.14-.42,1.81-.42c.64,0,1.21.15,1.71.45s.9.71,1.19,1.21.43,1.06.43,1.67v5.6h-2.77Z"/>
    <path d="m502.77,202.93c-.42,0-.77-.15-1.06-.45s-.43-.66-.43-1.08.14-.79.43-1.08.64-.43,1.06-.43c.44,0,.8.14,1.07.43.27.29.41.65.41,1.08s-.13.78-.41,1.08c-.27.3-.63.45-1.07.45Zm-1.39,9.94v-8.75h2.77v8.75h-2.77Z"/>
    <path d="m509.73,213.05c-.82,0-1.54-.2-2.17-.6s-1.12-.94-1.49-1.62c-.36-.68-.54-1.46-.54-2.33s.18-1.66.54-2.35c.36-.69.86-1.23,1.49-1.62s1.36-.58,2.16-.58c.59,0,1.12.11,1.59.34.47.23.86.54,1.15.95.29.4.46.86.51,1.38v3.78c-.05.52-.22.98-.51,1.38-.29.4-.68.72-1.16.95-.48.23-1.01.34-1.58.34Zm.56-2.5c.58,0,1.05-.19,1.41-.58.37-.38.55-.88.55-1.49,0-.4-.08-.75-.25-1.05-.17-.31-.4-.55-.68-.72s-.62-.26-1.01-.26-.72.09-1.02.26-.52.42-.69.73c-.17.31-.25.67-.25,1.06s.08.75.24,1.06c.16.31.39.55.69.73s.64.26,1.01.26Zm1.84,6.01v-5.94l.41-2.12-.41-2.14v-2.23h2.74v12.44h-2.74Z"/>
    <path d="m520.68,213.07c-.79,0-1.5-.17-2.13-.5-.63-.34-1.12-.79-1.47-1.38s-.52-1.25-.52-2.01v-5.06h2.77v5.02c0,.3.05.56.16.78.11.22.26.39.47.51s.44.18.72.18c.41,0,.73-.13.96-.4.23-.26.35-.62.35-1.08v-5.02h2.77v5.06c0,.77-.17,1.44-.51,2.03-.34.58-.82,1.04-1.43,1.37s-1.33.5-2.14.5Z"/>
    <path d="m530.81,213.07c-.95,0-1.79-.2-2.52-.58-.73-.39-1.31-.93-1.73-1.63-.42-.7-.63-1.49-.63-2.38s.2-1.64.61-2.33c.41-.69.97-1.23,1.67-1.63.71-.4,1.51-.59,2.39-.59s1.64.19,2.3.56,1.18.89,1.57,1.55c.38.66.58,1.42.58,2.27,0,.17,0,.34-.03.51-.02.17-.06.37-.12.58l-7.52.04v-1.91l6.34-.04-1.19.81c-.01-.49-.09-.9-.23-1.23-.14-.33-.36-.58-.64-.77-.28-.18-.62-.27-1.02-.27-.43,0-.81.1-1.12.31-.32.2-.56.49-.74.85-.17.36-.26.79-.26,1.3s.09.94.28,1.31c.19.37.45.66.79.86.34.2.75.3,1.22.3.42,0,.8-.08,1.15-.23.35-.15.65-.38.92-.67l1.53,1.51c-.43.52-.95.9-1.57,1.14-.61.25-1.29.37-2.03.37Z"/>
    <path d="m536.35,212.87v-8.75h2.77v8.75h-2.77Zm5.62,0v-5.11c0-.43-.14-.77-.41-1.02-.27-.25-.6-.37-1-.37-.28,0-.52.06-.74.17-.22.11-.39.27-.51.48s-.19.45-.19.74l-1.06-.49c0-.68.15-1.28.46-1.77s.71-.88,1.22-1.15c.51-.27,1.1-.4,1.75-.4.6,0,1.14.14,1.63.41.49.28.88.66,1.17,1.15.29.49.44,1.08.44,1.76v5.6h-2.77Zm5.58,0v-5.11c0-.43-.14-.77-.41-1.02-.27-.25-.6-.37-.98-.37-.26,0-.51.06-.73.17-.22.11-.39.27-.51.48-.12.2-.18.45-.18.74l-1.6-.22c.04-.74.22-1.39.54-1.93.32-.54.76-.95,1.31-1.24s1.17-.43,1.85-.43,1.25.14,1.78.42c.53.28.94.68,1.24,1.2.3.52.45,1.14.45,1.87v5.44h-2.77Z"/>
    <path d="m556.39,213.07c-.95,0-1.79-.2-2.52-.58-.73-.39-1.31-.93-1.73-1.63-.42-.7-.63-1.49-.63-2.38s.2-1.64.61-2.33c.41-.69.97-1.23,1.67-1.63.71-.4,1.51-.59,2.39-.59s1.64.19,2.3.56,1.18.89,1.57,1.55c.38.66.58,1.42.58,2.27,0,.17,0,.34-.03.51-.02.17-.06.37-.12.58l-7.52.04v-1.91l6.34-.04-1.19.81c-.01-.49-.09-.9-.23-1.23-.14-.33-.36-.58-.64-.77-.28-.18-.62-.27-1.02-.27-.43,0-.81.1-1.12.31-.32.2-.56.49-.74.85-.17.36-.26.79-.26,1.3s.09.94.28,1.31c.19.37.45.66.79.86.34.2.75.3,1.22.3.42,0,.8-.08,1.15-.23.35-.15.65-.38.92-.67l1.53,1.51c-.43.52-.95.9-1.57,1.14-.61.25-1.29.37-2.03.37Z"/>
    <path d="m561.93,212.87v-8.75h2.77v8.75h-2.77Zm5.8,0v-4.99c0-.44-.14-.81-.43-1.09-.29-.28-.65-.42-1.08-.42-.29,0-.55.06-.77.19s-.41.3-.54.53c-.13.23-.2.49-.2.79l-1.06-.52c0-.68.15-1.28.46-1.8.31-.52.73-.92,1.26-1.2s1.14-.42,1.81-.42c.64,0,1.21.15,1.71.45s.9.71,1.19,1.21.43,1.06.43,1.67v5.6h-2.77Z"/>
    <path d="m571.4,206.48v-2.36h6.71v2.36h-6.71Zm1.96,6.39v-12.37h2.77v12.37h-2.77Z"/>
  </g>
</svg>