<?xml version="1.0" encoding="UTF-8"?>
<svg xmlns="http://www.w3.org/2000/svg" viewBox="0 0 5000 3500">
  <defs>
    <style>
      .cls-1 {
        fill: #383f3f;
      }

      .cls-1, .cls-2, .cls-3, .cls-4, .cls-5, .cls-6, .cls-7, .cls-8, .cls-9, .cls-10, .cls-11, .cls-12 {
        stroke-width: 0px;
      }

      .cls-2 {
        fill: #cecece;
      }

      .cls-3 {
        fill: #c6902e;
      }

      .cls-4 {
        fill: #000;
      }

      .cls-5 {
        fill: #160707;
      }

      .cls-6 {
        fill: #d8a77d;
      }

      .cls-7 {
        fill: #3b3f3f;
      }

      .cls-8 {
        fill: #a32f67;
      }

      .cls-9 {
        fill: #dfe3e5;
      }

      .cls-10 {
        fill: #747a7a;
      }

      .cls-11 {
        fill: #a1542e;
      }

      .cls-12 {
        fill: #fff;
      }
    </style>
  </defs>
  <g id="Layer_1" data-name="Layer 1">
    <rect class="cls-12" width="5000" height="3500"/>
  </g>
  <g id="Layer_2" data-name="Layer 2">
    <path class="cls-9" d="M111.69,2364.8c0,229.43,75.01,440.25,200.42,606.39,28.59,37.9,59.81,73.46,93.37,106.4,21.25,20.85,43.44,40.66,66.49,59.32,4.83,3.92,9.69,7.77,14.59,11.58h3983.89c5.59-3.8,11.14-7.65,16.64-11.58,244.72-174.2,405.8-470.48,405.8-806.69,0-268.96-103.08-512.36-269.59-688.17-32.96-34.8-49.9-83.07-46.57-132.28.19-2.74.36-5.48.53-8.21,34.83-583.18-422.25-1068.09-971.77-1030.99-86.47,5.84-169.68,24.43-247.98,54.02-87.94,33.24-185.78,18.69-261.62-39.07-150.01-114.22-333.92-181.48-532.64-181.48s-363.85,60.58-509.45,164.39c-86.81,61.89-197.26,73.52-293.67,30.5-108.96-48.63-228.67-75.51-354.29-75.51s-249.29,27.77-359.7,77.94h-.01c-95.71,43.5-183.02,103.81-258.62,177.46h0c-53.62,52.22-101.33,111.13-141.99,175.51-32.39,51.27-60.29,105.99-83.11,163.55-45.89,115.71-71.25,242.83-71.25,376.24,0,23.09.76,46,2.26,68.69,4.21,63.91-20.13,126.17-65.75,168.13-139.24,128.05-241.67,299.98-288.19,495.53-6.14,25.8-11.31,52.02-15.45,78.61-8.11,51.97-12.33,105.33-12.33,159.74Z"/>
  </g>
  <g id="Layer_5" data-name="Layer 5">
    <g>
      <path class="cls-3" d="M4178.63,2206.01h-1972.27c-56.6,0-102.48-50.77-102.48-113.41v-1041.3c0-62.63,45.88-113.41,102.48-113.41h1972.28c56.6,0,102.48,50.77,102.48,113.41v1041.3c0,62.63-45.88,113.41-102.48,113.41Z"/>
      <rect class="cls-12" x="2227.37" y="1067.95" width="1137.13" height="179.63" rx="34.02" ry="34.02"/>
      <circle class="cls-12" cx="2241.32" cy="1793.87" r="27.31"/>
      <circle class="cls-12" cx="2308.54" cy="1793.87" r="27.31"/>
      <circle class="cls-12" cx="2375.77" cy="1793.87" r="27.31" transform="translate(-572.61 2205.33) rotate(-45)"/>
      <circle class="cls-12" cx="2442.99" cy="1793.87" r="27.31"/>
      <circle class="cls-12" cx="2581.64" cy="1793.87" r="27.31"/>
      <circle class="cls-12" cx="2648.87" cy="1793.87" r="27.31"/>
      <circle class="cls-12" cx="2716.09" cy="1793.87" r="27.31" transform="translate(346.18 4025.16) rotate(-76.72)"/>
      <circle class="cls-12" cx="2783.32" cy="1793.87" r="27.31" transform="translate(397.96 4090.58) rotate(-76.72)"/>
      <circle class="cls-12" cx="2921.97" cy="1793.87" r="27.31" transform="translate(504.76 4225.53) rotate(-76.72)"/>
      <circle class="cls-12" cx="2989.19" cy="1793.87" r="27.31" transform="translate(556.54 4290.95) rotate(-76.72)"/>
      <circle class="cls-12" cx="3056.42" cy="1793.87" r="27.31" transform="translate(608.32 4356.38) rotate(-76.72)"/>
      <circle class="cls-12" cx="3123.64" cy="1793.87" r="27.31"/>
      <circle class="cls-12" cx="3262.29" cy="1793.87" r="27.31"/>
      <circle class="cls-12" cx="3329.52" cy="1793.87" r="27.31"/>
      <circle class="cls-12" cx="3396.74" cy="1793.87" r="27.31"/>
      <circle class="cls-12" cx="3463.97" cy="1793.87" r="27.31"/>
      <path class="cls-12" d="M4099.33,2154.72h-353.94c-39.44,0-71.53-32.08-71.53-71.53v-577.31c0-39.44,32.08-71.53,71.53-71.53h353.94c39.44,0,71.53,32.08,71.53,71.53v577.31c0,39.44-32.08,71.53-71.53,71.53ZM3745.39,1450.25c-30.68,0-55.63,24.95-55.63,55.63v577.31c0,30.68,24.95,55.63,55.63,55.63h353.94c30.68,0,55.63-24.95,55.63-55.63v-577.31c0-30.68-24.95-55.63-55.63-55.63h-353.94Z"/>
      <path class="cls-12" d="M3429.95,1988.73h-1190.59c-18.79,0-34.02-15.23-34.02-34.02h0c0-18.79,15.23-34.02,34.02-34.02h1190.59c18.79,0,34.02,15.23,34.02,34.02h0c0,18.79-15.23,34.02-34.02,34.02Z"/>
      <path class="cls-12" d="M3191.83,2109.61h-952.47c-18.79,0-34.02-15.23-34.02-34.02h0c0-18.79,15.23-34.02,34.02-34.02h952.47c18.79,0,34.02,15.23,34.02,34.02h0c0,18.79-15.23,34.02-34.02,34.02Z"/>
    </g>
  </g>
  <g id="Layer_6" data-name="Layer 6">
    <g>
      <path class="cls-8" d="M1934.06,2772.18l66.55,311.38,1.74,38.65H908.29l2.56-38.65,58.11-323.68c-1.69-12.05-324.37,68.95-298.46-286.71,33.6-461.21,119.13-819.46,589.6-885.79,51.44-7.25,107.15-11,167.52-11,76.64,0,146.25,5.84,209.44,17.08,448.21,79.75,573.06,431.44,588.09,899.98,9.03,281.14-290.82,266.11-291.08,278.74Z"/>
      <path class="cls-4" d="M1450.82,646.18c-493.47.08-429.57,695.25-429.57,886.91,0,0,362.47,0,611.74,0l10.13-101.05,8.94,101.05h211.1c0-146.99,48.2-886.99-412.35-886.91Z"/>
      <path class="cls-6" d="M1731.94,1046.92c0,197.16-129.05,436.49-288.24,436.49s-288.24-239.33-288.24-436.49,129.05-356.98,288.24-356.98,288.24,159.83,288.24,356.98Z"/>
      <path class="cls-4" d="M1749.15,846.89c-27.68-95.06-119.71-190.25-301.08-190.25-135.67,0-245.91,52.03-272.75,147.34-39.42,139.98-26.58,160.93-28.19,228.86h124.2l8.93-94.51v94.51h36.83l15.14-128.47,15.41,128.47h267.99l12.73-88.6,7.68,88.6h124.58c-.85-87.12,15.46-93.45-11.48-185.95Z"/>
      <ellipse class="cls-6" cx="1177.52" cy="1118.29" rx="60.26" ry="96.09" transform="translate(-289.85 422.62) rotate(-18.16)"/>
      <ellipse class="cls-6" cx="1705.29" cy="1117.12" rx="96.09" ry="60.26" transform="translate(112.4 2389.38) rotate(-71.84)"/>
      <path class="cls-11" d="M1699.77,1175.03c1.39-.94,33.95-23.29,35.38-54.26.78-16.85-7.81-32.76-25.53-47.29l-4.5,5.49c15.88,13.02,23.6,26.97,22.94,41.44-1.25,27.4-31.95,48.53-32.26,48.74l3.98,5.88Z"/>
      <path class="cls-5" d="M1369.53,1115.16l-5.69,3.91c-2.6-3.77-5.33-7.15-8.2-10.11-3.86-4-7.97-7.25-12.27-9.72-9.63-5.55-20.54-7.35-32.42-5.35-3.29.55-6.53,1.37-9.67,2.39-21.67,6.99-38.65,23.15-38.85,23.34l-4.8-4.98c.94-.9,22.52-21.47,49.5-27.06.88-.18,1.77-.34,2.66-.5,13.5-2.27,25.96-.19,37.01,6.17,1.83,1.06,3.63,2.23,5.39,3.52,6.3,4.63,12.11,10.8,17.33,18.4Z"/>
      <path class="cls-5" d="M1347.37,1112.18c0,19.29-9.29,34.94-20.75,34.94s-20.74-15.64-20.74-34.94c0-8.2,1.68-15.74,4.49-21.7,11.22-1.88,23.21-.86,34.71,5.76,1.47,4.78,2.29,10.2,2.29,15.95Z"/>
      <path class="cls-5" d="M1646.1,1119.53c-.22-.21-22.45-21.36-48.51-25.72-11.87-2-22.78-.21-32.42,5.34-7.5,4.31-14.38,10.98-20.48,19.84l-5.7-3.92c6.68-9.72,14.33-17.09,22.73-21.92,11.07-6.37,23.52-8.44,37.01-6.17,28.2,4.72,51.2,26.63,52.16,27.56l-4.8,4.98Z"/>
      <path class="cls-5" d="M1602.66,1112.1c0,19.29-9.29,34.93-20.74,34.93s-20.75-15.64-20.75-34.93c0-5.75.82-11.17,2.29-15.95,11.5-6.62,23.49-7.65,34.71-5.76,2.82,5.96,4.49,13.5,4.49,21.7Z"/>
      <path class="cls-5" d="M1463.84,1251.56c-9.95,0-21.13-7.44-22.59-8.44l4.89-7.13c5.13,3.51,15.16,8.4,20.19,6.55.97-.36,2.37-1.18,3.18-4.13,3.27-11.92-12.45-86.73-23.82-134.11l8.41-2.02c2.95,12.28,28.66,120.53,23.75,138.41-1.72,6.28-5.6,8.88-8.55,9.96-1.73.63-3.57.9-5.46.9Z"/>
      <path class="cls-12" d="M1637.04,1592.64l-193.35,776.91-183.61-783c51.44-7.25,107.15-11,167.52-11,76.64,0,146.25,5.84,209.44,17.08Z"/>
      <path class="cls-6" d="M1570.1,1593.02v-1.27h0v-288.09s-257.7,0-257.7,0v288.09s0,0,0,0h0s35.57,97.54,124.03,97.54c106.76,0,133.68-96.27,133.68-96.27Z"/>
      <path class="cls-11" d="M1327.94,1437.72c-2.91-1.91-5.68-3.81-8.33-5.68l-4.88,5.02c2.92,2.08,6.01,4.2,9.26,6.34,24.58,16.15,63.31,36.1,108.25,39.39l.5-6.9c-43.39-3.17-80.94-22.51-104.8-38.17Z"/>
      <path class="cls-4" d="M1355.95,1114.24c0,19.72-13.13,35.7-29.33,35.7s-29.33-15.98-29.33-35.7c0-6.55,1.45-12.69,3.98-17.97,1.56-3.27,3.55-6.21,5.86-8.71.88-.18,1.77-.34,2.66-.5,13.5-2.27,25.96-.19,37.01,6.17,1.83,1.06,3.63,2.23,5.39,3.52,1.72,3.71,2.9,7.82,3.43,12.2.21,1.72.32,3.49.32,5.28Z"/>
      <path class="cls-4" d="M1601.31,1087.47c2.32,2.49,4.32,5.43,5.9,8.71,2.56,5.3,4.03,11.47,4.03,18.06,0,19.72-13.13,35.7-29.33,35.7s-29.33-15.98-29.33-35.7c0-1.83.11-3.62.33-5.37.54-4.39,1.74-8.52,3.47-12.22l44.92-9.18Z"/>
      <path class="cls-5" d="M1659.74,1103.33l5.88-9.08c-.83-.65-28.67-31.93-54.09-42.19-34.73-14.03-36.72-12.79-78.83-14.94l-.72,12.96c83.5-6.82,127,52.65,127.76,53.25Z"/>
      <path class="cls-5" d="M1227.65,1103.33l-5.88-9.08c.83-.65,28.67-31.93,54.09-42.19,34.73-14.03,36.72-12.79,78.83-14.94l.72,12.96c-83.5-6.82-127,52.65-127.76,53.25Z"/>
      <path class="cls-5" d="M1464.86,1361.34l6.15-6.81c-3.67-4.42-7.95-8.71-12.95-12.65-4.88-3.85-10.16-7.15-15.82-9.89-20.83-10.09-46.89-12.68-77.74-7.67l1.45,8.92c36.59-5.93,65.67-.66,86.44,15.67,4.86,3.83,8.98,8.05,12.47,12.43Z"/>
      <path class="cls-11" d="M1188.15,1175.83c-1.39-.94-33.95-23.29-35.38-54.26-.78-16.85,7.81-32.76,25.53-47.29l4.5,5.49c-15.88,13.02-23.6,26.97-22.94,41.44,1.25,27.4,31.95,48.53,32.26,48.74l-3.98,5.88Z"/>
      <polygon class="cls-12" points="711.88 2419.13 704.46 2416.84 935 1859.87 942.42 1862.17 711.88 2419.13"/>
      <polygon class="cls-12" points="965.75 2740.99 958.25 2739.17 1143.52 1874.21 1151.02 1876.03 965.75 2740.99"/>
      <g>
        <g>
          <path class="cls-1" d="M1194.08,1034.7h-7.87c-1.84,0-3.32,1.23-3.32,2.74v417c0,.73-.35,1.42-.97,1.94l-80.68,66.5c-1.03.85-1.27,2.16-.59,3.22h0c7.2,11.21,25.51,13.48,36.4,4.51l64.6-53.25c4.36-3.59,6.81-8.47,6.81-13.55v-417.26c0-6.54-6.43-11.85-14.37-11.85Z"/>
          <path class="cls-10" d="M1191.08,1472.42l-66.96,55.19c-9.88,8.14-26.77,2.38-26.77-9.14v-415.64c0-3.43,1.65-6.72,4.59-9.14l66.96-55.19c9.88-8.14,26.77-2.38,26.77,9.14v415.64c0,3.43-1.65,6.72-4.59,9.14Z"/>
          <ellipse class="cls-2" cx="1141.01" cy="1106.39" rx="13.34" ry="19.31"/>
          <ellipse class="cls-7" cx="1141.01" cy="1106.39" rx="11.26" ry="16.29"/>
        </g>
        <path class="cls-6" d="M957.49,1864.87s54.41-93.94,51.05-172.36c-1.34-31.31-23.87-166.07-21.15-205.55,1.76-25.54,70.2-130.44,121.11-199.6,27.77-37.72,51.53-64.73,51.53-64.73,0,0,18.83-21.89,26.16-16.45,18.09,13.42,1.63,43.46,1.63,43.46l-33.68,56.27s50.37-3.4,65.34-2.04c14.97,1.36,38.69,5.1,49.69,11.57,5.16,3.04,11.24,7.88,3.32,20.16-5.18,8.04-59.81,6.14-59.81,6.14l-44.83,18.83s44.83,12.73,53.68,22.94,27.91,71.47,27.91,71.47c0,0,0,14.29-9.53,16.34s-14.97,2.04-23.82-11.57c-8.85-13.61-19.06-36.07-19.06-36.07l-65.07-7.49-11.16,18.38s12.25-2.72,25.18,2.04c12.93,4.76,54.45,42.2,55.81,51.73,1.36,9.53-3.4,60.58-3.4,64.66s-8.85,13.41-17.7,7.04c-8.85-6.36-16.34-15.89-16.34-26.1v-24.5l-25.18-20.42-23.14,31.31s8.97,13.53,13.85,12.98c1.54-.17,30.67-26.95,30.67-26.95l30.35,50.73c10.84,34.4,9.51,68.68,6,93.93-3.4,24.5-17.2,73.85-39.66,121.83s-26.09,102.29-26.09,102.29l-173.66-10.25Z"/>
        <path class="cls-11" d="M1059.46,1396.7l-3.74-3.01c1.89-2.34,46.38-57.45,56.12-66.62,10.78-10.16,40.62-22.19,41.88-22.7l1.79,4.45c-.3.12-30.26,12.21-40.38,21.74-9.5,8.95-55.21,65.57-55.67,66.14Z"/>
        <path class="cls-11" d="M1063.07,1406.23l-3.21-3.57c.33-.3,33.19-29.77,52.5-42.98,20.14-13.78,56.1-2.37,57.62-1.88l-1.48,4.57c-.35-.11-35.24-11.17-53.43,1.27-19.05,13.03-51.67,42.3-52,42.59Z"/>
        <rect class="cls-11" x="1076.75" y="1443.99" width="48.88" height="4.8" transform="translate(-600.49 806.9) rotate(-32.12)"/>
        <path class="cls-11" d="M1192.17,1563.21c-.58,0-6.93-.05-13.95-2.03-17.77-5.03-15.73-41.92-15.12-49.5l-21.48-17.57,3.04-3.71,23.46,19.19-.13,1.28c-1.17,11.47-1.37,42.04,11.54,45.69,6.57,1.86,12.61,1.84,12.66,1.85l.02,4.8h-.03Z"/>
        <path class="cls-11" d="M1142.48,1655.07c-2.12-31.65-39.47-93.65-39.84-94.28l4.11-2.49c1.56,2.58,38.33,63.62,40.53,96.44l-4.79.32Z"/>
        <path class="cls-11" d="M1241.61,1344.85c2.22.02,4.87.03,8.07.06.31,0,.62,0,.92,0,17.06,0,24.87-4.43,28.65-16.15,1.02-3.19.78-6.19-.74-8.93-2.92-5.22-10.37-9.25-22.77-12.3-10.12-2.5-26.97-4.05-37.54-4.82.52,1.33,1.06,2.66,1.62,3.98,10.5.82,25.83,2.3,34.99,4.57,11.16,2.74,18,6.26,20.33,10.45,1,1.79,1.14,3.71.45,5.88-2.86,8.87-7.83,13.67-25.87,13.48-4.67-.05-8.21-.06-10.9-.07l2.79,3.85Z"/>
      </g>
      <polygon class="cls-12" points="2204.45 2451.5 2212.11 2450.28 2060.22 1872.43 2052.55 1873.65 2204.45 2451.5"/>
      <polygon class="cls-12" points="1928.94 2760.79 1936.62 2760.04 1866.2 1881.07 1858.51 1881.81 1928.94 2760.79"/>
      <g>
        <path class="cls-6" d="M2024.04,1698.5c.89-41.42,27.19-130.49,28.21-178.43,1.03-47.94,1.56-73.04-37.08-86.43l-38.64-13.39-54.03-233.49s-5.63-30.26-22.03-26.84c-16.4,3.42-13.41,39.9-13.41,39.9l16.27,178.68s-23.77-4.28-35.15-.75c-11.38,3.52-28.75,38.5-28.75,38.5,0,0-17.3.7-36.05-3.47-18.75-4.17-34.99-8.28-44.04,4.08-9.06,12.36-6.84,26.23-1.02,47.7,5.82,21.47,19.49,87.07,28.96,113.65,9.48,26.58,69.76,112.01,82.55,160,12.79,48,4.53,143.22,4.53,143.22l170.22-2.59s-21.42-138.92-20.53-180.34Z"/>
        <path class="cls-11" d="M1803.66,1464.77c-11.92.31-24.63-1.06-25.43-1.15l.49-4.4c.29.03,29.22,3.16,39.75-.92,19.43-7.54,18.77-41.64,18.76-41.98l4.43-.11c.04,1.53.72,37.57-21.59,46.22-3.99,1.55-10.09,2.19-16.4,2.35Z"/>
        <path class="cls-11" d="M1808.14,1561.45c-1.84.05-3.82-.11-5.93-.52-17.12-3.4-12.61-26.82-9.31-43.92.21-1.08.41-2.14.61-3.18,3.16-16.73,10.6-50.37,10.68-50.71l4.32.96c-.07.34-7.51,33.91-10.65,50.57-.2,1.04-.4,2.11-.61,3.2-3.82,19.8-6.02,36.38,5.82,38.73,7.47,1.48,12.92-1.05,16.18-3.43,4.81-3.52,8.32-9.32,8.93-14.78,1.16-10.28,9.54-46.75,12.61-58.44.42-1.6.91-3.64,1.47-6,5.03-21.14,15.51-65.12,41.64-66.36,27.5-1.31,85.58,21.76,88.04,22.74l-1.64,4.11c-.59-.23-58.31-23.17-85.28-22.46-.31,0-.61.02-.91.03-22.81,1.08-33.14,44.44-37.55,62.96-.57,2.38-1.06,4.44-1.49,6.09-3.04,11.6-11.35,47.72-12.49,57.81-.76,6.73-4.86,13.57-10.72,17.85-3.05,2.23-7.66,4.56-13.73,4.72Z"/>
        <path class="cls-11" d="M1853.15,1589.87c-5.57.14-10.22-2.47-15-8.18-6.68-7.97-9.66-39.32-9.98-42.87l4.41-.39c.83,9.26,4.06,34.57,8.96,40.42,6.2,7.4,11.01,7.58,17.22,5.41,6.22-2.18,12.9-21.36,12.18-28.81-.82-8.4,2.29-34.45,9.2-57.78l.16-.55c7.05-23.81,11.31-38.18,24.81-40.99,12.65-2.64,79.76,13.81,82.61,14.51l-1.06,4.3c-19.15-4.71-70.97-16.49-80.65-14.47-10.91,2.27-14.88,15.69-21.47,37.91l-.16.55c-6.66,22.49-9.8,48.24-9.04,56.1.83,8.54-6.27,30.31-15.12,33.41-2.55.89-4.89,1.38-7.08,1.44Z"/>
        <path class="cls-11" d="M1896.89,1591.83c-1.8.05-3.73-.09-5.79-.42-18.47-2.91-20.11-34.72-20.17-36.08l4.42-.2c.01.3,1.52,29.55,16.44,31.9,6.03.95,10.59.07,13.57-2.62,4.21-3.81,4.76-10.7,4.48-15.81-.69-12.38,4.04-38.45,4.24-39.56l.2-1.11,28.2-13.61.95.44c.92.42,22.47,10.48,25.27,22.76l-4.32.98c-1.82-8-15.61-16.22-21.87-19.27l-24.27,11.72c-.9,5.15-4.56,26.95-3.98,37.41.48,8.71-1.57,15.4-5.93,19.34-2.91,2.62-6.74,4.01-11.44,4.13Z"/>
        <path class="cls-11" d="M1915.35,1670.5c-4.75-34.69,7.21-58.59,18.07-72.53,11.78-15.11,24.54-21.92,25.08-22.21l2.06,3.92c-.21.11-12.62,6.79-23.76,21.16-14.95,19.27-20.69,42.5-17.05,69.06l-4.39.6ZM1960.55,1579.68l-1.03-1.96,1.03,1.96s0,0,0,0h0Z"/>
        <rect class="cls-11" x="1936.68" y="1359.8" width="4.43" height="79.73" transform="translate(-226.73 2413.79) rotate(-60.92)"/>
      </g>
    </g>
  </g>
  <g id="Layer_3" data-name="Layer 3">
    <path class="cls-9" d="M4891.8,3148.5c0,8.07-3.27,15.36-8.56,20.65-5.29,5.29-12.58,8.56-20.65,8.56H138.2c-16.13,0-29.21-13.08-29.21-29.21,0-8.07,3.27-15.37,8.56-20.66,5.29-5.29,12.58-8.56,20.65-8.56h4724.39c4.92,0,9.53,1.21,13.59,3.36,9.29,4.88,15.62,14.64,15.62,25.86Z"/>
  </g>
</svg>