<?xml version="1.0" encoding="UTF-8"?>
<svg id="_ÎÓÈ_1" data-name="—ÎÓÈ_1" xmlns="http://www.w3.org/2000/svg" xmlns:xlink="http://www.w3.org/1999/xlink" viewBox="0 0 2400 2400">
  <defs>
    <style>
      .cls-1 {
        fill: #2ecb70;
      }

      .cls-1, .cls-2, .cls-3, .cls-4, .cls-5, .cls-6, .cls-7, .cls-8, .cls-9, .cls-10, .cls-11, .cls-12, .cls-13, .cls-14, .cls-15, .cls-16, .cls-17, .cls-18, .cls-19, .cls-20 {
        stroke-width: 0px;
      }

      .cls-2 {
        fill: url(#_ÂÁ_Ï_ÌÌ_È_ËÂÌÚ_3);
      }

      .cls-3 {
        fill: #404b69;
      }

      .cls-4 {
        fill: #f4a995;
      }

      .cls-5 {
        fill: #bfc8e6;
      }

      .cls-6 {
        opacity: .2;
      }

      .cls-6, .cls-13, .cls-16 {
        fill: #000;
      }

      .cls-7 {
        fill: #f1937b;
      }

      .cls-8 {
        fill: #283149;
      }

      .cls-9 {
        fill: #f73859;
      }

      .cls-10 {
        fill: #f1c40f;
      }

      .cls-11 {
        fill: url(#_ÂÁ_Ï_ÌÌ_È_ËÂÌÚ_3-3);
      }

      .cls-12 {
        fill: url(#_ÂÁ_Ï_ÌÌ_È_ËÂÌÚ_3-2);
      }

      .cls-13 {
        opacity: .31;
      }

      .cls-14 {
        fill: #f6baaa;
      }

      .cls-15 {
        fill: #f2f2f2;
      }

      .cls-16 {
        opacity: .11;
      }

      .cls-17 {
        fill: #f08c77;
      }

      .cls-18 {
        fill: #ef8171;
      }

      .cls-19, .cls-20 {
        fill: #fff;
      }

      .cls-20 {
        opacity: .21;
      }
    </style>
    <linearGradient id="_ÂÁ_Ï_ÌÌ_È_ËÂÌÚ_3" data-name="¡ÂÁ˚ÏˇÌÌ˚È „‡‰ËÂÌÚ 3" x1="1390.42" y1="-397.51" x2="1739.37" y2="751.41" gradientTransform="translate(-279.63 756.43) rotate(-19.78)" gradientUnits="userSpaceOnUse">
      <stop offset="0" stop-color="#ccd4ed"/>
      <stop offset="1" stop-color="#e8f0fd"/>
    </linearGradient>
    <linearGradient id="_ÂÁ_Ï_ÌÌ_È_ËÂÌÚ_3-2" data-name="¡ÂÁ˚ÏˇÌÌ˚È „‡‰ËÂÌÚ 3" x1="296.49" y1="2050.02" x2="714.68" y2="2050.02" gradientTransform="matrix(1,0,0,1,0,0)" xlink:href="#_ÂÁ_Ï_ÌÌ_È_ËÂÌÚ_3"/>
    <linearGradient id="_ÂÁ_Ï_ÌÌ_È_ËÂÌÚ_3-3" data-name="¡ÂÁ˚ÏˇÌÌ˚È „‡‰ËÂÌÚ 3" x1="296.49" y1="2050.02" x2="714.68" y2="2050.02" gradientTransform="matrix(1,0,0,1,0,0)" xlink:href="#_ÂÁ_Ï_ÌÌ_È_ËÂÌÚ_3"/>
  </defs>
  <rect class="cls-19" width="2400" height="2400"/>
  <g>
    <path class="cls-6" d="M2233.54,1625.21l-332.46-1028.24c-5.66-17.49-22.62-27.28-37.87-21.8l-28.35,10.2-18.85-58.28c-6.63-20.49-26.49-31.96-44.35-25.53l-15.57,5.6-64.89-127.52c-1.05-2.91-12.61-1.86-32.24,2.45l-102.99-286.36-19.68,41.78-41.79-19.67-19.69,41.78-41.78-19.68-19.69,41.78-41.79-19.67-19.69,41.78-41.78-19.68-19.69,41.78-41.79-19.67-19.68,41.78-41.79-19.67-19.69,41.78-41.79-19.67-19.68,41.78-41.79-19.67c-38.27,169.07,122.51,982.61,122.51,982.61-122.46,72.59-984.97,1026.53-1075.84,1144.81h570.03l131.02-138.85c2.77-2.94-2.21-12.87-13.31-27.91l24.77-26.25c2.57-2.72-2.39-12.21-13.2-26.57,38.42-30.64,86.33-76.73,125.23-139.01,10.34,4.49,21.33,8.62,31.31,11.52h0c27.65,8.06,35.94,6.15,54.53-2.09t.01,0c57.97-25.52,92.49-83.67,95.76-117.4.02-.03.05-.05.07-.07.7-7.73-.51-12.16-.61-12.83,4.28-4.62,9.41-10.31,15.05-16.72,8.16,7.12,13.13,11.45,13.77,12.01,7.21,6.31,18.15,5.55,24.46-1.66l191.35-219.41,77,194.06c12.33,31.08,37.08,39.04,69.16,49.47.1.04,132.74,48.81,132.84,48.84,15.18,6.13,32.58,6.9,49.15.94l473.88-170.42c35.03-12.6,53.75-50.72,42.3-86.15l-10.32-31.9,2.31-.83c9.86-3.55,18.21-9.47,24.62-16.89,13.02-15.08,18.04-36.38,11.48-56.65Z"/>
    <g>
      <g>
        <g>
          <path class="cls-8" d="M1699.55,515.39l358.84,1106.69c-6.41,7.43-14.76,13.35-24.62,16.89l-13.73,4.94-360.27-1114.22,39.78-14.31Z"/>
          <path class="cls-3" d="M1737.42,537.18l332.46,1028.24c6.56,20.28,1.54,41.57-11.48,56.65l-358.84-1106.69c15.25-5.49,32.21,4.3,37.87,21.8Z"/>
        </g>
        <path class="cls-3" d="M1999.48,1757.86l-473.88,170.42c-35.03,12.6-73.75-4.87-87.48-39.48l-466.85-1176.56c-7.94-20.02.07-41.51,17.93-47.94l618.8-222.54c17.86-6.42,37.73,5.04,44.35,25.53l389.42,1204.41c11.45,35.43-7.26,73.55-42.3,86.15Z"/>
        <path class="cls-8" d="M1625.75,512.88l208.27,630.42c10.14,30.7-4.02,64.17-33.11,78.27l-37.94,18.38c-123.03,59.62-252.05,106.02-384.87,138.41l-40.97,9.99c-31.41,7.66-63.65-9.12-75.38-39.25l-240.94-618.67,53.7-79.2,459.41-165.22,91.84,26.86Z"/>
        <path class="cls-8" d="M2002.7,1671.63l3.72,11.51c5.32,16.45-3.26,33.9-19.52,39.75l-473.88,170.42c-16.27,5.85-34-2.14-40.37-18.21l-4.48-11.28c8.2,10.94,22.79,15.62,36.39,10.73l476.89-171.51c13.59-4.89,21.87-17.77,21.24-31.42Z"/>
        <path class="cls-5" d="M1751.74,1021.78l-503.95,181.24c-7.58,2.73-15.93-1.21-18.66-8.79l-108.94-302.93c-2.73-7.58,1.21-15.93,8.79-18.66l503.95-181.24c7.58-2.73,15.93,1.21,18.66,8.79l108.94,302.93c2.73,7.58-1.21,15.93-8.79,18.66Z"/>
        <g>
          <path class="cls-1" d="M1160.73,790.67l-21.56,7.75c-6.11,2.2-12.85-.98-15.05-7.09h0c-2.2-6.11.98-12.85,7.09-15.05l21.56-7.75c6.11-2.2,12.85.98,15.05,7.09h0c2.2,6.11-.98,12.85-7.09,15.05Z"/>
          <path class="cls-1" d="M1299.75,740.67l-21.56,7.75c-6.11,2.2-12.85-.98-15.05-7.09h0c-2.2-6.11.98-12.85,7.09-15.05l21.56-7.75c6.11-2.2,12.85.98,15.05,7.09h0c2.2,6.11-.98,12.85-7.09,15.05Z"/>
          <path class="cls-1" d="M1438.77,690.67l-21.56,7.75c-6.11,2.2-12.85-.98-15.05-7.09h0c-2.2-6.11.98-12.85,7.09-15.05l21.56-7.75c6.11-2.2,12.85.98,15.05,7.09h0c2.2,6.11-.98,12.85-7.09,15.05Z"/>
          <path class="cls-1" d="M1577.79,640.68l-21.56,7.75c-6.11,2.2-12.85-.98-15.05-7.09h0c-2.2-6.11.98-12.85,7.09-15.05l21.56-7.75c6.11-2.2,12.85.98,15.05,7.09h0c2.2,6.11-.98,12.85-7.09,15.05Z"/>
        </g>
        <path class="cls-3" d="M1650.16,1260.31c-6.21,2.64-13.37-.49-15.66-6.85l-21.55-59.93c-2.2-6.11.97-12.85,7.09-15.05l57.7-20.75c6.11-2.2,12.85.97,15.05,7.09l20.75,57.7c1.54,4.28-.46,9.02-4.59,10.91l-58.78,26.87Z"/>
        <path class="cls-3" d="M1478.02,1322.22c6.47-1.92,9.99-8.9,7.71-15.25l-21.55-59.92c-2.2-6.11-8.93-9.28-15.05-7.09l-57.7,20.75c-6.11,2.2-9.28,8.93-7.09,15.05l20.75,57.7c1.54,4.28,6.1,6.66,10.49,5.49l62.43-16.72Z"/>
        <path class="cls-3" d="M1805.55,1128.32l9.41,26.16c3.19,8.86-.16,18.72-8.07,23.82-20.94,13.44-44.9,27.4-70.07,40.53-5.09,2.66-11.37.2-13.32-5.2l-19.83-55.14c-1.77-4.93.79-10.36,5.72-12.13l76.24-27.42c8.09-2.91,17.01,1.29,19.92,9.38Z"/>
        <path class="cls-3" d="M1274.16,1319.43l9.41,26.16c3.19,8.86,12.05,14.33,21.39,13.22,24.71-2.97,52.07-7.48,79.84-13.38,5.62-1.19,8.9-7.09,6.95-12.49l-19.83-55.14c-1.77-4.93-7.21-7.49-12.13-5.72l-76.24,27.42c-8.09,2.91-12.29,11.83-9.38,19.92Z"/>
        <path class="cls-3" d="M1499.63,1184.56h97.01c7.63,0,13.83,6.2,13.83,13.83v97.01c0,7.63-6.2,13.83-13.83,13.83h-97.01c-7.63,0-13.83-6.2-13.83-13.83v-97.01c0-7.63,6.2-13.83,13.83-13.83Z" transform="translate(-330.62 597.48) rotate(-19.78)"/>
        <rect class="cls-8" x="1514.28" y="1222.43" width="67.7" height="48.92" rx="6.38" ry="6.38" transform="translate(-330.62 597.48) rotate(-19.78)"/>
        <path class="cls-8" d="M1327.97,1434.93c40.14-10.55,80.05-21.91,119.71-34.07,5.36-1.64,11.06,1.2,12.95,6.47l15.44,42.94c2.02,5.63-1.06,11.83-6.78,13.58-39.44,12.13-79.13,23.48-119.06,34.04-5.13,1.36-10.48-1.35-12.44-6.28l-16.93-42.67c-2.32-5.86,1.01-12.41,7.1-14.01Z"/>
        <path class="cls-8" d="M1360.43,1516.7c40.14-10.55,80.05-21.91,119.71-34.07,5.36-1.64,11.06,1.2,12.95,6.47l15.44,42.94c2.02,5.63-1.06,11.83-6.78,13.58-39.44,12.13-79.13,23.48-119.06,34.04-5.13,1.36-10.48-1.35-12.44-6.28l-16.93-42.67c-2.32-5.86,1.01-12.41,7.1-14.01Z"/>
        <path class="cls-8" d="M1392.9,1598.47c40.14-10.55,80.05-21.91,119.71-34.07,5.36-1.64,11.06,1.2,12.95,6.47l15.44,42.94c2.02,5.63-1.06,11.83-6.78,13.58-39.44,12.13-79.13,23.48-119.06,34.04-5.13,1.36-10.48-1.35-12.44-6.28l-16.93-42.67c-2.32-5.86,1.01-12.41,7.1-14.01Z"/>
        <path class="cls-8" d="M1425.36,1680.24c40.14-10.55,80.05-21.91,119.71-34.07,5.36-1.64,11.06,1.2,12.95,6.47l15.44,42.94c2.02,5.63-1.06,11.83-6.78,13.58-39.44,12.13-79.13,23.48-119.06,34.04-5.13,1.36-10.48-1.35-12.44-6.28l-16.93-42.67c-2.32-5.86,1.01-12.41,7.1-14.01Z"/>
        <path class="cls-8" d="M1864.68,1335.36c-37.66,17.43-75.66,34.09-113.99,49.98-5.18,2.15-7.76,7.96-5.87,13.24l15.44,42.94c2.02,5.63,8.35,8.44,13.88,6.16,38.13-15.77,75.96-32.3,113.47-49.58,4.82-2.22,7.22-7.71,5.58-12.76l-14.12-43.68c-1.94-5.99-8.68-8.93-14.4-6.28Z"/>
        <path class="cls-8" d="M1891.73,1419.07c-37.66,17.43-75.66,34.09-113.99,49.98-5.18,2.15-7.76,7.96-5.87,13.24l15.44,42.94c2.02,5.63,8.35,8.44,13.88,6.16,38.13-15.77,75.96-32.3,113.47-49.58,4.82-2.22,7.22-7.71,5.58-12.76l-14.12-43.68c-1.94-5.99-8.68-8.93-14.4-6.28Z"/>
        <path class="cls-8" d="M1918.78,1502.79c-37.66,17.43-75.66,34.09-113.98,49.98-5.18,2.15-7.76,7.96-5.87,13.24l15.44,42.94c2.02,5.63,8.35,8.44,13.88,6.16,38.13-15.77,75.96-32.3,113.47-49.58,4.82-2.22,7.22-7.71,5.58-12.76l-14.12-43.68c-1.94-6-8.68-8.93-14.4-6.28Z"/>
        <path class="cls-8" d="M1837.63,1251.64c-37.66,17.43-75.66,34.09-113.99,49.98-5.18,2.15-7.76,7.96-5.87,13.24l15.44,42.94c2.02,5.63,8.35,8.44,13.88,6.16,38.13-15.77,75.96-32.3,113.47-49.58,4.82-2.22,7.22-7.71,5.58-12.76l-14.12-43.68c-1.94-6-8.68-8.93-14.4-6.28Z"/>
        <path class="cls-8" d="M1664.38,1337.74l14.96,41.6c2.06,5.72-.83,12.04-6.5,14.22-42.15,16.2-84.64,31.48-127.45,45.84-5.76,1.93-12.01-1.11-14.07-6.83l-14.96-41.6c-2.12-5.9,1.03-12.38,6.98-14.38,42.49-14.24,84.67-29.41,126.5-45.49,5.86-2.25,12.42.73,14.54,6.64Z"/>
        <path class="cls-8" d="M1695,1422.88l14.96,41.6c2.06,5.72-.83,12.04-6.5,14.22-42.15,16.2-84.64,31.48-127.45,45.84-5.76,1.93-12.01-1.11-14.07-6.83l-14.96-41.6c-2.12-5.9,1.03-12.38,6.98-14.38,42.49-14.24,84.67-29.41,126.5-45.49,5.86-2.25,12.42.74,14.54,6.64Z"/>
        <path class="cls-8" d="M1725.62,1508.03l14.96,41.6c2.06,5.72-.83,12.04-6.5,14.22-42.15,16.2-84.64,31.48-127.45,45.84-5.76,1.93-12.01-1.11-14.07-6.83l-14.96-41.6c-2.12-5.9,1.03-12.38,6.98-14.38,42.49-14.24,84.67-29.41,126.5-45.49,5.86-2.25,12.42.73,14.54,6.64Z"/>
        <path class="cls-8" d="M1756.24,1593.17l14.96,41.6c2.06,5.72-.83,12.04-6.5,14.23-42.15,16.2-84.64,31.48-127.45,45.84-5.76,1.93-12.01-1.11-14.07-6.83l-14.96-41.6c-2.12-5.9,1.03-12.38,6.98-14.38,42.49-14.24,84.67-29.41,126.5-45.49,5.86-2.25,12.42.73,14.54,6.64Z"/>
        <path class="cls-9" d="M1459.67,1775.62c40.14-10.55,80.05-21.91,119.71-34.07,5.36-1.64,11.06,1.2,12.95,6.47l15.44,42.94c2.02,5.63-1.06,11.83-6.78,13.58-39.44,12.13-79.13,23.48-119.06,34.04-5.13,1.36-10.48-1.35-12.44-6.28l-16.93-42.67c-2.32-5.86,1.01-12.41,7.1-14.01Z"/>
        <path class="cls-1" d="M1953.08,1598.17c-37.66,17.43-75.66,34.09-113.99,49.98-5.18,2.15-7.76,7.96-5.87,13.24l15.44,42.94c2.02,5.63,8.35,8.44,13.88,6.16,38.13-15.77,75.96-32.3,113.47-49.58,4.82-2.22,7.22-7.71,5.58-12.76l-14.12-43.68c-1.94-5.99-8.68-8.93-14.4-6.28Z"/>
        <path class="cls-10" d="M1790.55,1688.55l14.96,41.6c2.06,5.72-.83,12.04-6.5,14.23-42.15,16.2-84.64,31.48-127.45,45.84-5.76,1.93-12.01-1.11-14.07-6.83l-14.96-41.6c-2.12-5.9,1.03-12.38,6.98-14.38,42.49-14.24,84.67-29.41,126.5-45.49,5.86-2.25,12.42.73,14.54,6.64Z"/>
        <path class="cls-3" d="M1625.76,512.87c-28.21-.5-156.78,37.63-308.45,92.18-151.67,54.54-275.05,107.03-296.51,125.39l-47.22-211.37c-3.59-9.98,117.51-62.66,270.48-117.68,152.96-55.01,279.88-91.52,283.47-81.54l98.23,193.02Z"/>
        <path class="cls-8" d="M1625.76,512.87s-149.51-31.78-578.73,167.46c-1.6-7.16,8.62,38.57-34.36-153.81,169.78-121.39,514.87-206.67,514.87-206.67-3.59-9.98-130.51,26.53-283.47,81.54-16.66,5.99-276.39,101.27-270.48,117.68l40.13,179.63s0,0,0,0l7.1,31.73c46.79-39.98,536.15-218.79,604.96-217.56Z"/>
        <polygon class="cls-8" points="1485.37 528.48 1465.4 424.67 1516.11 517.43 1485.37 528.48"/>
        <polygon class="cls-8" points="1531.06 1292.93 1566.99 1299.34 1590.61 1271.51 1531.06 1292.93"/>
        <polygon class="cls-8" points="1505.65 1222.27 1529.27 1194.45 1565.2 1200.86 1505.65 1222.27"/>
        <polygon class="cls-19" points="1616.68 1188.64 1645.25 1211.97 1638.08 1248.14 1616.68 1188.64"/>
        <polygon class="cls-19" points="1458.19 1245.64 1451.02 1281.82 1479.58 1305.14 1458.19 1245.64"/>
        <path class="cls-19" d="M1364.23,1307.19l16.16-5.81,3.72,10.35-16.16,5.81c-2.86,1.03-6.01-.46-7.04-3.31-.51-1.42-.4-2.94.2-4.2.61-1.27,1.68-2.32,3.11-2.83Z"/>
        <path class="cls-19" d="M1412.08,1295.82c1.03,2.86-.46,6.01-3.31,7.04l-12.99,4.67-3.72-10.35,12.99-4.67c2.86-1.03,6.01.46,7.04,3.31Z"/>
        <path class="cls-19" d="M1687.51,1190.92l12.98-4.67,3.72,10.35-12.98,4.67c-2.86,1.03-6.01-.46-7.04-3.31-.51-1.42-.4-2.94.2-4.2.61-1.27,1.68-2.32,3.11-2.83Z"/>
        <path class="cls-19" d="M1735.36,1179.56c1.03,2.86-.46,6.01-3.31,7.04l-16.18,5.82-3.72-10.35,16.18-5.82c2.86-1.03,6.01.46,7.04,3.31Z"/>
        <path class="cls-19" d="M1385.24,1479.6l-9.92,3.57-13.45-37.4c-2.41,4.69-5.78,8.74-10.11,12.13l-3.24-9.01c4.49-3.49,9.99-11.19,9.98-18.39l8.05-2.9,18.7,51.99Z"/>
        <path class="cls-19" d="M1580.02,1411.08l3.31,9.22-34.79,12.51c-4.55-18.78,15.6-34.58,11.57-45.8-1.62-4.5-5.06-5.96-9.19-4.47-4.86,1.75-5.6,5.62-4.15,10.63l-10.24,2.57c-6.38-26.28,35.27-32.18,34.43-5.9-.36,11.24-9.27,20.69-10.65,28.34l19.71-7.09Z"/>
        <path class="cls-19" d="M1742.08,1342.71l9.19-4.62c5.2,10.26,18.15,4.55,14.24-6.32-2.1-5.85-7.06-8.29-14.13-3.25l-1.81-8.48c5.7-1.88,7.25-5.8,5.86-9.65-2.66-7.4-14.14-4.4-11.79,5.6l-9.71,1.74c-.49-3.36-.43-6.21.18-8.54,3.35-12.83,25.91-17.28,31.06-2.97,1.63,4.54.45,9.06-3.54,13.56,17.19-2.32,22,24.51,2.73,31.44-4.69,1.68-9.05,1.73-13.11.15-4.05-1.59-7.11-4.47-9.17-8.65Z"/>
        <path class="cls-19" d="M1408.92,1564.53l-3.75-10.42-21.19,7.62-3.12-8.69,10.64-40.96,8.33-3,11.81,32.84,6.43-2.31,3.14,8.72-6.43,2.31,3.75,10.42-9.61,3.45ZM1402.03,1545.39l-6.36-17.69-5.54,21.97,11.9-4.28Z"/>
        <path class="cls-19" d="M1574.07,1503.57l9.52-4.58c3.56,7,11.92,6.47,14.28.23,1.61-4.25-1.08-12.5-5.29-14.77-3.94-2.12-9.98-.61-12.72,6.15l-8.47,1.73-4.61-28.78,26.24-9.44,3.34,9.29-18.72,6.73,1.61,9.35c1.81-1.9,3.88-3.27,6.18-4.1,21.4-7.7,34.04,27.88,10.83,36.23-4.78,1.72-9.14,1.84-13.07.35-3.94-1.48-6.98-4.28-9.12-8.4Z"/>
        <path class="cls-19" d="M1793.62,1389.01l-9.23,4.51c-1.68-3.37-4.24-5.02-7.77-3.75-6.62,2.38-4.77,10.72-2.81,17.48,1.42-3.81,3.97-6.37,7.64-7.69,19.86-7.14,33.33,26.98,10.86,35.06-22.85,8.22-33.77-30.2-29.43-42.02,3.77-10.26,14.97-14.21,22.36-11.41,3.37,1.27,6.16,3.88,8.38,7.82ZM1783.82,1425.42c4.42,2.55,8.5.58,9.85-3,1.44-3.81-1.54-12.2-5.34-14.41-3.74-2.17-8.23-.61-9.82,3.41-.78,1.97,1.18,11.62,5.31,14Z"/>
        <path class="cls-19" d="M1406.62,1611.02l-3.32-9.22,33.94-12.21,2.59,7.2c-6.07,12.6-7.2,34.91-1.64,50.12l-9.57,3.44c-5.01-14.99-4.37-32.91.56-47.46l-22.57,8.12Z"/>
        <path class="cls-19" d="M1608.61,1571.27c-13.13-.71-18.85-20.38-.46-27,18.2-6.55,26.51,12.09,17.05,21.03,3.29.12,6.08,1.02,8.37,2.69,5.48,4.01,8.07,13.01,4.62,20.16-4.02,8.32-15.65,12.06-23.65,9.38-8.18-2.74-11.91-11.44-10.55-18.48.55-2.84,2.09-5.44,4.62-7.78ZM1618.52,1588.68c3.92,2.06,8.72.32,10.36-3.63,1.49-3.58-.25-10.04-4.43-12.21-4.08-2.11-9.4.15-10.5,4.12-.59,2.1,1.3,10,4.57,11.72ZM1610.41,1564.56c3.07,1.43,7.52-.19,8.98-3.25,1.4-2.92-.04-7.6-3.26-9.12-3.17-1.49-7.57.25-8.98,3.25-.72,1.54.35,7.77,3.26,9.12Z"/>
        <path class="cls-19" d="M1797.64,1511.62l9.23-4.51c1.71,3.41,4.28,4.96,7.83,3.69,6.52-2.34,4.64-10.78,2.75-17.42-4.69,12.24-23.21,11.88-28.88-3.89-6.55-18.22,12.06-29.93,25.42-22.04,10.38,6.13,27.14,43.11,2.92,51.82-4.05,1.46-7.71,1.56-10.98.3-3.27-1.26-6.03-3.9-8.28-7.93ZM1801.36,1474.38c-4.82,1.73-4.8,6.73-3.05,11.59,1.82,5.06,5.35,9.04,10.41,7.22,7.73-2.78,1.87-22.13-7.36-18.81Z"/>
        <path class="cls-19" d="M1638.96,1629.36c22.17-7.97,32.63,32.06,28.83,43.35-3,8.89-14.81,13.82-24.09,8.09-8.76-5.41-27.3-43.33-4.74-51.44ZM1638.41,1644.79c.44,5.14,7.16,27.19,13,29.23,3.27,1.14,7.69-.72,7.11-7.22-.37-4.46-6.85-27.01-13-29.21-3.11-1.11-7.72.52-7.12,7.21Z"/>
        <path class="cls-19" d="M1472.79,1728.33l-16.3-45.32,31.07-11.17,2.76,7.67-21.92,7.88,3.86,10.73,18.92-6.8,2.76,7.67-18.92,6.8,6.93,19.26-9.15,3.29Z"/>
        <path class="cls-19" d="M1512.8,1811.3l8.4-17.83-17.97-8.47,5.8-12.31,17.97,8.47,8.4-17.83,11.98,5.64-8.4,17.83,18.02,8.49-5.8,12.31-18.02-8.49-8.4,17.83-11.98-5.64Z"/>
        <path class="cls-19" d="M1704,1768.45l5.8-12.31-17.98-8.46,8.4-17.84-11.98-5.64-14.21,30.14,29.96,14.11Z"/>
        <path class="cls-19" d="M1865.51,1646.7c10.02-9.25,32.39-13.27,40.98,10.62,9.85,27.39-18.23,39.14-32.9,31.93-5.65-2.77-24.3-27.71-8.08-42.55ZM1870.73,1670.07c6.4,17.81,22.74,13.83,26.66,4.08,3.35-8.33-3.57-30.59-19.44-24.88-3.9,1.4-6.56,3.87-7.99,7.41-1.43,3.53-1.17,8,.77,13.39Z"/>
        <path class="cls-19" d="M1411.55,1455.05c1.3.37,2.64.55,4.01.55l-.48,3.54c-1.89.1-2.99-.29-5.62-.96-4.11,3.88-14.38,6.55-18.39-4.58-2.54-7.06.23-12.29,6.28-14.46,10.76-3.87,17.13,8.15,14.2,15.9ZM1407.31,1453.88c1.56-4.14-1.84-13.58-8.68-11.12-8.98,3.23-.73,19.86,6.7,13.62-1.06-.25-2.08-.38-3.08-.37l.32-2.83c1.56-.02,3.14.21,4.75.71Z"/>
        <path class="cls-19" d="M1842.81,1500.13l-12.5-19.1,4.32-1.55,8.31,13.22-1.34-15.73,5.02-1.8,8.91,13.28-2.04-15.75,4.25-1.53,2.44,22.72-4.48,1.61-9.78-14.13,1.47,17.11-4.58,1.65Z"/>
        <path class="cls-19" d="M1808.93,1314.33l-7.51-20.9,15.49-5.57,1.27,3.53-11.27,4.05,1.67,4.63,10.49-3.77,1.27,3.52-10.49,3.77,2.05,5.69,11.67-4.2,1.27,3.52-15.89,5.72Z"/>
        <path class="cls-19" d="M1474.96,1627.49l-7.51-20.9c7.17-2.46,11.3-4.41,13.95-4.38,5.14.05,8.78,8.19,1.82,11.89,4.39.81,6.66,3.99,10.53,6.63l-5.05,1.81c-10.25-7.56-8.28-6.51-12.66-5.3l3.14,8.72-4.22,1.52ZM1474.84,1613.91c5.11-1.91,8.76-2.4,7.55-5.77-1.03-2.87-3.63-1.63-6.16-.71l-3.29,1.18,1.91,5.3Z"/>
        <path class="cls-19" d="M1896.87,1467.74l-3.16-8.79-12.01-9.35,4.95-1.78,7.89,6.5,1.84-10,4.86-1.75-3.32,14.89,3.15,8.77-4.2,1.51Z"/>
        <path class="cls-19" d="M1485.2,1534.03l-7.51-20.9,4.22-1.52,7.51,20.9-4.22,1.52Z"/>
        <path class="cls-19" d="M1852.2,1363.42c4.46-4.12,14.45-5.88,18.27,4.73,4.36,12.13-8.04,17.49-14.67,14.23-2.52-1.24-10.83-12.35-3.6-18.96ZM1862.93,1378.96c6.81-2.45,3.26-12.17-.36-14.13-2.96-1.61-7.09-.15-8.38,3.04-.64,1.58,1.96,13.53,8.74,11.1Z"/>
        <path class="cls-19" d="M1450.31,1632.12l-7.51-20.9c4.94-1.72,10.01-3.77,11.9-3.93,2.58-.23,5.21,1.23,6.42,4.6.91,2.52.53,4.63-.57,6.18-1.66,2.33-3.79,2.79-8.85,4.64l2.83,7.88-4.22,1.52ZM1448.29,1613.24l2.13,5.93c3.48-1.34,7.64-2.11,6.37-5.65-1.21-3.37-4.63-1.74-8.5-.27Z"/>
        <path class="cls-19" d="M1498.89,1616.12l3.96-1.88c1.4,2.43,3.28,3.34,6,2.36,2.01-.72,3.79-2.34,3.07-4.36-1.18-3.27-7.71.2-11.94-1.52-4.88-1.98-5.91-9.21,2.09-12.08,5.46-1.96,8.85-.16,10.29,3.45l-4.15,1.7c-1.17-2.08-2.63-2.47-4.92-1.64-1.23.44-2.1,1.04-2.61,1.79-.63.92-.28,2.15.88,2.58,1.79.66,6.33-.57,9.47-.13,5.27.74,7.47,7.6,3.33,11.39-2.31,2.11-7.55,4.09-11.02,2.75-1.86-.71-3.34-2.19-4.46-4.43Z"/>
        <path class="cls-19" d="M1778.48,1304.53c8.12-2.81,13.83-6.68,18.89-.35,1.72,2.15,3.37,6.3,3.42,9.37.05,3.43-1.09,5.55-3.28,7.23-.83.63-2.02,1.22-3.58,1.78l-7.94,2.86-7.51-20.9ZM1783.97,1306.55l4.98,13.84c4.58-1.71,7.6-2.01,7.4-6.15-.1-2.1-1.51-6.01-2.71-7.55-2.2-2.81-4.47-2.01-7.77-.83l-1.9.68Z"/>
        <path class="cls-19" d="M1832.11,1301.72l-7.51-20.9,14.32-5.15,1.27,3.53-10.11,3.63,1.78,4.95,8.72-3.14,1.27,3.53-8.72,3.14,3.19,8.88-4.22,1.52Z"/>
        <path class="cls-19" d="M1435.99,1534.88l-1.27-3.52,9.09-3.27,2.99,8.32c-3.68,7.5-17.8,11.87-22.29-.61-4.83-13.44,12.3-20.01,17.62-11.52l-3.91,2.29c-3.18-4.41-12.55-1.2-9.43,7.49,2.99,8.31,10.05,6.32,12.97,1.73l-.95-2.65-4.83,1.74Z"/>
        <path class="cls-19" d="M1455.78,1541.92l-7.51-20.9,4.22-1.52,2.96,8.22,8.27-2.97-2.96-8.22,4.22-1.52,7.51,20.9-4.22,1.52-3.29-9.14-8.27,2.97,3.29,9.14-4.22,1.52Z"/>
        <path class="cls-19" d="M1623.36,1460.52l4.2-1.51c5.16,14.79,7.24,17.4,4.57,21.11-1.96,2.72-9.75,6.35-12.74-1.86l3.81-1.89c.8,1.96,1.84,3.47,3.93,2.73,2.4-.86,1.98-2.61,1.09-5.08l-4.85-13.5Z"/>
        <path class="cls-19" d="M1643.65,1477.04l-7.51-20.9,4.22-1.52,3.34,9.28,5.19-12.34,5.67-2.04-4.94,10.97,12.88,9.77-5.46,1.96-9.27-7.74-2.16,4.72,2.27,6.31-4.22,1.52Z"/>
        <path class="cls-19" d="M1670.67,1467.23l-7.45-20.72,4.22-1.52,6.19,17.2,10.49-3.77,1.27,3.52-14.71,5.29Z"/>
        <path class="cls-19" d="M1428.59,1457.25l-1.37-3.81,6.1-17.5-9.74,3.5-1.27-3.53,15.29-5.5,1.18,3.28-6.38,18.21,11.89-4.28,1.27,3.52-16.98,6.11Z"/>
        <path class="cls-19" d="M1867.77,1484.35l3.22-13.47-10.06-7.66,4.93-1.77,6.6,5.21,1.69-8.19,4.89-1.76-2.85,12.49,11.01,8.18-5.09,1.83-7.23-5.56-2.05,8.9-5.06,1.82Z"/>
        <g>
          <path class="cls-19" d="M1655.05,1568.9l-6.24-17.36-6.2,2.23-1.27-3.53,16.61-5.97,1.27,3.53-6.19,2.22,6.24,17.36-4.22,1.52Z"/>
          <path class="cls-19" d="M1663.44,1542.28l4.22-1.52c3.47,9.54,4.77,13.56,5.48,14.75.93,1.51,2.66,2.25,5.1,1.37,2.42-.87,3.15-2.42,2.89-3.91-.32-1.84-1.6-4.9-5.25-15.18l4.22-1.52,3.95,10.98c1.05,2.92,2.23,5.95,1.25,8.52-.93,2.44-3.19,3.79-5.64,4.67-8.04,2.89-10.1-1.15-12.22-7.02l-4.01-11.15Z"/>
          <path class="cls-19" d="M1698.01,1553.45l-14.98-18.21,4.58-1.65,10.85,13.56-.44-17.31,4.48-1.61.03,23.59-4.5,1.62Z"/>
        </g>
        <g>
          <path class="cls-19" d="M1608.34,1393.59l-4.59,1.65-3.53-4.09-8.35,3-.02,5.37-4.48,1.61.62-23.82,4.46-1.6,15.88,17.89ZM1597.6,1388.12l-5.67-6.72-.03,8.77,5.7-2.05Z"/>
          <path class="cls-19" d="M1645.92,1371.4l4.56-.17c.87,11.24-14.97,15.53-19.6,2.67-4.85-13.48,10.46-19.67,16.39-11.4l-3.82,2.5c-1.26-1.97-3.39-2.74-5.67-1.92-3.87,1.39-4.08,5.05-2.67,8.95,2.97,8.26,8.73,6.18,10.28,3.37.55-1,.73-2.33.53-3.99Z"/>
          <path class="cls-19" d="M1605.75,1370.94c10.3-3.73,12.24-4.66,14.62-4.05,4.09,1.06,5.44,6.06,2.45,8.97,6.8-.42,8.44,8.59,2.6,11.44-1.82.89-9.57,3.59-12.15,4.53l-7.51-20.9ZM1611.22,1372.9l1.74,4.83c5.44-1.83,6.66-2.3,7.24-3.53.66-1.4-.32-3.99-2.92-3.4-.89.21-4.65,1.6-6.05,2.1ZM1614.21,1381.21l2.01,5.59c6.18-2.13,7.41-2.53,7.99-3.96.56-1.39-.35-3.93-2.74-3.9-1.37.02-5.03,1.51-7.26,2.27Z"/>
        </g>
        <path class="cls-19" d="M1835.01,1398.94l-7.51-20.9,4.1-1.48,13.57,10.88-5.02-13.95,3.92-1.41,7.51,20.9-4.23,1.52-13.32-10.6,4.9,13.63-3.92,1.41Z"/>
        <path class="cls-19" d="M1809.86,1412.2l-7.51-20.9,6.31-2.27,8.92,12.89-1.38-15.6,6.33-2.28,7.51,20.9-3.92,1.41-5.92-16.45,1.77,17.94-4.06,1.46-10.05-14.96,5.92,16.45-3.92,1.41Z"/>
        <rect class="cls-19" x="1678.06" y="1655.05" width="29.57" height="4.18" transform="translate(-460.92 670.66) rotate(-19.78)"/>
        <polygon class="cls-19" points="1742.61 1632.65 1745.41 1640.46 1717.59 1650.47 1714.78 1642.66 1718.72 1641.24 1720.11 1645.11 1740.06 1637.94 1738.67 1634.07 1742.61 1632.65"/>
        <path class="cls-19" d="M1851.31,1584.9c1.31,3.65-.58,7.67-4.23,8.98-3.65,1.31-7.67-.58-8.98-4.23s.58-7.67,4.23-8.98c3.65-1.31,7.67.58,8.98,4.23Z"/>
        <polygon class="cls-20" points="1272.36 821.08 1218.07 1163.47 1180.44 1058.84 1214.86 841.75 1272.36 821.08"/>
        <g>
          <path class="cls-9" d="M1386.6,797.76c-82.54,29.69-125.39,120.67-95.7,203.21,29.69,82.54,120.66,125.39,203.2,95.7,82.54-29.69,125.4-120.66,95.71-203.2-29.69-82.54-120.67-125.39-203.21-95.71ZM1480.06,1057.63c-60.98,21.93-128.19-9.73-150.12-70.7-21.93-60.98,9.73-128.19,70.7-150.12,60.98-21.93,128.19,9.72,150.12,70.7,21.93,60.98-9.72,128.19-70.7,150.12Z"/>
          <polygon class="cls-9" points="1470.24 936.47 1524.98 962.25 1505.85 1002.89 1451.1 977.1 1425.32 1031.85 1384.69 1012.71 1410.47 957.97 1355.73 932.19 1374.86 891.55 1429.6 917.33 1455.39 862.59 1496.02 881.74 1470.24 936.47"/>
        </g>
        <g>
          <polygon class="cls-8" points="1091.62 670.09 1071.65 566.28 1122.37 659.03 1091.62 670.09"/>
          <polygon class="cls-8" points="1190.06 634.69 1170.09 530.88 1220.81 623.63 1190.06 634.69"/>
          <polygon class="cls-8" points="1288.5 599.29 1268.52 495.47 1319.24 588.23 1288.5 599.29"/>
          <polygon class="cls-8" points="1386.93 563.88 1366.96 460.07 1417.68 552.83 1386.93 563.88"/>
          <path class="cls-2" d="M1392.31,35.94l175.59,488.24c-57.64,15.12-148.92,44.3-250.59,80.86-99.57,35.81-186.96,70.73-241.3,95.7l-175.48-487.93,41.79,19.67,19.68-41.78,41.79,19.67,19.69-41.78,41.79,19.67,19.68-41.78,41.79,19.67,19.69-41.78,41.78,19.68,19.69-41.78,41.79,19.67,19.69-41.78,41.78,19.68,19.69-41.78,41.79,19.67,19.68-41.78Z"/>
          <path class="cls-5" d="M1559.09,499.68l8.81,24.5c-57.64,15.12-148.92,44.3-250.59,80.86-99.57,35.81-186.96,70.73-241.3,95.7l-173.76-483.15s92.39,243.64,182.99,354.26c10.86,13.26,54.35,53.51,107.28,34.47,102.39-36.82,264.26-84.48,366.56-106.64Z"/>
          <path class="cls-5" d="M990.55,289.11l3.57,9.94c1.73,4.82,7.04,7.32,11.86,5.59l363.51-130.73c4.82-1.73,7.32-7.04,5.59-11.86l-3.57-9.94c-1.73-4.82-7.04-7.32-11.86-5.59l-363.51,130.73c-4.82,1.73-7.32,7.04-5.59,11.86Z"/>
          <path class="cls-5" d="M1330.11,212.93l-268.91,96.71c-4.82,1.73-7.32,7.04-5.59,11.86l3.57,9.94c1.73,4.82,7.04,7.32,11.86,5.59l268.91-96.71c4.82-1.73,7.32-7.04,5.59-11.86l-3.57-9.94c-1.73-4.82-7.04-7.32-11.86-5.59Z"/>
          <rect class="cls-5" x="1149.23" y="309.83" width="138.24" height="29.1" rx="9.27" ry="9.27" transform="translate(-37.89 431.45) rotate(-19.78)"/>
          <rect class="cls-5" x="1078.8" y="452.07" width="108.62" height="29.1" rx="9.27" ry="9.27" transform="translate(-91.05 410.99) rotate(-19.78)"/>
          <path class="cls-5" d="M1185.55,563.64l-4.26-11.84c-1.54-4.29-6.28-6.52-10.57-4.98l-51.1,18.38c-4.29,1.54-6.52,6.27-4.98,10.56,1.33,3.71,2.93,8.14,4.26,11.85,1.54,4.29,6.27,6.52,10.57,4.97l51.1-18.38c4.29-1.54,6.52-6.28,4.98-10.57Z"/>
          <rect class="cls-5" x="1063.84" y="424.39" width="13.4" height="17.87" transform="translate(-83.48 387.85) rotate(-19.78)"/>
          <rect class="cls-5" x="1149.59" y="391.28" width="26.04" height="17.87" transform="translate(-66.84 417.06) rotate(-19.78)"/>
          <rect class="cls-5" x="1100.58" y="408.91" width="26.04" height="17.87" transform="translate(-75.7 401.51) rotate(-19.78)"/>
          <rect class="cls-5" x="1099.37" y="523.2" width="13.4" height="17.87" transform="translate(-114.82 405.71) rotate(-19.78)"/>
          <rect class="cls-5" x="1136.12" y="507.71" width="26.04" height="17.87" transform="translate(-107.04 419.36) rotate(-19.78)"/>
          <rect class="cls-5" x="1185.12" y="490.09" width="26.04" height="17.87" transform="translate(-98.18 434.91) rotate(-19.78)"/>
          <rect class="cls-5" x="1234.13" y="472.46" width="26.04" height="17.87" transform="translate(-89.33 450.46) rotate(-19.78)"/>
          <rect class="cls-5" x="1198.59" y="373.66" width="26.04" height="17.87" transform="translate(-57.99 432.6) rotate(-19.78)"/>
          <rect class="cls-5" x="1243.51" y="357.5" width="26.04" height="17.87" transform="translate(-49.87 446.85) rotate(-19.78)"/>
          <rect class="cls-5" x="1253.6" y="532.2" width="26.04" height="6.7" transform="translate(-106.5 460.24) rotate(-19.78)"/>
          <rect class="cls-5" x="1302.71" y="514.54" width="26.04" height="6.7" transform="translate(-97.63 475.82) rotate(-19.78)"/>
          <rect class="cls-5" x="1216.36" y="428.64" width="26.04" height="6.7" transform="translate(-73.66 441.53) rotate(-19.78)"/>
          <rect class="cls-5" x="1204.6" y="549.82" width="26.04" height="6.7" transform="translate(-115.36 444.7) rotate(-19.78)"/>
          <g>
            <path class="cls-5" d="M1337.96,331.18c-43.71,15.72-66.4,63.9-50.68,107.6,15.72,43.71,63.89,66.4,107.6,50.68,43.71-15.72,66.4-63.89,50.68-107.6-15.72-43.71-63.9-66.4-107.61-50.68ZM1387.45,468.79c-32.29,11.61-67.88-5.15-79.49-37.44-11.61-32.29,5.15-67.88,37.44-79.49,32.29-11.61,67.88,5.15,79.49,37.44,11.61,32.29-5.15,67.88-37.44,79.49Z"/>
            <polygon class="cls-5" points="1382.25 404.63 1411.24 418.28 1401.11 439.8 1372.11 426.15 1358.47 455.14 1336.95 445 1350.6 416.01 1321.62 402.36 1331.75 380.84 1360.73 394.49 1374.39 365.51 1395.9 375.65 1382.25 404.63"/>
          </g>
        </g>
        <path class="cls-20" d="M1636.85,690.58l-62.63,395.05-37.55,13.51,62.74-395.67,33.52-12.06c1.29-.46,2.62-.74,3.92-.83Z"/>
        <polygon class="cls-20" points="1565.97 715.48 1503.25 1111.15 1419.85 1141.14 1482.59 745.47 1565.97 715.48"/>
      </g>
      <polygon class="cls-9" points="1923.2 539.28 1866.9 395.43 1573.07 752.75 1868.51 181.36 1932.85 336.73 2225.18 23 1923.2 539.28"/>
      <polygon class="cls-9" points="817.89 817.89 837.43 664.65 1209.49 939.59 783.69 457.44 759.17 623.8 399.19 390.77 817.89 817.89"/>
      <polygon class="cls-9" points="2030.4 1332.12 2006.81 1203.35 2377.89 1329.8 1910.19 1049.83 1933.12 1190.47 1582.57 1094.77 2030.4 1332.12"/>
    </g>
    <g>
      <g>
        <path class="cls-17" d="M1007.12,1854.72c7.25,31.34-34.39,111.99-110.44,136.06-22.54,7.12-73.6-15.1-94.14-26.7-13.93-85.55,15.85-135.05,94.87-243.84.1.04,163.53,71.59,163.66,71.64-19.83,24.54-40.8,48.66-53.94,62.84Z"/>
        <path class="cls-4" d="M857.36,1987.12c-20.87-6.08-42.94-16.34-54.82-23.04-.07-.47-.15-.93-.22-1.39l31.25-17.42s38.57,6.42,23.8,41.85Z"/>
        <path class="cls-18" d="M888.32,1773.36s14.39-43.94,49.16-9.21c34.76,34.73-24.58-58.9-24.58-58.9l-29.24-3.65,4.66,71.77Z"/>
        <path class="cls-18" d="M950.54,1842.19c34.14-23.73,91.64-35.4,93.5-37.1l-45.85-39.32c-13.21,12.54-23.62,54.08-52.38,68.53-5.63,2.83-11.67,6.6-22.39,7.27-15.43.97-28.86-10.31-31.16-25.6-2.1-14-1.11-28.84-.28-36.78-3.23,22.15-8.7,50.17-17.97,81.21,1.16-.85,2.35-1.65,3.55-2.41,10.02-6.35,21.98-9.02,33.75-7.51,21.2,2.73,31.24-2.74,39.22-8.29Z"/>
        <g>
          <path class="cls-9" d="M1174.85,1150.52c50.28,43.85,267.63,233.42,267.58,233.37,7.23,6.31,7.99,17.24,1.7,24.46l-383.72,440c-6.31,7.21-17.25,7.97-24.45,1.66-4.88-4.26-259.98-226.69-267.62-233.35-7.23-6.32-7.96-17.27-1.66-24.49,17.25-19.78,367.61-421.51,383.72-439.98,6.29-7.21,17.23-7.97,24.47-1.67Z"/>
          <g>
            <path class="cls-15" d="M1262.71,1390.08c-2.15-1.82-3.6-4.46-3.85-7.48-2.2-26.64-14.64-50.83-35.03-68.11-20.39-17.28-46.29-25.59-72.93-23.39-6.05.5-11.36-4-11.86-10.05-.5-6.05,4-11.36,10.05-11.86,32.49-2.68,64.09,7.45,88.96,28.52,24.87,21.08,40.05,50.58,42.73,83.07.5,6.05-4,11.36-10.05,11.86-3.03.25-5.87-.75-8.01-2.57Z"/>
            <path class="cls-15" d="M1139.98,1253.48c-2.15-1.82-3.6-4.46-3.85-7.48-.5-6.05,4-11.36,10.05-11.86,42.61-3.52,83.8,9.97,115.96,37.95,15.31,13.32,27.77,29.2,37.04,47.21,9.49,18.42,15.15,38.14,16.82,58.6.49,6.05-4.01,11.36-10.06,11.85-6.05.5-11.36-4.01-11.85-10.06-2.83-34.65-19.74-67.82-46.39-91.01-27.65-24.06-63.06-35.65-99.71-32.62-3.03.25-5.87-.75-8.01-2.57Z"/>
            <path class="cls-15" d="M1227.61,1392.98c-2.15-1.82-3.6-4.46-3.85-7.48-1.43-17.3-9.48-32.98-22.68-44.17s-29.99-16.56-47.29-15.13c-6.05.5-11.36-4-11.86-10.05-.5-6.05,4-11.36,10.05-11.86,23.15-1.91,45.64,5.29,63.31,20.27,17.68,14.98,28.47,35.98,30.38,59.13.5,6.05-4,11.36-10.05,11.86-3.03.25-5.87-.75-8.01-2.57Z"/>
            <path class="cls-15" d="M1192.56,1395.88c-2.15-1.82-3.6-4.46-3.85-7.48-.65-7.92-4.34-15.1-10.38-20.22-6.04-5.12-13.73-7.58-21.65-6.92-6.05.5-11.36-4-11.86-10.05-.5-6.05,4-11.36,10.05-11.86,13.77-1.14,27.15,3.15,37.67,12.06,10.52,8.92,16.94,21.41,18.08,35.18.5,6.05-4,11.36-10.05,11.86-3.03.25-5.87-.75-8.01-2.57Z"/>
          </g>
          <g>
            <path class="cls-15" d="M1076.05,1760.83c1.6,1.39,1.76,3.81.37,5.41l-10.32,11.83c-1.39,1.6-3.81,1.76-5.41.37-1.59-1.38-1.75-3.8-.36-5.4l2.65-3.04-20-17.44-3.53,4.04c-3.32,3.8-9.08-1.22-5.76-5.03l8.55-9.81,25.76,22.47,2.65-3.04c1.39-1.6,3.81-1.76,5.39-.38Z"/>
            <path class="cls-15" d="M1075.62,1709.74l10.68,9.31c2.86,2.5,3.17,6.86.68,9.72l-9.56,10.96,6.8,5.93,10.23-11.73c1.38-1.59,3.8-1.75,5.38-.37,1.6,1.39,1.76,3.81.38,5.39l-12.43,14.25c-1.56,1.79-4.27,1.97-6.07.4l-11.83-10.32c-1.79-1.56-1.97-4.27-.41-6.06l11.26-12.91-7.44-6.49-9,10.32c-1.39,1.6-3.81,1.76-5.41.37-1.59-1.38-1.75-3.8-.36-5.4l11.33-12.99c1.49-1.71,4.08-1.88,5.78-.4Z"/>
            <path class="cls-15" d="M1100.74,1685.23l9.97,8.69.07,1.08,1.08-.07,9.98,8.7c2.87,2.51,3.17,6.88.67,9.76l-10.7,12.26c-1.38,1.59-3.82,1.75-5.41.37-1.6-1.39-1.77-3.83-.38-5.42l10.2-11.7-7-6.1h-.15s-6.87,7.88-6.87,7.88c-3.34,3.83-9.13-1.22-5.79-5.05l6.87-7.87v-.15s-7.02-6.12-7.02-6.12l-10.2,11.7c-1.38,1.59-3.81,1.76-5.41.37-1.6-1.39-1.75-3.82-.37-5.41l10.7-12.26c2.51-2.87,6.88-3.17,9.76-.67Z"/>
            <path class="cls-15" d="M1140.69,1676.65l4.98,4.35c1.6,1.39,1.75,3.82.37,5.41-1.38,1.59-3.81,1.76-5.41.37l-4.88-4.25-6.97,7.99c-1.64,1.88-4.49,2.09-6.37.45l-17.5-15.26c-3.8-3.32,1.22-9.08,5.03-5.76l14.95,13.04,4.92-5.64-11.4-9.95c-3.82-3.33,1.22-9.1,5.04-5.78l11.51,10.04c2.92-1.8,7.12,1.93,5.74,5Z"/>
            <path class="cls-15" d="M1176.71,1624.99l9.89,8.62c1.72,1.5,1.9,4.11.4,5.83l-10.86,12.45c-3.33,3.82-9.09-1.21-5.76-5.03l8.55-9.81-6.68-5.82-8,9.17c-1.38,1.59-3.8,1.75-5.38.37l-13.34-11.63c-1.59-1.38-1.75-3.8-.37-5.38l9.74-11.16c3.32-3.8,9.08,1.22,5.76,5.03l-7.22,8.27,7.56,6.6,5.99-6.86c2.5-2.86,6.86-3.15,9.72-.65Z"/>
            <g>
              <path class="cls-15" d="M1278.26,1477.39l10.68,9.31c2.86,2.5,3.17,6.86.68,9.72l-9.56,10.96,6.8,5.93,10.23-11.73c1.38-1.59,3.8-1.75,5.38-.37,1.6,1.39,1.76,3.81.38,5.39l-12.43,14.25c-1.56,1.79-4.27,1.97-6.07.4l-11.83-10.32c-1.79-1.56-1.97-4.27-.41-6.06l11.26-12.91-7.44-6.49-9,10.32c-1.39,1.6-3.81,1.76-5.41.37-1.59-1.38-1.75-3.8-.36-5.4l11.33-12.99c1.49-1.71,4.08-1.88,5.78-.4Z"/>
              <path class="cls-15" d="M1303.38,1452.87l9.97,8.69.07,1.08,1.08-.07,9.98,8.7c2.87,2.51,3.17,6.88.67,9.76l-10.7,12.26c-1.38,1.59-3.82,1.75-5.41.37-1.6-1.39-1.77-3.83-.38-5.42l10.2-11.7-7-6.1h-.15s-6.87,7.88-6.87,7.88c-3.34,3.83-9.13-1.22-5.79-5.05l6.87-7.87v-.15s-7.02-6.12-7.02-6.12l-10.2,11.7c-1.38,1.59-3.81,1.76-5.41.37-1.6-1.39-1.75-3.82-.37-5.41l10.7-12.26c2.51-2.87,6.88-3.17,9.76-.67Z"/>
              <path class="cls-15" d="M1343.33,1444.29l4.98,4.35c1.6,1.39,1.75,3.82.37,5.41s-3.81,1.76-5.41.37l-4.88-4.25-6.97,7.99c-1.64,1.88-4.49,2.09-6.37.45l-17.5-15.26c-3.8-3.32,1.22-9.08,5.03-5.76l14.95,13.04,4.92-5.64-11.4-9.95c-3.82-3.33,1.22-9.1,5.04-5.78l11.51,10.04c2.92-1.8,7.12,1.93,5.74,5Z"/>
              <path class="cls-15" d="M1361.02,1413.65l9.89,8.62c1.72,1.5,1.9,4.11.4,5.83l-10.86,12.45c-3.33,3.82-9.09-1.21-5.76-5.03l8.55-9.81-6.68-5.82-8,9.17c-1.38,1.59-3.8,1.75-5.38.37l-13.34-11.63c-1.59-1.38-1.75-3.8-.37-5.38l9.74-11.16c3.32-3.8,9.08,1.22,5.76,5.03l-7.22,8.27,7.56,6.6,5.99-6.86c2.5-2.86,6.86-3.15,9.72-.65Z"/>
            </g>
            <path class="cls-15" d="M1194.15,1599.71l-8.34,9.64-13.07-11.4c-1.59-1.38-4-1.22-5.38.37s-1.23,4.01.36,5.4l23.47,20.47c2.86,2.5,7.22,2.18,9.72-.68l8.88-10.18c2.5-2.86,2.21-7.23-.65-9.72l-5.25-4.58c-2.69-2.34-7.05-2.39-9.73.69ZM1203.53,1608.86l-7.9,9.05-4.06-3.54,7.86-9.09,4.1,3.57Z"/>
            <path class="cls-15" d="M1207,1558.62l10.73,9.36,1.35,14.04,7.37,6.43c1.57,1.37,1.73,3.76.36,5.33-1.5,1.72-3.89,1.74-5.39.43l-9.79-8.54-1.35-14.04-5.23-4.56-10.26,11.77c-1.36,1.56-3.76,1.73-5.33.36-2.04-1.78-1.84-4.13-.61-5.54l12.8-14.68c1.37-1.57,3.76-1.73,5.33-.36Z"/>
            <path class="cls-15" d="M1239.99,1543.65l-9.44-8.24c-2.61-2.27-6.43-2.18-8.51.22l-6.2,7.11c-2.07,2.38-1.65,6.18.96,8.45l9.44,8.24c-1.65,4.74,1.89,6.54,10.2,13.79,2.61,2.27,6.57,2.01,8.84-.59l10.37-11.89c2.27-2.61,2-6.58-.6-8.85-8.34-7.28-10.58-10.51-15.05-8.23ZM1222.86,1546.32l3.69-4.23,8.07,7.04-3.69,4.23-8.07-7.04ZM1248.99,1556.74l-8.55,9.81-6.13-5.39,8.56-9.76,6.13,5.34Z"/>
          </g>
          <path class="cls-15" d="M951.64,1619.19c-49.59-43.25-54.75-118.77-11.5-168.36,43.25-49.59,118.77-54.75,168.36-11.5s54.75,118.77,11.5,168.36c-43.25,49.59-118.77,54.75-168.36,11.5ZM1072.93,1555.58l38.92,33.94c6.04-14.46,1.38-36.36-12.78-59.4-8.71,7.49-17.63,16.18-26.14,25.46ZM1061.96,1568.15c-8.03,9.69-15.42,19.7-21.66,29.35,24.74,10.89,47.08,12.53,60.57,4.59l-38.92-33.94ZM1112.19,1519.62c8.05,12.79,13.69,25.78,16.58,38.02,4.63-16.04,5.13-32.88,1.42-49.64-5.61,3.02-11.64,6.92-17.99,11.62ZM1022.62,1631.35c17.12,1.38,33.74-1.41,49-8.17-12.52-1.2-26.16-5.01-39.92-11.25-3.78,6.91-6.83,13.43-9.08,19.42ZM1081.65,1482.85c7.74,7.31,14.76,15.04,20.94,23.05,7.03-5.18,14.78-10.21,22.62-14.14-4.98-12.5-12.47-24.03-21.91-33.74l-21.65,24.83ZM991.11,1586.67l-21.65,24.83c10.89,8.04,23.33,13.89,36.4,17.12,2.74-8.11,6.8-16.73,10.93-24.32-8.78-5.05-17.38-10.95-25.67-17.62ZM1041.85,1528.48l18.46,16.1c9.46-10.34,19.42-20.01,29.15-28.29-5.59-7.24-11.9-14.21-18.84-20.8l-28.77,32.99ZM1030.89,1541.05l-28.76,32.98c7.48,5.97,15.24,11.28,23.17,15.82,6.88-10.76,15.09-21.94,24.05-32.71l-18.46-16.1ZM978.5,1575.67c-7.88-7.44-15.02-15.32-21.32-23.52-7.81,5.75-15.46,10.54-22.46,14.07,5,12.74,12.56,24.46,22.12,34.28l21.65-24.83ZM1018.28,1530.05l-18.94-16.52c-9.41,10.29-19.34,19.92-29.04,28.19,5.69,7.43,12.13,14.58,19.23,21.31l28.76-32.97ZM1058.01,1484.49c-7.63-6.11-15.59-11.53-23.72-16.15-6.87,10.74-15.07,21.89-23.99,32.62l18.94,16.52,28.77-32.99ZM1090.69,1447.03c-11.04-8.14-23.67-14.04-36.97-17.25-2.54,7.38-6.25,15.61-10.89,24.16,8.98,5.12,17.77,11.13,26.21,17.92l21.65-24.83ZM959.25,1456.44l38.43,33.52c7.96-9.61,15.31-19.56,21.56-29.19-24.49-10.65-46.6-12.2-59.99-4.32ZM948.29,1469.02c-5.97,14.33-1.43,36.02,12.45,58.83,8.69-7.5,17.55-16.13,25.98-25.32l-38.43-33.52ZM929.83,1549.93c5.54-3,11.51-6.88,17.8-11.54-7.87-12.61-13.38-25.42-16.23-37.5-4.56,15.84-5.11,32.48-1.56,49.04ZM988.54,1435.35c12.35,1.18,25.79,4.9,39.36,10.98,3.76-6.86,6.79-13.3,9.02-19.2-16.9-1.26-33.3,1.55-48.37,8.22Z"/>
        </g>
        <path class="cls-7" d="M538.25,2196.63l-257.53-203.24c84.02-75.65,204.08-191.43,222.16-250.36,28.24-92.04,109.49-274.59,140.45-302.52s242.67-95.83,242.67-95.83c0,0,44.09-68.13,63.36-88.68,13.12-14.01,33.91-41.81,63.41-40.31,94.63,4.81,61.29,129.05,61.29,129.05-25.74,88.34-105.66,186.59-125.63,211.93-25.09,31.84-40.49,59.89-44.42,68.87s-11.94,24.21-9.35,49.88c28.34,280.2-230.62,415.48-356.41,521.21Z"/>
        <path class="cls-18" d="M1052.41,1228.52c16.62,38.11,2.35,91.27,2.35,91.27-25.74,88.34-105.66,186.59-125.62,211.93-25.09,31.84-40.49,59.89-44.42,68.87-3.93,8.99-11.94,24.22-9.35,49.89,8.12,80.32-7.36,148.73-36.55,207.96-49.34,100.11-160.48,153.43-269.31,128.72-22.21-5.04-36.14-10.49-36.14-10.49l106.4,105.21-55.11,48.61,47.91,30.45c.07-.09,295.67-153.59,262.09-485.51-2.59-25.67,5.42-40.9,9.35-49.88,3.93-8.99,19.33-37.04,44.41-68.88,19.97-25.33,99.89-123.59,125.63-211.93,0,0,22.4-83.47-21.64-116.21Z"/>
        <path class="cls-4" d="M1023.3,1226.15s50.01,20.77,26.57,81.44c0,0-13.95,27.8-46.2,17.92-32.25-9.88-63.53-24.02-64.76-37.5-1.24-13.48,33.26-83.12,84.39-61.86Z"/>
        <path class="cls-14" d="M1013.58,1327.47c-3.09-.27-6.39-.9-9.9-1.97-27.24-8.34-53.78-19.73-62.12-31.19,48.15-23.8,66.89,17.73,72.02,33.16Z"/>
        <path class="cls-18" d="M885.92,1344.71c-1.63.75-28.25,13.66-63.19,75.73-36.07,64.07-134.07,133.57-190.02,155.92,0,0,22.59-23.88,37.66-32.65,23.68-13.79,49.64-31.75,73.71-51.79,10.6-8.82,10.09-25.29-1.02-33.45-7.73-5.68-16.65-10.96-25.75-13.68.81.13,20.48,3.35,38.99,17.07,6.91,5.12,16.58,4.25,22.58-1.91,16.46-16.87,30.49-34.35,40.12-51.44,14.38-25.54,27.35-42.76,37.75-54.22,17.01-5.67,28.15-9.25,29.17-9.57Z"/>
        <path class="cls-18" d="M968.7,1418.71c-15.69-13.38-33.13-30.43-50.54-38.51-20.88-9.69-48.11-10.75-57.97-12.73,16.37-11.09,49.31-7.13,65.27,1.07,19.58,10.07,32.59,30.94,43.27,50.19-.01,0-.02-.02-.03-.03Z"/>
        <path class="cls-18" d="M954.47,1443.99c-13.49-5.3-43.67,5.25-78.66-9.55-17.29-7.31-25.76-25.64-31.55-43.85,7.78,4.66,21.41,22.4,39.94,29.63,19.18,7.48,48.9,16.65,70.26,23.77Z"/>
        <g>
          <path class="cls-12" d="M714.02,2141.17l-106.06,112.4-311.47-293.91,106.06-112.4c7.88-8.36,84.01,50.65,170.02,131.82,86.01,81.16,149.33,153.74,141.45,162.09Z"/>
          <path class="cls-3" d="M702.55,2195.33l-193.13,204.67H0v-228.45l349.15-309.7c8.95-9.48,95.32,57.46,192.92,149.56,97.6,92.09,169.44,174.44,160.49,183.93Z"/>
        </g>
        <path class="cls-18" d="M1007.12,1854.72c-16.29,16.95-45.51,49.19-75.77,66.06,6.43-18.75-3.95-35.96-3.95-35.96,1.26,9.14-.24,17.24-3.09,24.2-7.83,19.08-28.36,29.68-48.59,25.72-.15-.03-.3-.06-.46-.09-6.73-1.35-12.23-6.27-14.11-12.87-1.73-6.08-2.08-12.65-1.78-18.68-7.14,18.31-15.66,37.17-25.81,56.07,2-2,4.17-3.81,6.44-5.47,10.96-8,24.72-11.12,38.15-9.13,20.85,3.1,34.51-3.32,55.35-14.48,25.79-13.82,52.19-39.14,74.23-62.55.53-5.77.05-9.99-.61-12.82Z"/>
        <path class="cls-18" d="M911.9,1985.03c-4.9,2.16-9.98,4.08-15.22,5.74-1,.32-2.04.57-3.14.77,8.22-9.13,16.47-23.13,13.98-41.15,0,0,9.9,16.4,4.38,34.63Z"/>
      </g>
      <g>
        <path class="cls-13" d="M1553.26,1406.33l-210.71,241.61-161.72-407.55c42.89-49.17,74.14-85,78.69-90.22,6.29-7.21,17.23-7.97,24.47-1.67,50.28,43.85,267.63,233.42,267.57,233.37,7.23,6.31,8,17.24,1.7,24.46Z"/>
        <path class="cls-9" d="M1174.85,1150.52c50.28,43.85,267.63,233.42,267.58,233.37,7.23,6.31,7.99,17.24,1.7,24.46l-383.72,440c-6.31,7.21-17.25,7.97-24.45,1.66-4.88-4.26-259.98-226.69-267.62-233.35-7.23-6.32-7.96-17.27-1.66-24.49,17.25-19.78,367.61-421.51,383.72-439.98,6.29-7.21,17.23-7.97,24.47-1.67Z"/>
        <g>
          <path class="cls-15" d="M1262.71,1390.08c-2.15-1.82-3.6-4.46-3.85-7.48-2.2-26.64-14.64-50.83-35.03-68.11-20.39-17.28-46.29-25.59-72.93-23.39-6.05.5-11.36-4-11.86-10.05-.5-6.05,4-11.36,10.05-11.86,32.49-2.68,64.09,7.45,88.96,28.52,24.87,21.08,40.05,50.58,42.73,83.07.5,6.05-4,11.36-10.05,11.86-3.03.25-5.87-.75-8.01-2.57Z"/>
          <path class="cls-15" d="M1139.98,1253.48c-2.15-1.82-3.6-4.46-3.85-7.48-.5-6.05,4-11.36,10.05-11.86,42.61-3.52,83.8,9.97,115.96,37.95,15.31,13.32,27.77,29.2,37.04,47.21,9.49,18.42,15.15,38.14,16.82,58.6.49,6.05-4.01,11.36-10.06,11.85-6.05.5-11.36-4.01-11.85-10.06-2.83-34.65-19.74-67.82-46.39-91.01-27.65-24.06-63.06-35.65-99.71-32.62-3.03.25-5.87-.75-8.01-2.57Z"/>
          <path class="cls-15" d="M1227.61,1392.98c-2.15-1.82-3.6-4.46-3.85-7.48-1.43-17.3-9.48-32.98-22.68-44.17s-29.99-16.56-47.29-15.13c-6.05.5-11.36-4-11.86-10.05-.5-6.05,4-11.36,10.05-11.86,23.15-1.91,45.64,5.29,63.31,20.27,17.68,14.98,28.47,35.98,30.38,59.13.5,6.05-4,11.36-10.05,11.86-3.03.25-5.87-.75-8.01-2.57Z"/>
          <path class="cls-15" d="M1192.56,1395.88c-2.15-1.82-3.6-4.46-3.85-7.48-.65-7.92-4.34-15.1-10.38-20.22-6.04-5.12-13.73-7.58-21.65-6.92-6.05.5-11.36-4-11.86-10.05-.5-6.05,4-11.36,10.05-11.86,13.77-1.14,27.15,3.15,37.67,12.06,10.52,8.92,16.94,21.41,18.08,35.18.5,6.05-4,11.36-10.05,11.86-3.03.25-5.87-.75-8.01-2.57Z"/>
        </g>
        <g>
          <path class="cls-15" d="M1076.05,1760.83c1.6,1.39,1.76,3.81.37,5.41l-10.32,11.83c-1.39,1.6-3.81,1.76-5.41.37-1.59-1.38-1.75-3.8-.36-5.4l2.65-3.04-20-17.44-3.53,4.04c-3.32,3.8-9.08-1.22-5.76-5.03l8.55-9.81,25.76,22.47,2.65-3.04c1.39-1.6,3.81-1.76,5.39-.38Z"/>
          <path class="cls-15" d="M1075.62,1709.74l10.68,9.31c2.86,2.5,3.17,6.86.68,9.72l-9.56,10.96,6.8,5.93,10.23-11.73c1.38-1.59,3.8-1.75,5.38-.37,1.6,1.39,1.76,3.81.38,5.39l-12.43,14.25c-1.56,1.79-4.27,1.97-6.07.4l-11.83-10.32c-1.79-1.56-1.97-4.27-.41-6.06l11.26-12.91-7.44-6.49-9,10.32c-1.39,1.6-3.81,1.76-5.41.37-1.59-1.38-1.75-3.8-.36-5.4l11.33-12.99c1.49-1.71,4.08-1.88,5.78-.4Z"/>
          <path class="cls-15" d="M1100.74,1685.23l9.97,8.69.07,1.08,1.08-.07,9.98,8.7c2.87,2.51,3.17,6.88.67,9.76l-10.7,12.26c-1.38,1.59-3.82,1.75-5.41.37-1.6-1.39-1.77-3.83-.38-5.42l10.2-11.7-7-6.1h-.15s-6.87,7.88-6.87,7.88c-3.34,3.83-9.13-1.22-5.79-5.05l6.87-7.87v-.15s-7.02-6.12-7.02-6.12l-10.2,11.7c-1.38,1.59-3.81,1.76-5.41.37-1.6-1.39-1.75-3.82-.37-5.41l10.7-12.26c2.51-2.87,6.88-3.17,9.76-.67Z"/>
          <path class="cls-15" d="M1140.69,1676.65l4.98,4.35c1.6,1.39,1.75,3.82.37,5.41-1.38,1.59-3.81,1.76-5.41.37l-4.88-4.25-6.97,7.99c-1.64,1.88-4.49,2.09-6.37.45l-17.5-15.26c-3.8-3.32,1.22-9.08,5.03-5.76l14.95,13.04,4.92-5.64-11.4-9.95c-3.82-3.33,1.22-9.1,5.04-5.78l11.51,10.04c2.92-1.8,7.12,1.93,5.74,5Z"/>
          <path class="cls-15" d="M1176.71,1624.99l9.89,8.62c1.72,1.5,1.9,4.11.4,5.83l-10.86,12.45c-3.33,3.82-9.09-1.21-5.76-5.03l8.55-9.81-6.68-5.82-8,9.17c-1.38,1.59-3.8,1.75-5.38.37l-13.34-11.63c-1.59-1.38-1.75-3.8-.37-5.38l9.74-11.16c3.32-3.8,9.08,1.22,5.76,5.03l-7.22,8.27,7.56,6.6,5.99-6.86c2.5-2.86,6.86-3.15,9.72-.65Z"/>
          <g>
            <path class="cls-15" d="M1278.26,1477.39l10.68,9.31c2.86,2.5,3.17,6.86.68,9.72l-9.56,10.96,6.8,5.93,10.23-11.73c1.38-1.59,3.8-1.75,5.38-.37,1.6,1.39,1.76,3.81.38,5.39l-12.43,14.25c-1.56,1.79-4.27,1.97-6.07.4l-11.83-10.32c-1.79-1.56-1.97-4.27-.41-6.06l11.26-12.91-7.44-6.49-9,10.32c-1.39,1.6-3.81,1.76-5.41.37-1.59-1.38-1.75-3.8-.36-5.4l11.33-12.99c1.49-1.71,4.08-1.88,5.78-.4Z"/>
            <path class="cls-15" d="M1303.38,1452.87l9.97,8.69.07,1.08,1.08-.07,9.98,8.7c2.87,2.51,3.17,6.88.67,9.76l-10.7,12.26c-1.38,1.59-3.82,1.75-5.41.37-1.6-1.39-1.77-3.83-.38-5.42l10.2-11.7-7-6.1h-.15s-6.87,7.88-6.87,7.88c-3.34,3.83-9.13-1.22-5.79-5.05l6.87-7.87v-.15s-7.02-6.12-7.02-6.12l-10.2,11.7c-1.38,1.59-3.81,1.76-5.41.37-1.6-1.39-1.75-3.82-.37-5.41l10.7-12.26c2.51-2.87,6.88-3.17,9.76-.67Z"/>
            <path class="cls-15" d="M1343.33,1444.29l4.98,4.35c1.6,1.39,1.75,3.82.37,5.41s-3.81,1.76-5.41.37l-4.88-4.25-6.97,7.99c-1.64,1.88-4.49,2.09-6.37.45l-17.5-15.26c-3.8-3.32,1.22-9.08,5.03-5.76l14.95,13.04,4.92-5.64-11.4-9.95c-3.82-3.33,1.22-9.1,5.04-5.78l11.51,10.04c2.92-1.8,7.12,1.93,5.74,5Z"/>
            <path class="cls-15" d="M1361.02,1413.65l9.89,8.62c1.72,1.5,1.9,4.11.4,5.83l-10.86,12.45c-3.33,3.82-9.09-1.21-5.76-5.03l8.55-9.81-6.68-5.82-8,9.17c-1.38,1.59-3.8,1.75-5.38.37l-13.34-11.63c-1.59-1.38-1.75-3.8-.37-5.38l9.74-11.16c3.32-3.8,9.08,1.22,5.76,5.03l-7.22,8.27,7.56,6.6,5.99-6.86c2.5-2.86,6.86-3.15,9.72-.65Z"/>
          </g>
          <path class="cls-15" d="M1194.15,1599.71l-8.34,9.64-13.07-11.4c-1.59-1.38-4-1.22-5.38.37s-1.23,4.01.36,5.4l23.47,20.47c2.86,2.5,7.22,2.18,9.72-.68l8.88-10.18c2.5-2.86,2.21-7.23-.65-9.72l-5.25-4.58c-2.69-2.34-7.05-2.39-9.73.69ZM1203.53,1608.86l-7.9,9.05-4.06-3.54,7.86-9.09,4.1,3.57Z"/>
          <path class="cls-15" d="M1207,1558.62l10.73,9.36,1.35,14.04,7.37,6.43c1.57,1.37,1.73,3.76.36,5.33-1.5,1.72-3.89,1.74-5.39.43l-9.79-8.54-1.35-14.04-5.23-4.56-10.26,11.77c-1.36,1.56-3.76,1.73-5.33.36-2.04-1.78-1.84-4.13-.61-5.54l12.8-14.68c1.37-1.57,3.76-1.73,5.33-.36Z"/>
          <path class="cls-15" d="M1239.99,1543.65l-9.44-8.24c-2.61-2.27-6.43-2.18-8.51.22l-6.2,7.11c-2.07,2.38-1.65,6.18.96,8.45l9.44,8.24c-1.65,4.74,1.89,6.54,10.2,13.79,2.61,2.27,6.57,2.01,8.84-.59l10.37-11.89c2.27-2.61,2-6.58-.6-8.85-8.34-7.28-10.58-10.51-15.05-8.23ZM1222.86,1546.32l3.69-4.23,8.07,7.04-3.69,4.23-8.07-7.04ZM1248.99,1556.74l-8.55,9.81-6.13-5.39,8.56-9.76,6.13,5.34Z"/>
        </g>
        <path class="cls-15" d="M951.64,1619.19c-49.59-43.25-54.75-118.77-11.5-168.36,43.25-49.59,118.77-54.75,168.36-11.5s54.75,118.77,11.5,168.36c-43.25,49.59-118.77,54.75-168.36,11.5ZM1072.93,1555.58l38.92,33.94c6.04-14.46,1.38-36.36-12.78-59.4-8.71,7.49-17.63,16.18-26.14,25.46ZM1061.96,1568.15c-8.03,9.69-15.42,19.7-21.66,29.35,24.74,10.89,47.08,12.53,60.57,4.59l-38.92-33.94ZM1112.19,1519.62c8.05,12.79,13.69,25.78,16.58,38.02,4.63-16.04,5.13-32.88,1.42-49.64-5.61,3.02-11.64,6.92-17.99,11.62ZM1022.62,1631.35c17.12,1.38,33.74-1.41,49-8.17-12.52-1.2-26.16-5.01-39.92-11.25-3.78,6.91-6.83,13.43-9.08,19.42ZM1081.65,1482.85c7.74,7.31,14.76,15.04,20.94,23.05,7.03-5.18,14.78-10.21,22.62-14.14-4.98-12.5-12.47-24.03-21.91-33.74l-21.65,24.83ZM991.11,1586.67l-21.65,24.83c10.89,8.04,23.33,13.89,36.4,17.12,2.74-8.11,6.8-16.73,10.93-24.32-8.78-5.05-17.38-10.95-25.67-17.62ZM1041.85,1528.48l18.46,16.1c9.46-10.34,19.42-20.01,29.15-28.29-5.59-7.24-11.9-14.21-18.84-20.8l-28.77,32.99ZM1030.89,1541.05l-28.76,32.98c7.48,5.97,15.24,11.28,23.17,15.82,6.88-10.76,15.09-21.94,24.05-32.71l-18.46-16.1ZM978.5,1575.67c-7.88-7.44-15.02-15.32-21.32-23.52-7.81,5.75-15.46,10.54-22.46,14.07,5,12.74,12.56,24.46,22.12,34.28l21.65-24.83ZM1018.28,1530.05l-18.94-16.52c-9.41,10.29-19.34,19.92-29.04,28.19,5.69,7.43,12.13,14.58,19.23,21.31l28.76-32.97ZM1058.01,1484.49c-7.63-6.11-15.59-11.53-23.72-16.15-6.87,10.74-15.07,21.89-23.99,32.62l18.94,16.52,28.77-32.99ZM1090.69,1447.03c-11.04-8.14-23.67-14.04-36.97-17.25-2.54,7.38-6.25,15.61-10.89,24.16,8.98,5.12,17.77,11.13,26.21,17.92l21.65-24.83ZM959.25,1456.44l38.43,33.52c7.96-9.61,15.31-19.56,21.56-29.19-24.49-10.65-46.6-12.2-59.99-4.32ZM948.29,1469.02c-5.97,14.33-1.43,36.02,12.45,58.83,8.69-7.5,17.55-16.13,25.98-25.32l-38.43-33.52ZM929.83,1549.93c5.54-3,11.51-6.88,17.8-11.54-7.87-12.61-13.38-25.42-16.23-37.5-4.56,15.84-5.11,32.48-1.56,49.04ZM988.54,1435.35c12.35,1.18,25.79,4.9,39.36,10.98,3.76-6.86,6.79-13.3,9.02-19.2-16.9-1.26-33.3,1.55-48.37,8.22Z"/>
      </g>
      <path class="cls-7" d="M538.25,2196.63l-257.53-203.24c84.02-75.65,204.08-191.43,222.16-250.36,28.24-92.04,109.49-274.59,140.45-302.52s242.67-95.83,242.67-95.83c0,0,44.09-68.13,63.36-88.68,13.12-14.01,33.91-41.81,63.41-40.31,94.63,4.81,61.29,129.05,61.29,129.05-25.74,88.34-105.66,186.59-125.63,211.93-25.09,31.84-40.49,59.89-44.42,68.87s-11.94,24.21-9.35,49.88c28.34,280.2-230.62,415.48-356.41,521.21Z"/>
      <path class="cls-4" d="M1023.3,1226.15s50.01,20.77,26.57,81.44c0,0-13.95,27.8-46.2,17.92-32.25-9.88-63.53-24.02-64.76-37.5-1.24-13.48,33.26-83.12,84.39-61.86Z"/>
      <path class="cls-14" d="M1013.58,1327.47c-3.09-.27-6.39-.9-9.9-1.97-27.24-8.34-53.78-19.73-62.12-31.19,48.15-23.8,66.89,17.73,72.02,33.16Z"/>
      <path class="cls-18" d="M885.92,1344.71c-1.63.75-28.25,13.66-63.19,75.73-36.07,64.07-134.07,133.57-190.02,155.92,0,0,22.59-23.88,37.66-32.65,23.68-13.79,49.64-31.75,73.71-51.79,10.6-8.82,10.09-25.29-1.02-33.45-7.73-5.68-16.65-10.96-25.75-13.68.81.13,20.48,3.35,38.99,17.07,6.91,5.12,16.58,4.25,22.58-1.91,16.46-16.87,30.49-34.35,40.12-51.44,14.38-25.54,27.35-42.76,37.75-54.22,17.01-5.67,28.15-9.25,29.17-9.57Z"/>
      <path class="cls-18" d="M968.7,1418.71c-15.69-13.38-33.13-30.43-50.54-38.51-20.88-9.69-48.11-10.75-57.97-12.73,16.37-11.09,49.31-7.13,65.27,1.07,19.58,10.07,32.59,30.94,43.27,50.19-.01,0-.02-.02-.03-.03Z"/>
      <path class="cls-18" d="M954.47,1443.99c-13.49-5.3-43.67,5.25-78.66-9.55-17.29-7.31-25.76-25.64-31.55-43.85,7.78,4.66,21.41,22.4,39.94,29.63,19.18,7.48,48.9,16.65,70.26,23.77Z"/>
      <path class="cls-11" d="M714.02,2141.17l-106.06,112.4-311.47-293.91,106.06-112.4c7.88-8.36,84.01,50.65,170.02,131.82,86.01,81.16,149.33,153.74,141.45,162.09Z"/>
      <path class="cls-3" d="M702.55,2195.33l-193.13,204.67H0v-228.45l349.15-309.7c8.95-9.48,95.32,57.46,192.92,149.56,97.6,92.09,169.44,174.44,160.49,183.93Z"/>
      <path class="cls-16" d="M714.02,2141.17l-24.78,26.25c11.09,15.04,16.08,24.97,13.31,27.92l-193.13,204.67h-174.4l328.78-329.02c34.81,38.09,54.85,65.28,50.21,70.19Z"/>
    </g>
  </g>
</svg>