<?xml version="1.0" encoding="UTF-8"?>
<svg xmlns="http://www.w3.org/2000/svg" xmlns:xlink="http://www.w3.org/1999/xlink" viewBox="0 0 500 500">
  <defs>
    <style>
      .cls-1 {
        fill: #b16668;
      }

      .cls-1, .cls-2, .cls-3, .cls-4, .cls-5, .cls-6, .cls-7, .cls-8, .cls-9, .cls-10, .cls-11, .cls-12, .cls-13, .cls-14, .cls-15, .cls-16, .cls-17, .cls-18, .cls-19, .cls-20 {
        stroke-width: 0px;
      }

      .cls-2 {
        fill: #9a4a4d;
      }

      .cls-21 {
        clip-path: url(#clippath);
      }

      .cls-3 {
        opacity: .2;
      }

      .cls-3, .cls-6, .cls-7, .cls-9, .cls-18 {
        fill: #000;
      }

      .cls-22, .cls-10 {
        fill: #455a64;
      }

      .cls-4 {
        fill: #e0e0e0;
      }

      .cls-5 {
        fill: #27debf;
      }

      .cls-7 {
        opacity: .1;
      }

      .cls-8, .cls-13, .cls-15 {
        opacity: .5;
      }

      .cls-8, .cls-19 {
        fill: #37474f;
      }

      .cls-9 {
        opacity: .15;
      }

      .cls-11 {
        fill: #263238;
      }

      .cls-12 {
        fill: #e6e6e6;
      }

      .cls-13, .cls-14, .cls-17 {
        fill: #fff;
      }

      .cls-23, .cls-14 {
        opacity: .75;
      }

      .cls-15, .cls-16 {
        fill: #fafafa;
      }

      .cls-18 {
        opacity: .3;
      }

      .cls-20 {
        fill: #f5f5f5;
      }
    </style>
    <clipPath id="clippath">
      <path class="cls-10" d="M449.07,232.91v16.37c0,1.23-.86,1.72-1.92,1.11l-21.39-12.35c-1.06-.61-1.92-2.1-1.92-3.33v-16.37c0-1.23.86-1.72,1.92-1.11,4.69,2.71,16.7,9.64,21.39,12.35,1.06.61,1.92,2.1,1.92,3.33Z"/>
    </clipPath>
  </defs>
  <g id="Floor">
    <path id="Floor-2" data-name="Floor" class="cls-20" d="M407.88,242.05c86.17,47.12,86.17,123.53,0,170.65-86.17,47.12-225.88,47.12-312.06,0-86.17-47.12-86.17-123.53,0-170.65,86.17-47.12,225.88-47.12,312.06,0Z"/>
  </g>
  <g id="Shadow">
    <path id="Shadow-2" data-name="Shadow" class="cls-4" d="M138.56,340.78c18.27,10.55,18.27,27.64,0,38.19-18.27,10.55-47.88,10.55-66.15,0-18.27-10.55-18.27-27.64,0-38.19,18.27-10.55,47.88-10.55,66.15,0Z"/>
  </g>
  <g id="Device">
    <g id="Device-2" data-name="Device">
      <path class="cls-12" d="M48.13,127.6c4.01-2.11,9.43-1.71,15.41,1.75,2.74,1.58,5.37,3.68,7.8,6.14,8.46,8.52,14.45,21.39,14.45,32.42,0,14.2,9.98,31.46,22.27,38.57,12.29,7.09,22.27,12.86,22.27,12.86l94.91-54.78s-9.98-5.76-22.27-12.86c-12.29-7.09-22.27-24.37-22.27-38.57s-9.96-31.46-22.27-38.56c-6.04-3.49-11.54-3.87-15.55-1.66l-.02.02-.53.3-31.27,18.07-4.95,2.85-57.98,33.46Z"/>
      <g>
        <g>
          <g>
            <path class="cls-11" d="M329.47,203.95h0c-.19-.12-.45-.11-.74.06l-2.75,1.58c-.56.33-1.03,1.12-1.03,1.77v32.07s115.07,65.25,115.07,65.25l4.53-34.29-115.07-66.44Z"/>
            <path class="cls-10" d="M444.48,270.35c-.19-.08-.43-.06-.7.09l-2.75,1.58c-.28.17-.53.44-.72.76l-115.07-66.44c.19-.32.44-.59.72-.76l2.75-1.58c.3-.17.55-.18.74-.05h0s115.02,66.39,115.02,66.39Z"/>
            <path class="cls-19" d="M443.79,270.44l-2.75,1.59c-.56.33-1.02,1.12-1.02,1.77v30.88l4.79,2.74v-36.39c0-.65-.46-.92-1.02-.59Z"/>
          </g>
          <g>
            <polygon class="cls-6" points="440.01 304.68 440.01 306.79 432.82 309.99 317.76 243.55 324.95 239.43 440.01 304.68"/>
            <path class="cls-19" d="M435.22,314.15l8.57-4.95c.56-.33,1.02-1.12,1.02-1.77l-4.79-2.74c0,.65-.46,1.44-1.02,1.77l-2.75,1.59c-.56.33-1.02.06-1.02-.59v6.7Z"/>
          </g>
        </g>
        <g id="Cards">
          <path class="cls-5" d="M461.69,310.81c1-.57,1.8-2.03,1.8-3.26v-103.77c0-1.23-.86-2.71-1.92-3.33l-133.12-76.86c-1.06-.61-2.73-.64-3.72-.07-1,.57-1.8,2.03-1.8,3.26v103.77c0,1.23.86,2.71,1.92,3.33l133.12,76.86c1.06.61,2.73.64,3.72.07Z"/>
          <path class="cls-5" d="M459.89,205.86v103.77c0,1.23-.86,1.72-1.92,1.11l-133.12-76.86c-1.06-.61-1.92-2.1-1.92-3.33v-103.77c0-1.23.86-1.72,1.92-1.11l133.12,76.86c1.06.61,1.92,2.1,1.92,3.33Z"/>
          <path class="cls-3" d="M463.49,203.78v103.77c0,1.23-.81,2.69-1.8,3.26-.88.5-2.27.54-3.31.11.86.28,1.51-.23,1.51-1.3v-103.77c0-.62-.22-1.3-.56-1.89l3.6-2.08c.35.6.57,1.28.57,1.89Z"/>
          <g>
            <path class="cls-22" d="M449.07,232.91v16.37c0,1.23-.86,1.72-1.92,1.11l-21.39-12.35c-1.06-.61-1.92-2.1-1.92-3.33v-16.37c0-1.23.86-1.72,1.92-1.11,4.69,2.71,16.7,9.64,21.39,12.35,1.06.61,1.92,2.1,1.92,3.33Z"/>
            <g class="cls-21">
              <rect class="cls-17" x="436.02" y="210.92" width=".87" height="37.46" transform="translate(19.25 492.65) rotate(-59.98)"/>
              <rect class="cls-17" x="441.43" y="232.77" width=".87" height="8.34"/>
              <rect class="cls-17" x="430.62" y="226.56" width=".87" height="8.33"/>
              <rect class="cls-17" x="436.02" y="219.28" width=".87" height="37.46" transform="translate(12.01 496.83) rotate(-59.98)"/>
            </g>
          </g>
          <g>
            <path class="cls-16" d="M449.07,264.13v3.89c0,1.23-.86,1.72-1.92,1.11l-21.39-12.35c-1.06-.61-1.92-2.1-1.92-3.33v-3.89c0-1.23.86-1.72,1.92-1.11l21.39,12.35c1.06.61,1.92,2.1,1.92,3.33Z"/>
            <path class="cls-16" d="M419.04,246.78v3.89c0,1.23-.86,1.72-1.92,1.11l-21.39-12.35c-1.06-.61-1.92-2.1-1.92-3.33v-3.89c0-1.23.86-1.72,1.92-1.11l21.39,12.35c1.06.61,1.92,2.1,1.92,3.33Z"/>
            <path class="cls-16" d="M389,229.44v3.89c0,1.23-.86,1.72-1.92,1.11l-21.39-12.35c-1.06-.61-1.92-2.1-1.92-3.33v-3.89c0-1.23.86-1.72,1.92-1.11l21.39,12.35c1.06.61,1.92,2.1,1.92,3.33Z"/>
            <path class="cls-16" d="M358.97,212.1v3.89c0,1.23-.86,1.72-1.92,1.11l-21.39-12.35c-1.06-.61-1.92-2.1-1.92-3.33v-3.89c0-1.23.86-1.72,1.92-1.11l21.39,12.35c1.06.61,1.92,2.1,1.92,3.33Z"/>
          </g>
          <g>
            <path class="cls-9" d="M345.7,216.79l4.9,2.83c.64.37,1.15,1.26,1.15,2v1.5c0,.73-.52,1.03-1.15.67l-4.9-2.83c-.64-.37-1.15-1.26-1.15-2v-1.5c0-.74.52-1.03,1.15-.67Z"/>
            <path class="cls-9" d="M334.89,210.55l4.9,2.83c.64.37,1.15,1.26,1.15,2v1.5c0,.74-.52,1.03-1.15.67l-4.9-2.83c-.64-.37-1.15-1.26-1.15-2v-1.5c0-.73.52-1.03,1.15-.67Z"/>
            <path class="cls-9" d="M396.79,256.69l-61.03-35.24c-1.06-.61-1.92-.12-1.92,1.11v1.81c0,1.23.86,2.71,1.92,3.33l61.03,35.24c1.06.61,1.92.12,1.92-1.11v-1.81c0-1.23-.86-2.71-1.92-3.33Z"/>
          </g>
          <g>
            <path class="cls-17" d="M335.41,155.05c-.84-1.56-1.26-3.35-1.26-5.37s.41-3.35,1.24-3.94c.82-.59,2-.45,3.54.44.64.37,1.23.79,1.75,1.27.52.47.97.97,1.33,1.5.09.13.13.25.13.36,0,.09-.03.18-.08.25l-.46.81c-.06.09-.12.12-.19.09-.05-.03-.13-.11-.23-.24-.56-.75-1.23-1.34-2-1.79-.91-.52-1.61-.58-2.12-.17-.5.41-.75,1.3-.75,2.68s.26,2.58.79,3.57,1.24,1.76,2.15,2.28c.83.48,1.52.67,2.09.57.1-.01.17,0,.23.02.06.04.12.14.18.3l.52,1.48c.04.1.05.18.05.24,0,.07-.05.13-.16.17-.69.26-1.75-.02-3.19-.85-1.53-.88-2.72-2.11-3.56-3.67Z"/>
            <path class="cls-17" d="M343.52,160.89c-.09-.18-.14-.39-.14-.65v-10.45c0-.26.05-.43.14-.5.09-.08.24-.05.46.07l3.34,1.93c2.24,1.29,3.36,3.24,3.36,5.85,0,.83-.13,1.46-.4,1.89-.26.43-.66.65-1.18.65l1.39,4.86c.03.1.04.19.04.27,0,.21-.09.26-.28.16l-1.47-.85c-.12-.07-.22-.15-.28-.22-.06-.08-.11-.2-.16-.37l-1.22-4.58-1.57-.91v3.45c0,.26-.04.42-.13.5-.09.07-.24.05-.46-.08l-.99-.57c-.21-.12-.36-.27-.46-.45ZM347,156.78c.5.29.88.37,1.13.23.25-.14.38-.51.38-1.12s-.11-1.12-.34-1.54-.57-.75-1.03-1.02l-1.57-.91v3.53l1.44.83Z"/>
            <path class="cls-17" d="M351.9,165.73c-.09-.18-.14-.39-.14-.65v-10.45c0-.26.05-.43.14-.5.09-.08.24-.05.46.07l5.49,3.17c.21.12.36.26.44.42.08.16.12.37.12.64v.65c0,.27-.04.44-.12.51-.08.07-.22.05-.44-.08l-3.9-2.25v2.79l2.72,1.57c.21.12.36.26.44.42.08.16.12.37.12.64v.62c0,.27-.04.44-.12.51-.08.07-.22.05-.44-.08l-2.72-1.57v2.8l3.89,2.24c.21.12.36.26.44.43.08.16.12.38.12.65v.63c0,.27-.04.44-.12.5-.08.07-.23.04-.44-.08l-5.47-3.16c-.21-.12-.36-.27-.46-.45Z"/>
            <path class="cls-17" d="M359.49,170.11c-.09-.18-.14-.39-.14-.65v-10.45c0-.26.05-.42.14-.5.09-.08.24-.05.46.07l2.78,1.6c1.51.87,2.65,2.01,3.44,3.43.78,1.42,1.18,3.16,1.18,5.23s-.4,3.33-1.19,3.84c-.79.52-1.94.35-3.42-.51l-2.78-1.6c-.21-.12-.36-.27-.46-.45ZM362.82,170.09c.78.45,1.37.5,1.76.14s.58-1.24.58-2.65-.19-2.51-.58-3.31-.97-1.43-1.76-1.88l-1.3-.75v7.7l1.3.75Z"/>
            <path class="cls-17" d="M368.56,175.35c-.09-.18-.14-.39-.14-.65v-10.45c0-.26.05-.42.14-.5.09-.08.24-.05.46.07l.99.57c.22.13.38.28.46.45.09.17.13.4.13.67v10.45c0,.26-.04.42-.13.5-.09.07-.24.04-.46-.08l-.99-.57c-.21-.12-.36-.27-.46-.45Z"/>
            <path class="cls-17" d="M374.28,178.65c-.09-.18-.14-.39-.14-.65v-9.08l-2.17-1.25c-.21-.12-.36-.26-.44-.42-.08-.16-.12-.37-.12-.64v-.65c0-.27.04-.44.12-.51.08-.07.22-.05.44.08l6.53,3.77c.21.12.36.27.44.43.08.17.13.38.13.65v.65c0,.26-.04.42-.13.49-.08.07-.23.04-.44-.08l-2.17-1.25v9.08c0,.26-.05.42-.14.49-.09.07-.25.04-.47-.09l-.98-.56c-.22-.13-.38-.28-.47-.46Z"/>
            <path class="cls-17" d="M385.65,184.05c-.84-1.56-1.26-3.35-1.26-5.37s.41-3.35,1.24-3.94c.82-.59,2-.45,3.54.44.64.37,1.23.79,1.75,1.27.52.47.97.97,1.33,1.5.09.13.13.25.13.36,0,.09-.03.18-.08.25l-.46.81c-.06.09-.12.12-.19.09-.05-.03-.13-.11-.22-.24-.56-.75-1.23-1.34-2-1.79-.91-.52-1.61-.58-2.12-.17-.5.41-.75,1.3-.75,2.68s.26,2.58.79,3.57c.52,1,1.24,1.76,2.15,2.28.83.48,1.52.67,2.09.57.1-.01.17,0,.22.02.06.04.12.14.19.3l.52,1.48c.04.1.05.18.05.24,0,.07-.05.13-.16.17-.69.26-1.75-.02-3.19-.85-1.53-.89-2.72-2.11-3.56-3.67Z"/>
            <path class="cls-17" d="M393.03,189.36c0-.08.01-.17.04-.26l3.42-8.9c.06-.16.13-.26.2-.3.08-.03.18,0,.32.07l.97.56c.14.08.25.18.32.3.07.12.14.29.2.53l3.42,12.85c.03.12.04.22.04.3,0,.2-.08.25-.24.16l-1.6-.92c-.12-.07-.21-.15-.27-.24-.06-.09-.11-.21-.15-.38l-.61-2.43-3.21-1.86-.6,1.74c-.04.12-.09.18-.15.2-.06.02-.15,0-.27-.08l-1.6-.92c-.16-.09-.24-.24-.24-.44ZM398.6,188.4l-1.1-4.44-1.11,3.17,2.21,1.27Z"/>
            <path class="cls-17" d="M403.21,195.35c-.09-.18-.14-.39-.14-.65v-10.45c0-.26.05-.42.14-.5.09-.08.24-.05.46.07l3.34,1.93c2.24,1.29,3.36,3.24,3.36,5.85,0,.84-.13,1.47-.4,1.9-.26.43-.66.65-1.18.65l1.39,4.86c.03.1.04.19.04.27,0,.21-.09.26-.28.16l-1.47-.85c-.12-.07-.22-.14-.28-.22-.06-.08-.11-.2-.16-.36l-1.22-4.58-1.57-.91v3.46c0,.26-.04.42-.13.5-.09.07-.24.04-.46-.08l-.99-.57c-.21-.12-.36-.27-.46-.45ZM406.69,191.24c.5.29.88.37,1.13.23.25-.14.38-.51.38-1.12s-.11-1.12-.34-1.54c-.23-.41-.57-.75-1.03-1.02l-1.57-.91v3.53l1.44.83Z"/>
            <path class="cls-17" d="M411.59,200.19c-.09-.18-.14-.39-.14-.65v-10.45c0-.26.05-.42.14-.5.09-.08.24-.05.46.07l2.78,1.6c1.51.87,2.65,2.01,3.44,3.43.78,1.42,1.18,3.16,1.18,5.23s-.4,3.33-1.19,3.84c-.79.52-1.93.35-3.42-.51l-2.78-1.6c-.21-.12-.36-.27-.46-.45ZM414.93,200.17c.78.45,1.37.5,1.76.14.39-.36.58-1.24.58-2.65s-.19-2.51-.58-3.31c-.39-.8-.97-1.43-1.76-1.88l-1.3-.75v7.7l1.3.75Z"/>
          </g>
          <path class="cls-15" d="M462.92,201.88l-3.6,2.08c-.35-.6-.83-1.12-1.36-1.43l-133.12-76.86c-.96-.56-1.76-.19-1.9.8.12-1.15.88-2.42,1.78-2.95,1-.57,2.67-.55,3.73.07l133.12,76.85c.53.3,1.01.83,1.36,1.43Z"/>
        </g>
        <g>
          <path class="cls-11" d="M434.92,275.93l-11.38,6.19c-.19.32-.3,1.04-.3,1.37v36.39c0,.27.08.47.21.6l-114.98-66.37h0c-.19-.12-.3-.34-.3-.66v-36.39c0-.65.46-1.44,1.01-1.77l9.95-5.76c.3-.18.55-.18.74-.05l115.04,66.44Z"/>
          <path class="cls-8" d="M434.93,275.92l-105.17-60.74-4.8-2.77-5.06-2.93c-.19-.13-.45-.13-.74.05l-9.95,5.76c-.28.16-.53.44-.71.76l115.06,66.06,11.38-6.19Z"/>
          <path class="cls-19" d="M423.54,282.12c-.19.33-.31,1.06-.31,1.39v36.38c0,.65.46.92,1.02.59l10.96-6.34v-6.7s0-30.86,0-30.86c0-.33-.11-.55-.3-.66l-11.38,6.19Z"/>
          <path class="cls-11" d="M424.36,320.39l.4-.19,1.69-.98c1.75-2.11,2.53-4.82,2.53-7.17v-30.77c0-.56-.08-1.25-.25-1.98l-.92.5c.11.55.16,1.06.16,1.48v30.77c0,2.51-1.55,6.45-3.61,8.34Z"/>
        </g>
      </g>
      <g>
        <path class="cls-10" d="M295.34,174.48c-3.89-3.14-10.95-7.21-15.29-9.71-7.3-4.23-34.59-19.98-46.04-26.59-2.81-1.62-7.41-1.62-10.22,0l-93.01,53.72c-2.81,1.62-5.11,5.61-5.11,8.85v56.29c0,3.25,2.3,7.23,5.11,8.85l188.9,109.06c2.81,1.62,7.41,1.62,10.22,0l93.01-53.7c2.81-1.62,5.11-5.61,5.11-8.85v-31.7c0-3.12-1.46-6.07-3.94-7.96-21.37-16.26-122.54-93.25-128.74-98.27Z"/>
        <path class="cls-19" d="M428.03,312.4v-30.77c0-.62-.07-1.19-.22-1.84l-103.27,59.51c.15.59.23,1.24.25,1.95v30.75c.01,2.96-1.89,4.31-4.35,3.31.02.01.05.02.07.03.23.1.46.18.7.26.15.05.31.1.46.14.25.07.5.13.76.18.17.03.34.06.51.09.25.04.51.07.77.1.19.02.38.02.58.03.24.01.49.02.73.02.22,0,.44-.02.65-.04.22-.02.44-.03.65-.05.24-.03.48-.08.72-.12.19-.04.38-.06.56-.11.27-.06.52-.15.78-.24.14-.05.3-.08.43-.14.34-.13.65-.28.95-.45.05-.03.1-.04.14-.07l93.01-53.7c.51-.29,1.34-.77,1.34-.77,2.11-1.94,3.77-5.4,3.77-8.09Z"/>
        <path class="cls-11" d="M192.12,234.09c17.44,14.08,108.53,83.01,128.71,98.26,2.5,1.89,3.96,4.84,3.96,7.97v31.68c.01,3.25-2.29,4.57-5.1,2.95l-188.9-109.06c-2.81-1.62-5.11-5.61-5.11-8.85v-56.29c0-3.25,2.3-4.57,5.11-2.95,10.52,6.07,34.56,19.95,46.02,26.57,4.34,2.51,11.4,6.58,15.3,9.72Z"/>
        <g>
          <path class="cls-4" d="M191.56,215.86c4.34,2.51,11.4,6.57,15.3,9.73,3.53,2.86,7.14,6.32,10.73,10.04,1.39,1.44,3.91,1.82,5.64.82l67.48-38.96c1.74-1,2.04-3.01.65-4.45-3.59-3.72-7.17-7.14-10.76-10.04-3.89-3.14-10.95-7.21-15.29-9.71-8.26-4.78-17.53-10.13-25.88-14.94-1.73-1-4.56-1-6.29,0l-67.46,38.95c-1.73,1-1.73,2.63,0,3.63,8.35,4.82,17.61,10.17,25.87,14.94Z"/>
          <path class="cls-17" d="M233.15,161.53c1.73-1,4.56-1,6.29,0,8.35,4.81,17.62,10.16,25.88,14.94,4.34,2.51,11.4,6.57,15.29,9.71,3.58,2.9,7.17,6.32,10.76,10.04.13.13.22.27.32.41-.25.32-.56.61-.97.85l-67.48,38.96c-1.74,1-4.25.62-5.64-.82-3.58-3.72-7.2-7.18-10.73-10.04-3.9-3.16-10.97-7.23-15.3-9.73-8.26-4.77-17.52-10.12-25.87-14.94-.12-.07-.21-.15-.31-.22.1-.07.19-.15.31-.22l67.46-38.95Z"/>
          <polygon class="cls-5" points="234.26 212.95 214.07 212.64 214.07 204.58 228.53 207.2 228.34 175.17 240.91 174.97 234.26 212.95"/>
        </g>
        <g>
          <g>
            <g>
              <path class="cls-5" d="M292.73,213.82s-.01-.01-.01-.01l.67-2.78,2.79-.23,9.15-5.28c4.34-2.51,10.09-1.99,12.89,1.11.63.7,1.03,1.47,1.27,2.27l.79-.06-.71,2.95h-.01c-.46,1.86-1.84,3.63-4.04,4.9l-11.14,6.43c-1.74,1-4.28.65-5.65-.82-1.76-1.88-3.52-3.83-5.28-5.81-.72-.82-.94-1.79-.72-2.67Z"/>
              <path class="cls-7" d="M292.73,213.82s-.01-.01-.01-.01l.67-2.78,2.79-.23,9.15-5.28c4.34-2.51,10.09-1.99,12.89,1.11.63.7,1.03,1.47,1.27,2.27l.79-.06-.71,2.95h-.01c-.46,1.86-1.84,3.63-4.04,4.9l-11.14,6.43c-1.74,1-4.28.65-5.65-.82-1.76-1.88-3.52-3.83-5.28-5.81-.72-.82-.94-1.79-.72-2.67Z"/>
              <path class="cls-5" d="M305.04,220.34l11.14-6.43c4.34-2.51,5.51-6.97,2.71-10.06-2.8-3.09-8.55-3.61-12.89-1.11l-11.14,6.43c-1.74,1-2.08,3.04-.75,4.54,1.76,1.98,3.52,3.93,5.28,5.81,1.37,1.46,3.91,1.82,5.65.82Z"/>
            </g>
            <g>
              <path class="cls-5" d="M235.76,248.48l-.02-.04.68-2.82.79-.07c.69-.85,1.6-1.62,2.7-2.25l11.14-6.43c1.74-1,4.22-.59,5.55.9,1.74,1.95,3.46,3.87,5.2,5.72l1.56-.13-.71,2.93h-.02c-.19.69-.65,1.3-1.4,1.73l-11.14,6.43c-4.34,2.51-10.22,2.11-13.03-.98-1.32-1.46-1.7-3.25-1.31-5Z"/>
              <path class="cls-7" d="M235.76,248.48l-.02-.04.68-2.82.79-.07c.69-.85,1.6-1.62,2.7-2.25l11.14-6.43c1.74-1,4.22-.59,5.55.9,1.74,1.95,3.46,3.87,5.2,5.72l1.56-.13-.71,2.93h-.02c-.19.69-.65,1.3-1.4,1.73l-11.14,6.43c-4.34,2.51-10.22,2.11-13.03-.98-1.32-1.46-1.7-3.25-1.31-5Z"/>
              <path class="cls-5" d="M250.77,251.69l11.14-6.43c1.74-1,2.01-2.98.64-4.45-1.76-1.88-3.51-3.83-5.28-5.81-1.33-1.5-3.82-1.91-5.55-.9l-11.14,6.43c-4.34,2.51-5.65,7.09-2.84,10.18,2.81,3.09,8.68,3.49,13.03.98Z"/>
            </g>
            <g>
              <path class="cls-5" d="M263.64,230.88l-.02-.02.66-2.75,2.14-.14,13.34-7.7c2.17-1.25,5.27-.74,6.94,1.13,1.35,1.52,2.71,3.01,4.06,4.47.14.15.24.31.36.47l1.33-.09-.69,2.88h-.02c-.21.91-.8,1.73-1.79,2.3l-14.29,8.24c-2.17,1.25-5.35.81-7.05-1.02-1.35-1.46-2.71-2.95-4.06-4.47-.9-1.01-1.17-2.22-.91-3.31Z"/>
              <path class="cls-7" d="M263.64,230.88l-.02-.02.66-2.75,2.14-.14,13.34-7.7c2.17-1.25,5.27-.74,6.94,1.13,1.35,1.52,2.71,3.01,4.06,4.47.14.15.24.31.36.47l1.33-.09-.69,2.88h-.02c-.21.91-.8,1.73-1.79,2.3l-14.29,8.24c-2.17,1.25-5.35.81-7.05-1.02-1.35-1.46-2.71-2.95-4.06-4.47-.9-1.01-1.17-2.22-.91-3.31Z"/>
              <path class="cls-5" d="M265.22,231.42c1.35,1.52,2.71,3.01,4.06,4.47,1.71,1.84,4.88,2.28,7.05,1.02l14.29-8.24c2.17-1.25,2.52-3.72.81-5.56-1.35-1.46-2.7-2.96-4.06-4.47-1.67-1.87-4.77-2.38-6.94-1.13l-14.29,8.24c-2.17,1.25-2.6,3.8-.93,5.67Z"/>
            </g>
          </g>
          <g class="cls-23">
            <path class="cls-17" d="M305.04,220.34l11.14-6.43c4.34-2.51,5.51-6.97,2.71-10.06-2.8-3.09-8.55-3.61-12.89-1.11l-11.14,6.43c-1.74,1-2.08,3.04-.75,4.54,1.76,1.98,3.52,3.93,5.28,5.81,1.37,1.46,3.91,1.82,5.65.82Z"/>
            <path class="cls-17" d="M250.77,251.69l11.14-6.43c1.74-1,2.01-2.98.64-4.45-1.76-1.88-3.51-3.83-5.28-5.81-1.33-1.5-3.82-1.91-5.55-.9l-11.14,6.43c-4.34,2.51-5.65,7.09-2.84,10.18,2.81,3.09,8.68,3.49,13.03.98Z"/>
            <path class="cls-17" d="M265.22,231.42c1.35,1.52,2.71,3.01,4.06,4.47,1.71,1.84,4.88,2.28,7.05,1.02l14.29-8.24c2.17-1.25,2.52-3.72.81-5.56-1.35-1.46-2.7-2.96-4.06-4.47-1.67-1.87-4.77-2.38-6.94-1.13l-14.29,8.24c-2.17,1.25-2.6,3.8-.93,5.67Z"/>
          </g>
        </g>
        <g>
          <g>
            <path class="cls-5" d="M286.89,262.28l-2.94.07-8.24-6.29c-1.32-1.01-3.55-1.15-4.98-.32l-12.59,7.26-3.95.1v3.22h.01c0,.57.3,1.14.92,1.62l10.24,7.82c1.32,1.01,3.55,1.15,4.98.32l15.4-8.87c.76-.44,1.14-1.07,1.13-1.71h.01s0-3.22,0-3.22Z"/>
            <path class="cls-7" d="M286.89,262.28l-2.94.07-8.24-6.29c-1.32-1.01-3.55-1.15-4.98-.32l-12.59,7.26-3.95.1v3.22h.01c0,.57.3,1.14.92,1.62l10.24,7.82c1.32,1.01,3.55,1.15,4.98.32l15.4-8.87c.76-.44,1.14-1.07,1.13-1.71h.01s0-3.22,0-3.22Z"/>
            <path class="cls-5" d="M255.33,261.4l15.4-8.87c1.44-.83,3.67-.68,4.98.32l10.24,7.82c1.32,1.01,1.22,2.49-.21,3.32l-15.4,8.87c-1.44.83-3.67.68-4.98-.32l-10.24-7.82c-1.32-1.01-1.22-2.49.21-3.32Z"/>
            <path class="cls-14" d="M255.33,261.4l15.4-8.87c1.44-.83,3.67-.68,4.98.32l10.24,7.82c1.32,1.01,1.22,2.49-.21,3.32l-15.4,8.87c-1.44.83-3.67.68-4.98-.32l-10.24-7.82c-1.32-1.01-1.22-2.49.21-3.32Z"/>
          </g>
          <g>
            <path class="cls-5" d="M346.95,308.11l-2.94.07-8.24-6.29c-1.32-1.01-3.55-1.15-4.98-.32l-12.59,7.26-3.95.1v3.22h.01c0,.57.3,1.14.92,1.62l10.24,7.82c1.32,1.01,3.55,1.15,4.98.32l15.4-8.87c.76-.44,1.14-1.07,1.13-1.71h.01s0-3.22,0-3.22Z"/>
            <path class="cls-7" d="M346.95,308.11l-2.94.07-8.24-6.29c-1.32-1.01-3.55-1.15-4.98-.32l-12.59,7.26-3.95.1v3.22h.01c0,.57.3,1.14.92,1.62l10.24,7.82c1.32,1.01,3.55,1.15,4.98.32l15.4-8.87c.76-.44,1.14-1.07,1.13-1.71h.01s0-3.22,0-3.22Z"/>
            <path class="cls-5" d="M315.39,307.23l15.4-8.87c1.44-.83,3.67-.68,4.98.32l10.24,7.82c1.32,1.01,1.22,2.49-.21,3.32l-15.4,8.87c-1.44.83-3.67.68-4.98-.32l-10.24-7.82c-1.32-1.01-1.22-2.49.21-3.32Z"/>
            <path class="cls-14" d="M315.39,307.23l15.4-8.87c1.44-.83,3.67-.68,4.98.32l10.24,7.82c1.32,1.01,1.22,2.49-.21,3.32l-15.4,8.87c-1.44.83-3.67.68-4.98-.32l-10.24-7.82c-1.32-1.01-1.22-2.49.21-3.32Z"/>
          </g>
          <g>
            <path class="cls-5" d="M306.91,277.56l-2.94.07-8.24-6.29c-1.32-1.01-3.55-1.15-4.98-.32l-12.59,7.26-3.95.1v3.22h.01c0,.57.3,1.14.92,1.62l10.24,7.82c1.32,1.01,3.55,1.15,4.98.32l15.4-8.87c.76-.44,1.14-1.07,1.13-1.71h.01s0-3.22,0-3.22Z"/>
            <path class="cls-7" d="M306.91,277.56l-2.94.07-8.24-6.29c-1.32-1.01-3.55-1.15-4.98-.32l-12.59,7.26-3.95.1v3.22h.01c0,.57.3,1.14.92,1.62l10.24,7.82c1.32,1.01,3.55,1.15,4.98.32l15.4-8.87c.76-.44,1.14-1.07,1.13-1.71h.01s0-3.22,0-3.22Z"/>
            <path class="cls-5" d="M275.35,276.68l15.4-8.87c1.44-.83,3.67-.68,4.98.32l10.24,7.82c1.32,1.01,1.22,2.49-.21,3.32l-15.4,8.87c-1.44.83-3.67.68-4.98-.32l-10.24-7.82c-1.32-1.01-1.22-2.49.21-3.32Z"/>
            <path class="cls-14" d="M275.35,276.68l15.4-8.87c1.44-.83,3.67-.68,4.98.32l10.24,7.82c1.32,1.01,1.22,2.49-.21,3.32l-15.4,8.87c-1.44.83-3.67.68-4.98-.32l-10.24-7.82c-1.32-1.01-1.22-2.49.21-3.32Z"/>
          </g>
          <g>
            <path class="cls-5" d="M326.93,292.83l-2.94.07-8.24-6.29c-1.32-1.01-3.55-1.15-4.98-.32l-12.59,7.26-3.95.1v3.22h.01c0,.57.3,1.14.92,1.62l10.24,7.82c1.32,1.01,3.55,1.15,4.98.32l15.4-8.87c.76-.44,1.14-1.07,1.13-1.71h.01s0-3.22,0-3.22Z"/>
            <path class="cls-7" d="M326.93,292.83l-2.94.07-8.24-6.29c-1.32-1.01-3.55-1.15-4.98-.32l-12.59,7.26-3.95.1v3.22h.01c0,.57.3,1.14.92,1.62l10.24,7.82c1.32,1.01,3.55,1.15,4.98.32l15.4-8.87c.76-.44,1.14-1.07,1.13-1.71h.01s0-3.22,0-3.22Z"/>
            <path class="cls-5" d="M295.37,291.96l15.4-8.87c1.44-.83,3.67-.68,4.98.32l10.24,7.82c1.32,1.01,1.22,2.49-.21,3.32l-15.4,8.87c-1.44.83-3.67.68-4.98-.32l-10.24-7.82c-1.32-1.01-1.22-2.49.21-3.32Z"/>
            <path class="cls-14" d="M295.37,291.96l15.4-8.87c1.44-.83,3.67-.68,4.98.32l10.24,7.82c1.32,1.01,1.22,2.49-.21,3.32l-15.4,8.87c-1.44.83-3.67.68-4.98-.32l-10.24-7.82c-1.32-1.01-1.22-2.49.21-3.32Z"/>
          </g>
          <g>
            <path class="cls-5" d="M317.79,244.47l-2.94.07-8.24-6.29c-1.32-1.01-3.55-1.15-4.98-.32l-12.59,7.26-3.95.1v3.22h.01c0,.57.3,1.14.92,1.62l10.24,7.82c1.32,1.01,3.55,1.15,4.98.32l15.4-8.87c.76-.44,1.14-1.07,1.13-1.71h.01s0-3.22,0-3.22Z"/>
            <path class="cls-7" d="M317.79,244.47l-2.94.07-8.24-6.29c-1.32-1.01-3.55-1.15-4.98-.32l-12.59,7.26-3.95.1v3.22h.01c0,.57.3,1.14.92,1.62l10.24,7.82c1.32,1.01,3.55,1.15,4.98.32l15.4-8.87c.76-.44,1.14-1.07,1.13-1.71h.01s0-3.22,0-3.22Z"/>
            <path class="cls-5" d="M286.23,243.6l15.4-8.87c1.44-.83,3.67-.68,4.98.32l10.24,7.82c1.32,1.01,1.22,2.49-.21,3.32l-15.4,8.87c-1.44.83-3.67.68-4.98-.32l-10.24-7.82c-1.32-1.01-1.22-2.49.21-3.32Z"/>
            <path class="cls-14" d="M286.23,243.6l15.4-8.87c1.44-.83,3.67-.68,4.98.32l10.24,7.82c1.32,1.01,1.22,2.49-.21,3.32l-15.4,8.87c-1.44.83-3.67.68-4.98-.32l-10.24-7.82c-1.32-1.01-1.22-2.49.21-3.32Z"/>
          </g>
          <g>
            <path class="cls-5" d="M377.85,290.31l-2.94.07-8.24-6.29c-1.32-1.01-3.55-1.15-4.98-.32l-12.59,7.26-3.95.1v3.22h.01c0,.57.3,1.14.92,1.62l10.24,7.82c1.32,1.01,3.55,1.15,4.98.32l15.4-8.87c.76-.44,1.14-1.07,1.13-1.71h.01s0-3.22,0-3.22Z"/>
            <path class="cls-7" d="M377.85,290.31l-2.94.07-8.24-6.29c-1.32-1.01-3.55-1.15-4.98-.32l-12.59,7.26-3.95.1v3.22h.01c0,.57.3,1.14.92,1.62l10.24,7.82c1.32,1.01,3.55,1.15,4.98.32l15.4-8.87c.76-.44,1.14-1.07,1.13-1.71h.01s0-3.22,0-3.22Z"/>
            <path class="cls-5" d="M346.29,289.43l15.4-8.87c1.44-.83,3.67-.68,4.98.32l10.24,7.82c1.32,1.01,1.22,2.49-.21,3.32l-15.4,8.87c-1.44.83-3.67.68-4.98-.32l-10.24-7.82c-1.32-1.01-1.22-2.49.21-3.32Z"/>
            <path class="cls-14" d="M346.29,289.43l15.4-8.87c1.44-.83,3.67-.68,4.98.32l10.24,7.82c1.32,1.01,1.22,2.49-.21,3.32l-15.4,8.87c-1.44.83-3.67.68-4.98-.32l-10.24-7.82c-1.32-1.01-1.22-2.49.21-3.32Z"/>
          </g>
          <g>
            <path class="cls-5" d="M337.81,259.75l-2.94.07-8.24-6.29c-1.32-1.01-3.55-1.15-4.98-.32l-12.59,7.26-3.95.1v3.22h.01c0,.57.3,1.14.92,1.62l10.24,7.82c1.32,1.01,3.55,1.15,4.98.32l15.4-8.87c.76-.44,1.14-1.07,1.13-1.71h.01s0-3.22,0-3.22Z"/>
            <path class="cls-7" d="M337.81,259.75l-2.94.07-8.24-6.29c-1.32-1.01-3.55-1.15-4.98-.32l-12.59,7.26-3.95.1v3.22h.01c0,.57.3,1.14.92,1.62l10.24,7.82c1.32,1.01,3.55,1.15,4.98.32l15.4-8.87c.76-.44,1.14-1.07,1.13-1.71h.01s0-3.22,0-3.22Z"/>
            <path class="cls-5" d="M306.25,258.87l15.4-8.87c1.44-.83,3.67-.68,4.98.32l10.24,7.82c1.32,1.01,1.22,2.49-.21,3.32l-15.4,8.87c-1.44.83-3.67.68-4.98-.32l-10.24-7.82c-1.32-1.01-1.22-2.49.21-3.32Z"/>
            <path class="cls-14" d="M306.25,258.87l15.4-8.87c1.44-.83,3.67-.68,4.98.32l10.24,7.82c1.32,1.01,1.22,2.49-.21,3.32l-15.4,8.87c-1.44.83-3.67.68-4.98-.32l-10.24-7.82c-1.32-1.01-1.22-2.49.21-3.32Z"/>
          </g>
          <g>
            <path class="cls-5" d="M357.83,275.03l-2.94.07-8.24-6.29c-1.32-1.01-3.55-1.15-4.98-.32l-12.59,7.26-3.95.1v3.22h.01c0,.57.3,1.14.92,1.62l10.24,7.82c1.32,1.01,3.55,1.15,4.98.32l15.4-8.87c.76-.44,1.14-1.07,1.13-1.71h.01s0-3.22,0-3.22Z"/>
            <path class="cls-7" d="M357.83,275.03l-2.94.07-8.24-6.29c-1.32-1.01-3.55-1.15-4.98-.32l-12.59,7.26-3.95.1v3.22h.01c0,.57.3,1.14.92,1.62l10.24,7.82c1.32,1.01,3.55,1.15,4.98.32l15.4-8.87c.76-.44,1.14-1.07,1.13-1.71h.01s0-3.22,0-3.22Z"/>
            <path class="cls-5" d="M326.27,274.15l15.4-8.87c1.44-.83,3.67-.68,4.98.32l10.24,7.82c1.32,1.01,1.22,2.49-.21,3.32l-15.4,8.87c-1.44.83-3.67.68-4.98-.32l-10.24-7.82c-1.32-1.01-1.22-2.49.21-3.32Z"/>
            <path class="cls-14" d="M326.27,274.15l15.4-8.87c1.44-.83,3.67-.68,4.98.32l10.24,7.82c1.32,1.01,1.22,2.49-.21,3.32l-15.4,8.87c-1.44.83-3.67.68-4.98-.32l-10.24-7.82c-1.32-1.01-1.22-2.49.21-3.32Z"/>
          </g>
          <g>
            <path class="cls-5" d="M348.68,226.66l-2.94.07-8.24-6.29c-1.32-1.01-3.55-1.15-4.98-.32l-12.59,7.26-3.95.1v3.22h.01c0,.57.3,1.14.92,1.62l10.24,7.82c1.32,1.01,3.55,1.15,4.98.32l15.4-8.87c.76-.44,1.14-1.07,1.13-1.71h.01s0-3.22,0-3.22Z"/>
            <path class="cls-7" d="M348.68,226.66l-2.94.07-8.24-6.29c-1.32-1.01-3.55-1.15-4.98-.32l-12.59,7.26-3.95.1v3.22h.01c0,.57.3,1.14.92,1.62l10.24,7.82c1.32,1.01,3.55,1.15,4.98.32l15.4-8.87c.76-.44,1.14-1.07,1.13-1.71h.01s0-3.22,0-3.22Z"/>
            <path class="cls-5" d="M317.12,225.78l15.4-8.87c1.44-.83,3.67-.68,4.98.32l10.24,7.82c1.32,1.01,1.22,2.49-.21,3.32l-15.4,8.87c-1.44.83-3.67.68-4.98-.32l-10.24-7.82c-1.32-1.01-1.22-2.49.21-3.32Z"/>
            <path class="cls-14" d="M317.12,225.78l15.4-8.87c1.44-.83,3.67-.68,4.98.32l10.24,7.82c1.32,1.01,1.22,2.49-.21,3.32l-15.4,8.87c-1.44.83-3.67.68-4.98-.32l-10.24-7.82c-1.32-1.01-1.22-2.49.21-3.32Z"/>
          </g>
          <g>
            <path class="cls-5" d="M408.74,272.49l-2.94.07-8.24-6.29c-1.32-1.01-3.55-1.15-4.98-.32l-12.59,7.26-3.95.1v3.22h.01c0,.57.3,1.14.92,1.62l10.24,7.82c1.32,1.01,3.55,1.15,4.98.32l15.4-8.87c.76-.44,1.14-1.07,1.13-1.71h.01s0-3.22,0-3.22Z"/>
            <path class="cls-7" d="M408.74,272.49l-2.94.07-8.24-6.29c-1.32-1.01-3.55-1.15-4.98-.32l-12.59,7.26-3.95.1v3.22h.01c0,.57.3,1.14.92,1.62l10.24,7.82c1.32,1.01,3.55,1.15,4.98.32l15.4-8.87c.76-.44,1.14-1.07,1.13-1.71h.01s0-3.22,0-3.22Z"/>
            <path class="cls-5" d="M377.18,271.61l15.4-8.87c1.44-.83,3.67-.68,4.98.32l10.24,7.82c1.32,1.01,1.22,2.49-.21,3.32l-15.4,8.87c-1.44.83-3.67.68-4.98-.32l-10.24-7.82c-1.32-1.01-1.22-2.49.21-3.32Z"/>
            <path class="cls-14" d="M377.18,271.61l15.4-8.87c1.44-.83,3.67-.68,4.98.32l10.24,7.82c1.32,1.01,1.22,2.49-.21,3.32l-15.4,8.87c-1.44.83-3.67.68-4.98-.32l-10.24-7.82c-1.32-1.01-1.22-2.49.21-3.32Z"/>
          </g>
          <g>
            <path class="cls-5" d="M388.72,257.21l-2.94.07-8.24-6.29c-1.32-1.01-3.55-1.15-4.98-.32l-12.59,7.26-3.95.1v3.22h.01c0,.57.3,1.14.92,1.62l10.24,7.82c1.32,1.01,3.55,1.15,4.98.32l15.4-8.87c.76-.44,1.14-1.07,1.13-1.71h.01s0-3.22,0-3.22Z"/>
            <path class="cls-7" d="M388.72,257.21l-2.94.07-8.24-6.29c-1.32-1.01-3.55-1.15-4.98-.32l-12.59,7.26-3.95.1v3.22h.01c0,.57.3,1.14.92,1.62l10.24,7.82c1.32,1.01,3.55,1.15,4.98.32l15.4-8.87c.76-.44,1.14-1.07,1.13-1.71h.01s0-3.22,0-3.22Z"/>
            <path class="cls-5" d="M357.16,256.34l15.4-8.87c1.44-.83,3.67-.68,4.98.32l10.24,7.82c1.32,1.01,1.22,2.49-.21,3.32l-15.4,8.87c-1.44.83-3.67.68-4.98-.32l-10.24-7.82c-1.32-1.01-1.22-2.49.21-3.32Z"/>
            <path class="cls-14" d="M357.16,256.34l15.4-8.87c1.44-.83,3.67-.68,4.98.32l10.24,7.82c1.32,1.01,1.22,2.49-.21,3.32l-15.4,8.87c-1.44.83-3.67.68-4.98-.32l-10.24-7.82c-1.32-1.01-1.22-2.49.21-3.32Z"/>
            <g>
              <path class="cls-5" d="M368.7,241.94l-2.94.07-8.24-6.29c-1.32-1.01-3.55-1.15-4.98-.32l-12.59,7.26-3.95.1v3.22h.01c0,.57.3,1.14.92,1.62l10.24,7.82c1.32,1.01,3.55,1.15,4.98.32l15.4-8.87c.76-.44,1.14-1.07,1.13-1.71h.01s0-3.22,0-3.22Z"/>
              <path class="cls-7" d="M368.7,241.94l-2.94.07-8.24-6.29c-1.32-1.01-3.55-1.15-4.98-.32l-12.59,7.26-3.95.1v3.22h.01c0,.57.3,1.14.92,1.62l10.24,7.82c1.32,1.01,3.55,1.15,4.98.32l15.4-8.87c.76-.44,1.14-1.07,1.13-1.71h.01s0-3.22,0-3.22Z"/>
              <path class="cls-5" d="M337.14,241.06l15.4-8.87c1.44-.83,3.67-.68,4.98.32l10.24,7.82c1.32,1.01,1.22,2.49-.21,3.32l-15.4,8.87c-1.44.83-3.67.68-4.98-.32l-10.24-7.82c-1.32-1.01-1.22-2.49.21-3.32Z"/>
              <path class="cls-14" d="M337.14,241.06l15.4-8.87c1.44-.83,3.67-.68,4.98.32l10.24,7.82c1.32,1.01,1.22,2.49-.21,3.32l-15.4,8.87c-1.44.83-3.67.68-4.98-.32l-10.24-7.82c-1.32-1.01-1.22-2.49.21-3.32Z"/>
            </g>
          </g>
        </g>
      </g>
    </g>
  </g>
  <g id="Character">
    <g id="Character-2" data-name="Character">
      <g>
        <path class="cls-11" d="M120.66,147.44h0v-11.09c0-5.74-4.65-10.39-10.39-10.39h0v11.09c0,5.74,4.65,10.39,10.39,10.39Z"/>
        <g>
          <polygon class="cls-5" points="154.46 238.48 121.25 221.61 124.24 277.41 157.46 294.28 154.46 238.48"/>
          <polygon class="cls-13" points="154.46 238.48 121.25 221.61 124.24 277.41 157.46 294.28 154.46 238.48"/>
          <polygon class="cls-5" points="157.46 294.28 173.07 284.12 160.71 234.42 154.46 238.48 157.46 294.28"/>
          <polygon class="cls-5" points="173.07 284.12 162.47 283.32 157.46 294.28 173.07 284.12"/>
          <polygon class="cls-18" points="173.07 284.12 162.47 283.32 157.46 294.28 173.07 284.12"/>
          <polygon class="cls-5" points="162.47 283.32 154.26 234.76 154.46 238.48 157.46 294.28 162.47 283.32"/>
          <polygon class="cls-7" points="162.47 283.32 154.26 234.76 154.46 238.48 157.46 294.28 162.47 283.32"/>
          <polygon class="cls-5" points="121.25 221.61 127.69 221.27 127.49 217.55 160.71 234.42 154.26 234.76 154.46 238.48 121.25 221.61"/>
          <path class="cls-10" d="M143.93,236.54c.03.48-.3.69-.73.47-.43-.22-.8-.78-.82-1.26-.03-.48.3-.69.73-.47.43.22.8.78.82,1.26Z"/>
          <path class="cls-10" d="M133.95,231.58c.03.48-.3.69-.73.47-.43-.22-.8-.78-.82-1.26-.03-.48.3-.69.73-.47s.8.78.82,1.26Z"/>
          <path class="cls-10" d="M150,232.59c.03.48-.3.69-.73.47-.43-.22-.8-.78-.82-1.26-.03-.48.3-.69.73-.47.43.22.8.78.82,1.26Z"/>
          <path class="cls-10" d="M140.13,227.58c.03.48-.3.69-.73.47-.43-.22-.8-.78-.82-1.26-.03-.48.3-.69.73-.47s.8.78.82,1.26Z"/>
          <polygon class="cls-5" points="160.71 234.42 154.26 234.76 162.47 283.32 173.07 284.12 160.71 234.42"/>
          <polygon class="cls-3" points="160.71 234.42 154.26 234.76 162.47 283.32 173.07 284.12 160.71 234.42"/>
          <polygon class="cls-5" points="127.49 217.55 127.69 221.27 127.89 224.99 129.58 225.84 127.49 217.55"/>
          <polygon class="cls-3" points="127.49 217.55 127.69 221.27 127.89 224.99 129.58 225.84 127.49 217.55"/>
        </g>
        <path class="cls-1" d="M112.56,135.1c4.48-.24,13.55.14,16.87,12.95,2.8,10.8,10.37,34.44,12.34,44.93,1.5,7.98,3.56,13.61,3.86,19.19-.56,2.87-2.85,6.04-9.15,7.02-6.05-1.59-4.95-2.58-5.37-7.9-.42-5.32,2.32-6.84,1.45-13.15-1.82-13.24-13.68-40.86-13.68-40.86l-6.32-22.18Z"/>
        <path class="cls-11" d="M149.22,232.67c-.22,0-.42-.15-.47-.37-.01-.07-1.48-6.56-3.13-11.48-1.3-3.87-4.15-4.74-6.67-5.51-.56-.17-1.09-.33-1.56-.52-.25-.1-.37-.37-.27-.62.1-.25.37-.37.62-.27.46.18.96.33,1.5.49,2.6.79,5.84,1.78,7.3,6.12,1.67,4.96,3.14,11.51,3.16,11.57.06.26-.1.51-.36.57-.03,0-.07.01-.11.01Z"/>
        <path class="cls-2" d="M141.44,206.64c-.87,1.43-2.03,4.78-2.19,5.89-.16,1.11-1.97.24-2.37-1.21s-.37-6.93-.37-6.93c0,0-.87,4.43-.4,6.54s1.06,2.54,2.54,2.99c1.49.45,1.3-.89,1.66-2.65s1.14-4.63,1.14-4.63Z"/>
        <path class="cls-11" d="M142.59,235.89l-.69-12.87c-.14-2.84-.31-6.07-5.09-8.53-1.68-.86-2.93-1.11-3.51-.69-.58.42-.44,1.46-.44,1.47l.85,15.82c.01.26-.19.49-.45.5-.26.02-.49-.19-.5-.45l-.85-15.77s-.23-1.58.83-2.34c.93-.67,2.41-.47,4.51.61,5.28,2.72,5.46,6.38,5.61,9.33l.69,12.87c.01.26-.19.49-.45.5h0c-.26.01-.49-.19-.5-.45Z"/>
        <path class="cls-11" d="M139.35,227.52c-.22,0-.42-.15-.47-.38l-2.13-9.64c-.06-.26.11-.51.36-.57.26-.06.51.11.57.36l2.13,9.64c.06.26-.11.51-.36.57-.03,0-.07.01-.1.01Z"/>
        <path class="cls-2" d="M136.12,214.15c-1.81-1.1-5.33-2.71-6.15-1.73s-1.87,5.04,2.21,6.42c4.08,1.38,8.17-.7,8.17-.7l-4.23-3.99Z"/>
      </g>
      <g>
        <path class="cls-11" d="M105.96,128.5h-3.91c-11.05,0-20.02-8.96-20.02-20.02h0c0-11.79,9.56-21.35,21.35-21.35h1.25c11.79,0,21.35,9.56,21.35,21.35h0c0,11.05-8.96,20.02-20.02,20.02Z"/>
        <path class="cls-11" d="M84.86,92.77c1.56.31,2.57,1.82,2.26,3.38l-5.64-1.12c.31-1.56,1.82-2.57,3.38-2.26Z"/>
        <path class="cls-11" d="M88.54,91.55c.49,1.51-.34,3.13-1.85,3.62l-1.77-5.47c1.51-.49,3.13.34,3.62,1.85Z"/>
        <g>
          <path class="cls-1" d="M116.75,355c-1.31-.99-2.79-1.94-3.94-2.99-2.55-2.33-3.33-8.23-3.51-10.22-.17-1.88-.24-3.95-.05-5.1.51-3.96,3.44-12.79,3.44-12.79,0,0-9.47-6.23-9.61-6.15-.14.08-1.71,11.45-3.26,13.32-1.88,1.64-3.49,2.11-4.54,4.28-.93,2.7-.55,4.14.88,6.95,1.04,2.04,1.57,4.42,2.34,7.56.81,3.28.47,8.65,8.62,10.29,4.32.87,7.31.29,9.37-.63,2.32-1.04,2.3-2.98.27-4.51Z"/>
          <path class="cls-11" d="M95.27,335.35c-.93,2.7-.55,4.14.88,6.95,1.04,2.04,1.57,4.42,2.34,7.56.81,3.28.47,8.65,8.62,10.29,4.32.87,7.31.29,9.37-.63,2.32-1.04,2.3-2.98.27-4.51-1.03-.78-2.16-1.53-3.15-2.32,0,0,0,0,0,0,1.08,1.94-4.11,2.4-7.09.6-2.99-1.79-6.72-14.39-7.09-17.22s.41-5,.41-5c.11-.15.25-.38.25-.38-.1-.06-.31-.13-.66.13-1.64,1.25-3.2,2.59-4.14,4.53Z"/>
          <path class="cls-19" d="M126.74,191.18c1.47,16,5.88,70.87,4.7,81.21-.54,4.69-20.42,56.89-20.42,56.89,0,0-4.84,1.5-9.42-3.69,2.37-22.44,4.62-46.48,9.52-53.93-.93-7.72-10.56-46.18-10.56-46.18l26.17-34.3Z"/>
          <path class="cls-11" d="M90.87,347.16v-1.41c.56,1.66,3.14,8.79,7.06,12.37,3.12,2.84,7.37,6.13,8.45,9.29,1.12,3.3-5.92,4.4-8.83,3.89-3.38-.6-7.76-2.52-10.14-5.45-1.68-2.06-2.74-4.5-3.94-6.11-1.2-1.62-3.95-3.42-4.6-5.3-.36-1.03.07-3.28.57-5.19.46-1.75.95-3.67,1.55-3.5,0,.21,0,1.08,0,1.08.72.79,2.7,1.58,4.94,1.67,1.45.06,4.95-.23,4.94-1.33Z"/>
          <path class="cls-1" d="M100.76,360.61c-.97-.86-1.94-1.71-2.82-2.51-2.74-2.5-4.83-6.73-6.02-9.63-.68-1.65-1.04-3.41-1.04-5.2v-5.63h-9.88v9.17h0s0,0,0,0v.24l.05.02c.48,2.05,5.01,7.51,7.58,11.07,1.73,2.39,5.01,5.42,8.93,5.95,3.71.5,5.61-.68,3.2-3.49Z"/>
          <path class="cls-19" d="M82.96,193.63c-7.66,16.73.28,75.65.28,75.65-.23,2.71-3.33,8.06-4.49,20-1.37,14.12,2.14,49.56,2.14,49.56,0,0,4.57,2.99,9.98.4,0,0,9.41-53.38,11.19-67.42,1.54-12.25,5.78-49.93,5.78-49.93l18.9-30.71-43.77,2.45Z"/>
        </g>
        <path class="cls-5" d="M99.29,135.3l-10.34.48c-1.41.45-5.2,4-6.69,9.46-1.15,4.21-.64,9.41.79,13.54l6.84,19.79s-3.2,7.74-6.92,15.06c17.17,9.58,38.61,4.55,43.77-2.45.22-1.48-.08-8.17.34-15.78.44-8.11,1.56-17.27.28-22.29-2.37-9.31-6.8-18.05-15.63-18.05l-12.44.23Z"/>
        <g>
          <path class="cls-1" d="M118.76,96.02c2.32,1.37,5.19,7.21,4.91,19.45-.24,10.37-3.6,12.93-5.29,13.67-1.69.74-4.94.29-8.11-.24v6.22s4.37,5.08,4.1,7.94c-.28,2.85-6.32,3.53-10.41.74-4.09-2.79-6.72-7.03-6.72-7.03v-13.79s-2.7,1.18-5.63-.73c-3.52-2.28-3.63-8.07-1.6-10.13,2.03-2.06,6.41-1.41,7.23,1.44,0,0,5.05.18,11.77-3.51,6.72-3.69,9.3-10.02,9.75-14.04Z"/>
          <path class="cls-11" d="M112.53,113.02c.04.75-.52,1.38-1.23,1.42-.72.03-1.33-.54-1.37-1.29-.04-.75.52-1.38,1.23-1.42.72-.03,1.33.54,1.37,1.29Z"/>
          <path class="cls-2" d="M112.43,121.66l3.03.97c-.25.87-1.13,1.35-1.97,1.09-.84-.27-1.31-1.19-1.06-2.05Z"/>
          <path class="cls-11" d="M122.78,108.86l-2.64-1.83c.48-.75,1.46-.96,2.19-.45.73.51.93,1.53.45,2.28Z"/>
          <path class="cls-11" d="M122.4,112.78c.04.75-.52,1.38-1.23,1.41-.72.03-1.33-.54-1.37-1.29-.04-.75.52-1.38,1.23-1.42.72-.03,1.33.54,1.37,1.29Z"/>
          <polygon class="cls-2" points="116.02 111.17 116.23 119.03 120.36 117.75 116.02 111.17"/>
          <path class="cls-2" d="M110.27,128.9c-3.34-.44-10.2-2.41-11.27-5.12,0,0,.36,1.7,2.41,3.46s8.86,3.74,8.86,3.74v-2.08Z"/>
        </g>
        <path class="cls-11" d="M108.19,257.26l-2.94-12.57,2.59-22.78s8.15-3.07,12.48-9.38c0,0-2.39,6.66-9.25,11.36l-4.44,20.74,1.57,12.64Z"/>
      </g>
      <g>
        <polygon class="cls-5" points="100.35 232.77 64.6 212.13 57.45 272.33 93.2 292.97 100.35 232.77"/>
        <polygon class="cls-13" points="100.35 232.77 64.6 212.13 57.45 272.33 93.2 292.97 100.35 232.77"/>
        <polygon class="cls-5" points="111.07 282.65 100.35 280.58 93.2 292.97 111.07 282.65"/>
        <polygon class="cls-18" points="111.07 282.65 100.35 280.58 93.2 292.97 111.07 282.65"/>
        <polygon class="cls-5" points="100.35 280.58 103.92 226.58 100.35 232.77 93.2 292.97 100.35 280.58"/>
        <polygon class="cls-7" points="100.35 280.58 103.92 226.58 100.35 232.77 93.2 292.97 100.35 280.58"/>
        <polygon class="cls-5" points="64.6 212.13 75.32 210.07 75.32 205.94 111.07 226.58 103.92 226.58 100.35 232.77 64.6 212.13"/>
        <path class="cls-10" d="M87.22,232.18c0,.53-.37.75-.83.48-.46-.27-.83-.91-.83-1.45,0-.53.37-.75.83-.48.46.27.83.91.83,1.45Z"/>
        <path class="cls-10" d="M76.74,225.52c0,.53-.37.75-.83.48-.46-.27-.83-.91-.83-1.45,0-.53.37-.75.83-.48.46.27.83.91.83,1.45Z"/>
        <path class="cls-10" d="M98.32,225.04c0,.53-.37.75-.83.48-.46-.27-.83-.91-.83-1.45,0-.53.37-.75.83-.48.46.27.83.91.83,1.45Z"/>
        <path class="cls-10" d="M87.72,219.08c0,.53-.37.75-.83.48s-.83-.91-.83-1.45c0-.53.37-.75.83-.48.46.27.83.91.83,1.45Z"/>
        <polygon class="cls-5" points="111.07 226.58 103.92 226.58 100.35 280.58 111.07 282.65 111.07 226.58"/>
        <polygon class="cls-5" points="75.32 210.07 75.32 218.32 64.6 212.13 75.32 210.07"/>
        <polygon class="cls-3" points="111.07 226.58 103.92 226.58 100.35 280.58 111.07 282.65 111.07 226.58"/>
        <polygon class="cls-3" points="75.32 210.07 75.32 218.32 64.6 212.13 75.32 210.07"/>
      </g>
      <path class="cls-11" d="M75.9,225.36c-.06,0-.13-.01-.19-.04-.25-.11-.37-.4-.27-.66l9.1-21.53c.11-.25.4-.37.66-.27.25.11.37.4.27.66l-9.1,21.53c-.08.19-.27.31-.46.31Z"/>
      <path class="cls-11" d="M86.88,219.01c-.28,0-.5-.22-.5-.5v-14.91c0-.28.22-.5.5-.5s.5.22.5.5v14.91c0,.28-.22.5-.5.5Z"/>
      <path class="cls-1" d="M69.96,180.48l13.87-19.41s3.33-3.13,4.85-7.93c2.42-7.67,2.8-12.17.26-17.36-5.64,0-8.94.57-15.35,11.42-5.22,8.85-12.97,23.94-14.9,27.2-2.37,4.01-3.07,5.11-1,9.07,2.07,3.96,9.81,14.13,16.34,21.78,6.53,7.65,10.35,10.23,15.23,11.37,4.88,1.13,7.06.17,9.81-2.35,2.75-2.53.81-4.78-1.75-5.37-2.55-.59-5.3-1.69-6.84-2.8-1.56-1.13-2.05-2-.59-2.06,1.86-.08,3.6-.45,4.08-1.76.6-1.62-.94-1.19-3.07-1.84-2.13-.65-6.87-1.7-8.45-1.62-3.48.17-12.51-18.33-12.51-18.33"/>
      <path class="cls-11" d="M95.87,125.85h1.37v12.96c0,5.24-4.25,9.49-9.49,9.49h-1.37v-12.96c0-5.24,4.25-9.49,9.49-9.49Z"/>
      <g>
        <path class="cls-11" d="M96.99,224.38v-11.29c0-1.65-.49-4.28-1.84-4.77-.26-.09-.39-.38-.3-.64.1-.26.38-.39.64-.3,2.43.89,2.5,5.22,2.5,5.71v11.29c0,.28-.22.5-.5.5h0c-.28,0-.5-.22-.5-.5Z"/>
        <path class="cls-11" d="M86.51,232.13c-.07,0-.13-.01-.19-.04-.25-.11-.37-.4-.27-.66.02-.06,2.45-5.82,5.34-14.08,2.8-8.03,1.82-9.59,1.26-9.9-.24-.13-.33-.44-.2-.68.13-.24.43-.33.68-.2,1.77.96,1.52,4.49-.8,11.11-2.9,8.3-5.34,14.09-5.36,14.14-.08.19-.27.31-.46.31Z"/>
      </g>
    </g>
  </g>
</svg>