<?xml version="1.0" encoding="UTF-8"?>
<svg xmlns="http://www.w3.org/2000/svg" xmlns:xlink="http://www.w3.org/1999/xlink" viewBox="0 0 3710 3710">
  <defs>
    <style>
      .cls-1 {
        fill: url(#linear-gradient-25);
      }

      .cls-1, .cls-2, .cls-3, .cls-4, .cls-5, .cls-6, .cls-7, .cls-8, .cls-9, .cls-10, .cls-11, .cls-12, .cls-13, .cls-14, .cls-15, .cls-16, .cls-17, .cls-18, .cls-19, .cls-20, .cls-21, .cls-22, .cls-23, .cls-24, .cls-25, .cls-26, .cls-27, .cls-28, .cls-29, .cls-30 {
        stroke-width: 0px;
      }

      .cls-2 {
        fill: url(#linear-gradient-11);
      }

      .cls-3 {
        fill: url(#linear-gradient-12);
      }

      .cls-4 {
        fill: url(#linear-gradient-13);
      }

      .cls-5 {
        fill: url(#linear-gradient-10);
      }

      .cls-6 {
        fill: url(#linear-gradient-17);
      }

      .cls-7 {
        fill: url(#linear-gradient-16);
      }

      .cls-8 {
        fill: url(#linear-gradient-19);
      }

      .cls-9 {
        fill: url(#linear-gradient-15);
      }

      .cls-10 {
        fill: url(#linear-gradient-23);
      }

      .cls-11 {
        fill: url(#linear-gradient-21);
      }

      .cls-12 {
        fill: url(#linear-gradient-18);
      }

      .cls-13 {
        fill: url(#linear-gradient-14);
      }

      .cls-14 {
        fill: url(#linear-gradient-22);
      }

      .cls-15 {
        fill: url(#linear-gradient-20);
      }

      .cls-16 {
        fill: url(#linear-gradient-24);
      }

      .cls-17 {
        opacity: .65;
      }

      .cls-17, .cls-18, .cls-19, .cls-28, .cls-30 {
        fill: #fff;
      }

      .cls-18 {
        opacity: .56;
      }

      .cls-31, .cls-29 {
        opacity: .3;
      }

      .cls-19 {
        opacity: .5;
      }

      .cls-20 {
        fill: url(#linear-gradient-4);
      }

      .cls-21 {
        fill: url(#linear-gradient-2);
      }

      .cls-22 {
        fill: url(#linear-gradient-3);
      }

      .cls-23 {
        fill: url(#linear-gradient-8);
      }

      .cls-24 {
        fill: url(#linear-gradient-9);
      }

      .cls-25 {
        fill: url(#linear-gradient-7);
      }

      .cls-26 {
        fill: url(#linear-gradient-5);
      }

      .cls-27 {
        fill: url(#linear-gradient-6);
      }

      .cls-32 {
        isolation: isolate;
      }

      .cls-29 {
        fill: url(#linear-gradient);
      }

      .cls-30 {
        mix-blend-mode: soft-light;
      }
    </style>
    <linearGradient id="linear-gradient" x1="3394.8" y1="3594.15" x2="1353.4" y2="1390.73" gradientUnits="userSpaceOnUse">
      <stop offset="0" stop-color="#b37cff"/>
      <stop offset="1" stop-color="#f895e7"/>
    </linearGradient>
    <linearGradient id="linear-gradient-2" x1="2080.88" y1="3196.13" x2="2049.05" y2="2565.73" gradientUnits="userSpaceOnUse">
      <stop offset="0" stop-color="#2b3582"/>
      <stop offset="1" stop-color="#150e42"/>
    </linearGradient>
    <linearGradient id="linear-gradient-3" x1="2007.78" y1="2021.24" x2="1884.37" y2="-54.95" xlink:href="#linear-gradient-2"/>
    <linearGradient id="linear-gradient-4" x1="2092.14" y1="119.48" x2="1899.77" y2="2602.2" gradientUnits="userSpaceOnUse">
      <stop offset="0" stop-color="#53d8ff"/>
      <stop offset="1" stop-color="#3840f7"/>
    </linearGradient>
    <linearGradient id="linear-gradient-5" x1="2228.67" y1="2362.52" x2="1889.9" y2="3014.77" xlink:href="#linear-gradient-2"/>
    <linearGradient id="linear-gradient-6" x1="3492.53" y1="381.8" x2="-574.35" y2="3479.6" gradientUnits="userSpaceOnUse">
      <stop offset="0" stop-color="#fdf53f"/>
      <stop offset=".66" stop-color="#e57a58"/>
      <stop offset="1" stop-color="#d93c65"/>
    </linearGradient>
    <linearGradient id="linear-gradient-7" x1="2475.4" y1="279.66" x2="1707.65" y2="2060.06" gradientUnits="userSpaceOnUse">
      <stop offset="0" stop-color="#a737d5"/>
      <stop offset="1" stop-color="#ef497a"/>
    </linearGradient>
    <linearGradient id="linear-gradient-8" x1="6789.46" y1="948.24" x2="7836.99" y2="948.24" gradientTransform="translate(-5471.54 -1929.64) rotate(22.47)" xlink:href="#linear-gradient-7"/>
    <linearGradient id="linear-gradient-9" x1="-1087.81" y1="4279.36" x2="-83.17" y2="4279.36" gradientTransform="translate(-1946.34 -1491.11) rotate(-50.87)" gradientUnits="userSpaceOnUse">
      <stop offset="0" stop-color="#ce1567"/>
      <stop offset="1" stop-color="#7a1dbc"/>
    </linearGradient>
    <linearGradient id="linear-gradient-10" x1="2139.26" y1="2001.49" x2="500.94" y2="2898.18" xlink:href="#linear-gradient-2"/>
    <linearGradient id="linear-gradient-11" x1="1400.38" y1="2222.29" x2="1000.35" y2="4674.15" xlink:href="#linear-gradient-6"/>
    <linearGradient id="linear-gradient-12" x1="2000.2" y1="2276.48" x2="606.17" y2="3752.12" gradientTransform="translate(2735.26 5892.17) rotate(-180)" xlink:href="#linear-gradient-2"/>
    <linearGradient id="linear-gradient-13" x1="1808.51" y1="1466.88" x2="1177" y2="2931.32" xlink:href="#linear-gradient-7"/>
    <linearGradient id="linear-gradient-14" x1="2528.77" y1="1640.45" x2="3041.46" y2="1640.45" xlink:href="#linear-gradient"/>
    <linearGradient id="linear-gradient-15" x1="3066.38" y1="1505.41" x2="3096.32" y2="1505.41" xlink:href="#linear-gradient"/>
    <linearGradient id="linear-gradient-16" x1="3221.8" y1="1734.21" x2="3242.34" y2="1734.21" xlink:href="#linear-gradient"/>
    <linearGradient id="linear-gradient-17" x1="2718.66" y1="1967.92" x2="3246.73" y2="1967.92" xlink:href="#linear-gradient"/>
    <linearGradient id="linear-gradient-18" x1="2666.02" y1="2079.24" x2="2695.58" y2="2079.24" xlink:href="#linear-gradient"/>
    <linearGradient id="linear-gradient-19" x1="4879.7" y1="1172.89" x2="5705.48" y2="2629.77" gradientTransform="translate(6622.93 -1869.9) rotate(119.58)" gradientUnits="userSpaceOnUse">
      <stop offset="0" stop-color="#cb236d"/>
      <stop offset="1" stop-color="#4c246d"/>
    </linearGradient>
    <linearGradient id="linear-gradient-20" x1="2417.07" y1="2783.28" x2="3091.27" y2="1704.56" xlink:href="#linear-gradient-2"/>
    <linearGradient id="linear-gradient-21" x1="3070.2" y1="1748.62" x2="1755.58" y2="3846.97" xlink:href="#linear-gradient-6"/>
    <linearGradient id="linear-gradient-22" x1="2960.77" y1="1502.73" x2="2452.4" y2="2681.63" xlink:href="#linear-gradient-7"/>
    <linearGradient id="linear-gradient-23" x1="2360.17" y1="3443.22" x2="3093.47" y2="2546.95" xlink:href="#linear-gradient-2"/>
    <linearGradient id="linear-gradient-24" x1="2937.4" y1="2443.52" x2="2761.23" y2="4147.36" gradientTransform="translate(-10.1 .22) rotate(-.71)" xlink:href="#linear-gradient-6"/>
    <linearGradient id="linear-gradient-25" x1="3149.17" y1="2183.7" x2="2787.89" y2="3021.5" xlink:href="#linear-gradient-7"/>
  </defs>
  <g class="cls-32">
    <g id="Illustration">
      <g>
        <path class="cls-29" d="M3110.32,2338.5c-280.5,655.64-1020.94,937.26-1601.09,889.24-158.4-13.11-477.11-39.49-725.97-274.82-477.9-451.94-404.3-1396.62,53.19-1952.79,58.92-71.62,466.72-551.5,1102.2-545.07,465.27,4.7,791.84,267.53,831.54,300.27,50.16,41.36,160.8,139.65,260.52,295.59,234.29,366.39,254.89,877.87,79.6,1287.58Z"/>
        <g>
          <g>
            <polygon class="cls-21" points="1800.09 2188.82 1747.21 2663.08 2360.72 2663.08 2280.81 2188.82 1800.09 2188.82"/>
            <path class="cls-22" d="M732.54,986.46v1117.68c0,91.94,73.27,167.13,165.18,169.5,408.23,10.53,1836.03,36.05,2224.63,30.32,66.79-.98,120.9-54.43,122.83-121.2,7.49-259.65,19.66-884.03-25.37-1173.9-9.48-61.04-61.01-106.69-122.76-108.67-342.05-10.94-1855.6-45.69-2244.03-36.96-66.99,1.5-120.48,56.23-120.48,123.23Z"/>
            <path class="cls-20" d="M802.67,981.02v1061.87c0,53.68,43.09,97.42,96.77,98.23l2167.01,26.77c53.22.8,96.84-42.02,97.03-95.24l3.63-1052.39c.14-38.05-30.18-69.23-68.22-70.16l-2218.62-44.82c-42.55-1.04-77.6,33.17-77.6,75.74Z"/>
            <path class="cls-17" d="M3179.8,2211.89h-.06l-2377.13-40.5c-1.92-.03-3.46-1.62-3.42-3.54.03-1.92,1.6-3.44,3.54-3.42l2377.13,40.5c1.92.03,3.46,1.62,3.42,3.54-.03,1.9-1.59,3.42-3.48,3.42Z"/>
            <path class="cls-26" d="M2492.86,2760.11h-897.91c-24.39,0-42.71-17.37-38-36.02l11.52-45.57c3.46-13.7,18.54-23.76,36.45-24.32l865.62-27.01c18.71-.58,35.27,9.35,39.35,23.59l20.77,72.58c5.4,18.86-13.01,36.75-37.8,36.75Z"/>
            <path class="cls-27" d="M802.67,981.02v1061.87c0,53.68,43.09,97.42,96.77,98.23l2167.01,26.77c53.22.8,96.84-42.02,97.03-95.24l3.63-1052.39c.14-38.05-30.18-69.23-68.22-70.16l-2218.62-44.82c-42.55-1.04-77.6,33.17-77.6,75.74Z"/>
          </g>
          <g>
            <ellipse class="cls-28" cx="2024.26" cy="1442.08" rx="340.88" ry="345.24"/>
            <path class="cls-25" d="M2012.26,1628.11c-14.78,0-28.52-7.84-36.17-20.73l-128.24-216.19c-12-20.23-5.54-46.49,14.44-58.64,19.97-12.15,45.89-5.61,57.9,14.62l89.02,150.08,117.68-234.1c10.57-21.03,35.99-29.4,56.75-18.69,20.77,10.71,29.03,36.44,18.46,57.47l-152.24,302.84c-6.96,13.85-20.8,22.78-36.13,23.32-.49.02-.99.03-1.48.03Z"/>
          </g>
        </g>
        <g>
          <path class="cls-23" d="M672.41,985.74c-2.59-11.04,12.94-18.38,22.45-10.67,96.6,78.33,328.69,312.89,270.85,722.81-72.57,514.3,51.5,701.96,205.93,816.43,0,0-212.09-53.83-345.53-244.26-327.62-467.54-107.58-1087.96-153.7-1284.31Z"/>
          <path class="cls-30" d="M745.92,1146.38c12.08,57.25,22.85,114.68,31.18,172.37,8.67,57.64,15.32,115.48,19.87,173.42,4.29,57.95,7.32,115.95,7.49,173.98.47,58.03-1.94,116.01-4.6,174.22-2.28,58.19-4.96,116.79-.7,175.81,4.19,58.9,16.59,118.31,41.19,174.01,6.15,13.88,12.62,27.72,19.96,41.09,7.06,13.49,14.82,26.72,22.85,39.83,16.21,26.14,34.46,51.4,54.79,75.38,40.82,47.87,90.05,90.33,144.28,126.26,5.71,3.78,13.89,2.85,18.27-2.08,4.3-4.84,3.34-11.74-2.1-15.57l-.04-.03c-12.9-9.06-25.67-18.24-37.92-27.88-6.22-4.74-12.17-9.7-18.24-14.57-5.84-5.06-11.92-9.92-17.57-15.13-23.03-20.5-44.36-42.36-63.72-65.49-38.93-46.03-70.1-97.32-93.71-150.49-11.46-26.71-20.62-54.1-27.31-82.01-6.67-27.91-10.86-56.31-13.18-84.94-4.64-57.29-2.55-115.31-.75-173.51,1.71-58.21,2.96-116.72,1.43-175.18-.68-29.23-1.96-58.44-3.85-87.62-.85-14.59-2.02-29.17-3.17-43.75-1.31-14.57-2.71-29.13-4.24-43.67-6.27-58.18-14.59-116.16-25.03-173.84-10.75-57.63-23.27-115-38.33-171.85-.43-1.63-2.3-2.64-4.19-2.27-1.83.36-2.99,1.91-2.66,3.48Z"/>
        </g>
        <g>
          <path class="cls-24" d="M922.64,2216.76c-11.84,12.57-32.67,8.95-39.8-6.78-39.31-86.79-128.28-342.24,18.65-636.52,124.07-248.51,167.73-395.05,182.94-462.95,3.22-14.36,22.89-16.26,28.83-2.8,65.53,148.52,238.54,653.71-190.63,1109.06Z"/>
          <path class="cls-30" d="M901.12,2207.6c-.42.08-.85.11-1.3.1-3.72-.06-6.69-3.12-6.64-6.84.07-4.22,8.28-426.09,165.18-779.42,1.51-3.4,5.49-4.93,8.9-3.43,3.4,1.51,4.94,5.49,3.43,8.9-155.76,350.76-163.96,769.96-164.03,774.15-.05,3.28-2.43,5.98-5.54,6.53Z"/>
        </g>
        <g>
          <path class="cls-5" d="M583.13,2882.92c0,15.68,12.84,28.51,28.54,28.51h1543.2c15.7,0,28.54-12.83,28.54-28.51l12.84-886.83c0-15.68-18.47-46.29-52.33-43.99l-1508.18-39.02c-19.69-.51-38.73,7.07-52.68,20.97-13.95,13.9-21.58,32.91-21.11,52.58l21.19,896.3Z"/>
          <path class="cls-2" d="M611.31,2855.57c0,14.85,12.15,27,27,27h1479.35c14.85,0,27-12.15,27-27l12.12-805.08c-1.43-48.45-43.9-65.86-69.65-64.83l-1445.46-38.78c-13.84-.37-27.21,4.96-37.01,14.73-9.8,9.77-15.19,23.15-14.84,36.99l21.5,856.97Z"/>
          <rect class="cls-3" x="457.94" y="2907.13" width="1819.37" height="77.92" rx="5.65" ry="5.65" transform="translate(2735.26 5892.17) rotate(180)"/>
          <g>
            <path class="cls-28" d="M2128.67,2473.1h-.06c-2.19-.03-3.93-1.83-3.9-4.02l.96-65.29c.03-2.16,1.8-3.9,3.95-3.9h.06c2.19.03,3.93,1.83,3.9,4.02l-.96,65.29c-.03,2.16-1.8,3.9-3.95,3.9Z"/>
            <path class="cls-28" d="M2131.02,2313.1h-.06c-2.19-.03-3.93-1.83-3.9-4.02l3.67-250.06c-.07-14.85-4.58-26.71-13.4-35.17-16.47-15.78-42.62-14.98-43.73-14.92l-462-12.39c-2.18-.06-3.91-1.88-3.85-4.06.06-2.18,1.74-4.04,4.06-3.85l461.73,12.39c2.87-.17,30.72-.65,49.26,17.12,10.43,10,15.76,23.77,15.84,40.92l-3.67,250.14c-.03,2.16-1.8,3.9-3.95,3.9Z"/>
          </g>
          <g>
            <ellipse class="cls-28" cx="1437.43" cy="2423.01" rx="280.38" ry="283.97"/>
            <path class="cls-4" d="M1427.55,2576.03c-12.15,0-23.46-6.45-29.75-17.05l-105.48-177.83c-9.87-16.64-4.55-38.24,11.88-48.23,16.42-10,37.75-4.61,47.62,12.03l73.22,123.44,96.8-192.56c8.7-17.3,29.6-24.18,46.68-15.38,17.08,8.81,23.88,29.97,15.18,47.27l-125.22,249.1c-5.73,11.39-17.11,18.73-29.72,19.18-.41.01-.81.02-1.22.02Z"/>
          </g>
        </g>
        <g>
          <g class="cls-31">
            <path class="cls-13" d="M2539.59,1842.86c-4.54,0-8.45-3.43-8.93-8.05-1.06-10.1-1.69-20.39-1.89-30.6-.09-4.96,3.85-9.07,8.81-9.16h.18c4.88,0,8.89,3.91,8.98,8.82.18,9.69.79,19.47,1.79,29.06.52,4.94-3.07,9.36-8,9.88-.32.03-.63.05-.95.05ZM2540.17,1764.56c-.35,0-.71-.02-1.07-.06-4.93-.58-8.45-5.05-7.87-9.98,1.2-10.13,2.84-20.3,4.89-30.24,1-4.86,5.73-7.98,10.61-7,4.86,1,7.99,5.75,6.99,10.61-1.94,9.45-3.5,19.11-4.64,28.74-.54,4.57-4.42,7.93-8.92,7.93ZM2557.98,1688.33c-1,0-2.02-.17-3.02-.52-4.67-1.67-7.12-6.81-5.45-11.48,3.41-9.59,7.29-19.14,11.51-28.4,2.06-4.52,7.4-6.5,11.91-4.45,4.51,2.06,6.51,7.39,4.44,11.91-4.01,8.8-7.69,17.87-10.94,26.97-1.31,3.68-4.77,5.98-8.47,5.98ZM2592.39,1617.98c-1.65,0-3.33-.46-4.82-1.41-4.19-2.67-5.41-8.23-2.75-12.41,5.48-8.58,11.39-17.04,17.57-25.12,3.02-3.94,8.66-4.69,12.6-1.67,3.94,3.02,4.69,8.66,1.67,12.6-5.87,7.68-11.49,15.7-16.69,23.86-1.72,2.69-4.62,4.15-7.59,4.15ZM2641.62,1557.08c-2.32,0-4.64-.89-6.39-2.67-3.49-3.53-3.45-9.22.08-12.71,7.23-7.14,14.86-14.07,22.69-20.59,3.81-3.18,9.48-2.67,12.66,1.15,3.18,3.81,2.66,9.48-1.15,12.66-7.44,6.2-14.7,12.79-21.57,19.57-1.75,1.73-4.03,2.59-6.32,2.59ZM2703.1,1508.58c-3,0-5.94-1.5-7.64-4.24-2.62-4.22-1.33-9.76,2.89-12.38,8.64-5.37,17.62-10.44,26.69-15.06,4.43-2.25,9.84-.5,12.09,3.93,2.25,4.42.5,9.83-3.93,12.09-8.62,4.39-17.15,9.21-25.35,14.31-1.48.92-3.12,1.36-4.74,1.36ZM3032.46,1487.18c-1.24,0-2.51-.26-3.71-.81-8.79-4-17.88-7.66-27-10.89-4.68-1.66-7.13-6.79-5.47-11.47,1.66-4.68,6.79-7.13,11.47-5.47,9.61,3.4,19.18,7.26,28.44,11.47,4.52,2.05,6.52,7.38,4.46,11.9-1.5,3.31-4.77,5.27-8.19,5.27ZM2773.75,1474.94c-3.73,0-7.21-2.34-8.5-6.06-1.62-4.69.87-9.81,5.57-11.43,9.62-3.32,19.5-6.26,29.37-8.74,4.82-1.19,9.7,1.71,10.91,6.53,1.21,4.81-1.71,9.7-6.53,10.91-9.37,2.35-18.75,5.14-27.89,8.29-.97.33-1.96.49-2.93.49ZM2957.98,1463.03c-.59,0-1.2-.06-1.8-.18-9.47-1.93-19.15-3.47-28.76-4.59-4.93-.58-8.46-5.04-7.89-9.97.58-4.93,5.03-8.49,9.97-7.89,10.12,1.18,20.3,2.8,30.27,4.83,4.86.99,8.01,5.74,7.02,10.6-.87,4.26-4.61,7.2-8.8,7.2ZM2850.14,1457.92c-4.54,0-8.44-3.42-8.93-8.03-.53-4.94,3.05-9.36,7.98-9.89,10.11-1.08,20.4-1.73,30.58-1.95.06,0,.13,0,.19,0,4.88,0,8.88,3.9,8.98,8.8.1,4.96-3.83,9.07-8.8,9.17-9.67.2-19.45.83-29.05,1.85-.32.03-.65.05-.96.05Z"/>
            <path class="cls-9" d="M3087.32,1518.39c-1.77,0-3.56-.52-5.12-1.61-3.8-2.65-7.73-5.26-11.66-7.76-4.19-2.66-5.42-8.22-2.75-12.41,2.66-4.19,8.22-5.43,12.41-2.75,4.14,2.63,8.26,5.38,12.27,8.16,4.07,2.83,5.08,8.44,2.25,12.51-1.75,2.51-4.55,3.86-7.39,3.86Z"/>
          </g>
          <g class="cls-31">
            <path class="cls-7" d="M3233.34,1750.27c-4.34,0-8.16-3.15-8.87-7.57-.73-4.57-1.57-9.21-2.5-13.78-.99-4.87,2.16-9.61,7.02-10.6,4.89-.99,9.61,2.16,10.6,7.02.97,4.81,1.86,9.69,2.63,14.51.78,4.9-2.55,9.51-7.45,10.3-.48.08-.96.11-1.43.11Z"/>
            <path class="cls-6" d="M2888.08,2155.99c-4.14,0-8.29-.07-12.45-.21-4.96-.17-8.85-4.33-8.68-9.29s4.35-8.87,9.29-8.68c9.61.32,19.22.26,28.66-.21,4.96-.24,9.17,3.58,9.42,8.54.24,4.96-3.58,9.18-8.54,9.42-5.84.29-11.79.43-17.69.43ZM2828.42,2150.94c-.5,0-1.01-.04-1.53-.13-9.89-1.69-19.81-3.82-29.49-6.32-4.8-1.24-7.69-6.15-6.45-10.95,1.24-4.81,6.16-7.71,10.95-6.45,9.2,2.38,18.63,4.4,28.02,6.01,4.89.84,8.18,5.48,7.34,10.37-.75,4.38-4.55,7.48-8.85,7.48ZM2952.74,2149.97c-4.24,0-8.01-3.01-8.82-7.32-.92-4.88,2.29-9.58,7.17-10.5,9.33-1.76,18.72-3.94,27.89-6.48,4.79-1.32,9.74,1.47,11.07,6.26,1.33,4.79-1.47,9.74-6.26,11.07-9.66,2.68-19.55,4.98-29.38,6.83-.56.11-1.12.15-1.67.15ZM2754.34,2129.67c-1.14,0-2.3-.22-3.42-.68-9.26-3.82-18.48-8.08-27.38-12.66-4.41-2.27-6.15-7.69-3.88-12.1,2.27-4.42,7.69-6.15,12.1-3.88,8.45,4.35,17.2,8.39,26,12.02,4.59,1.89,6.78,7.14,4.89,11.73-1.43,3.47-4.78,5.57-8.31,5.57ZM3026.37,2127.42c-3.48,0-6.79-2.03-8.25-5.42-1.97-4.56.13-9.85,4.69-11.82,8.71-3.76,17.39-7.96,25.78-12.46,4.37-2.35,9.82-.7,12.17,3.68,2.34,4.37.7,9.82-3.68,12.17-8.84,4.74-17.97,9.15-27.15,13.12-1.16.5-2.37.74-3.56.74ZM3093.28,2089.27c-2.78,0-5.52-1.28-7.28-3.7-2.92-4.02-2.03-9.64,1.99-12.56,7.7-5.6,15.26-11.58,22.46-17.79,3.75-3.25,9.43-2.83,12.68.93,3.24,3.76,2.82,9.43-.94,12.68-7.58,6.53-15.53,12.83-23.63,18.72-1.59,1.16-3.44,1.72-5.28,1.72ZM3150.28,2037.44c-2.11,0-4.23-.74-5.94-2.25-3.72-3.28-4.08-8.96-.79-12.69,6.31-7.14,12.38-14.63,18.05-22.26,2.96-3.98,8.59-4.81,12.58-1.85,3.98,2.96,4.81,8.59,1.85,12.58-5.97,8.02-12.36,15.9-18.99,23.42-1.78,2.01-4.25,3.04-6.74,3.04ZM3194.62,1974.41c-1.46,0-2.95-.36-4.32-1.11-4.35-2.39-5.94-7.85-3.55-12.2,4.59-8.35,8.87-16.98,12.73-25.67,2.02-4.54,7.33-6.58,11.86-4.57,4.54,2.02,6.58,7.33,4.57,11.86-4.06,9.15-8.57,18.24-13.4,27.03-1.64,2.98-4.71,4.66-7.89,4.66ZM3224.05,1903.16c-.82,0-1.66-.12-2.49-.35-4.77-1.37-7.52-6.35-6.15-11.12,2.63-9.13,4.9-18.49,6.76-27.83.97-4.87,5.71-8.03,10.57-7.06,4.87.97,8.03,5.7,7.07,10.57-1.95,9.83-4.34,19.69-7.11,29.3-1.13,3.94-4.73,6.51-8.63,6.51ZM3237.1,1827.24c-.18,0-.37,0-.56-.02-4.95-.3-8.73-4.56-8.42-9.52.43-6.99.64-14.08.64-21.08,0-2.53-.03-5.06-.08-7.58-.11-4.96,3.83-9.08,8.79-9.18,5.02-.21,9.07,3.83,9.18,8.79.06,2.65.09,5.31.09,7.97,0,7.36-.23,14.82-.68,22.17-.29,4.77-4.25,8.44-8.96,8.44Z"/>
            <path class="cls-12" d="M2686.59,2092.48c-1.79,0-3.59-.53-5.16-1.63-3.98-2.8-7.98-5.73-11.88-8.72-3.94-3.02-4.69-8.66-1.67-12.6,3.02-3.94,8.66-4.69,12.6-1.67,3.71,2.84,7.5,5.63,11.28,8.29,4.06,2.85,5.04,8.46,2.19,12.52-1.75,2.49-4.53,3.82-7.36,3.82Z"/>
          </g>
          <g>
            <path class="cls-8" d="M2698.72,1988.22c1.13,1.39,3.02,1.91,4.7,1.29l47.99-17.65c18.92,14.57,40.29,26.23,63.53,34.21l11.7,49.74c.41,1.75,1.88,3.04,3.67,3.22l61.02,6.18c1.78.18,3.48-.79,4.24-2.42l21.44-46.38c24.37-3.17,47.65-10.3,69.1-20.78l43.47,26.91c1.52.94,3.48.82,4.87-.32l47.52-38.77c1.39-1.13,1.91-3.02,1.29-4.7l-17.65-47.99c14.57-18.92,26.23-40.3,34.21-63.53l49.74-11.7c1.74-.41,3.04-1.88,3.22-3.67l6.18-61.02c.18-1.78-.79-3.48-2.42-4.24l-46.38-21.44c-3.16-24.37-10.3-47.65-20.78-69.1l26.91-43.48c.94-1.52.82-3.48-.32-4.87l-38.78-47.52c-1.13-1.39-3.02-1.91-4.7-1.29l-47.99,17.65c-18.92-14.57-40.29-26.23-63.53-34.21l-11.7-49.74c-.41-1.74-1.88-3.04-3.67-3.22l-61.02-6.18c-1.78-.18-3.48.79-4.24,2.42l-21.44,46.38c-24.37,3.16-47.65,10.3-69.1,20.78l-43.47-26.91c-1.52-.94-3.48-.82-4.87.32l-47.52,38.78c-1.39,1.13-1.91,3.02-1.29,4.7l17.65,47.99c-14.57,18.92-26.23,40.3-34.21,63.53l-49.74,11.7c-1.74.41-3.04,1.88-3.22,3.67l-6.18,61.02c-.18,1.78.79,3.48,2.42,4.24l46.38,21.44c3.16,24.37,10.3,47.65,20.78,69.1l-26.91,43.47c-.94,1.52-.82,3.48.32,4.87l38.78,47.52Z"/>
            <path class="cls-18" d="M2887.92,1855.87c-30.05,0-56.44-22.07-60.95-52.66-4.96-33.63,18.37-65.02,52-69.98,16.29-2.41,32.54,1.69,45.76,11.51,13.22,9.82,21.82,24.2,24.22,40.49,4.96,33.63-18.37,65.02-52,69.98-3.03.45-6.05.66-9.03.66ZM2888.06,1746.94c-2.32,0-4.65.17-6.99.51-25.78,3.8-43.67,27.87-39.87,53.65,3.8,25.78,27.86,43.68,53.65,39.87,25.78-3.8,43.67-27.87,39.87-53.65-1.84-12.49-8.44-23.52-18.57-31.05-8.24-6.12-18.01-9.34-28.09-9.34Z"/>
            <path class="cls-18" d="M2889.18,1944.91c-5.16,0-10.35-.26-15.56-.79h0c-1.64-.16-3.27-.36-4.91-.58-8.05-1.08-16-2.79-23.73-5.12-.11-.03-.21-.06-.32-.09-.3-.09-.6-.18-.9-.28-.58-.18-1.16-.37-1.74-.55-1.52-.49-2.49-1.9-2.49-3.42,0-.37.06-.74.18-1.11.61-1.89,2.64-2.92,4.53-2.31,9.72,3.15,19.84,5.27,30.09,6.31,50.9,5.17,98.4-16.91,127.98-54.37,16.45-20.83,27.36-46.42,30.23-74.74.5-4.96.75-9.92.75-14.84,0-33.13-11.31-64.99-32.54-91-24.38-29.88-58.95-48.48-97.32-52.37-79.25-8.02-150.18,49.89-158.21,129.1-.5,4.88-.74,9.77-.74,14.65,0,21.13,4.63,42.03,13.62,61.18.23.49.34,1.01.34,1.53,0,1.35-.76,2.64-2.07,3.25-1.8.84-3.94.08-4.78-1.73-9.44-20.1-14.3-42.04-14.31-64.23,0-5.12.26-10.25.77-15.38,8.42-83.16,82.95-143.95,166.09-135.54,40.28,4.08,76.56,23.6,102.16,54.98,22.29,27.31,34.15,60.75,34.16,95.53,0,5.17-.26,10.37-.79,15.58-4.08,40.29-23.6,76.57-54.97,102.17-27.32,22.29-60.77,34.16-95.56,34.16Z"/>
          </g>
        </g>
        <g>
          <path class="cls-15" d="M2981.92,2978.59l-601.63,2.59c-49.49.21-90.13-37.1-91.6-84.13-6.57-208.87-22.93-818.55-20.7-1017.41.38-34.18,29.03-61.99,64.97-63.13,139.75-4.44,475.81-12.11,631.95,10.27,32.88,4.71,57.56,30.97,58.76,62.56,6.64,175,28.16,828.54,24.32,1027.32-.66,34.28-30,61.78-66.07,61.94Z"/>
          <path class="cls-11" d="M2958.42,2927.25l-559.58,2.41c-28.29.12-51.43-21.45-51.97-48.43l-18.29-970.72c-.53-26.75,21.93-48.78,49.98-49l554.58-4.21c20.05-.16,36.55,15.02,37.12,34.14l27.91,996.63c.64,21.39-17.31,39.09-39.74,39.19Z"/>
        </g>
        <g>
          <ellipse class="cls-28" cx="2662.04" cy="2272.43" rx="225.71" ry="228.6"/>
          <path class="cls-14" d="M2654.09,2395.61c-9.78,0-18.88-5.19-23.95-13.72l-84.92-143.15c-7.95-13.4-3.67-30.78,9.56-38.83,13.22-8.05,30.39-3.71,38.34,9.68l58.95,99.37,77.92-155.01c7-13.93,23.83-19.47,37.58-12.38,13.75,7.09,19.22,24.13,12.22,38.06l-100.8,200.53c-4.61,9.17-13.77,15.08-23.92,15.44-.33.01-.65.02-.98.02Z"/>
        </g>
        <g>
          <path class="cls-10" d="M2691.16,2407.48c-1.07,121.2-4.21,539.25,1.6,687.31.62,15.69,11.52,28.15,24.94,28.49,66.37,1.72,309.63,5.14,418.07-1.53,22.59-1.39,40.29-23.03,40.43-49.49.68-127.21,1.22-484.98-12.64-648.7-1.66-19.62-15.03-35.09-31.81-36.84-72.35-7.56-316.83-25.2-410.48-16.92-16.89,1.49-29.94,17.86-30.11,37.68Z"/>
          <path class="cls-16" d="M2721.22,2444.29c-2.36,97.84-9.59,423.34-4.52,543.6.74,17.58,12.76,31.65,27.79,32.49,61.87,3.47,272.91,10.18,363.48.56,16.31-1.73,28.93-17.34,29.57-36.48,3.36-99.83,12.79-402.95,7.89-521.87-.78-18.97-13.54-34.31-29.73-35.81-66.97-6.2-291.3-20.13-368.3-14.26-14.45,1.1-25.79,14.82-26.2,31.76Z"/>
          <path class="cls-19" d="M2854.91,2389.33h0c.05,3.72,2.56,6.75,5.74,6.91,15.68.77,59.85,2.93,79.59,4.03,3.89.22,6.89-3.91,6.1-8.38l-.14-.76c-.54-3.05-2.73-5.32-5.39-5.57-13.35-1.26-53.63-4.73-80.28-3.28-3.2.17-5.68,3.31-5.63,7.06Z"/>
        </g>
        <g>
          <ellipse class="cls-28" cx="2936.88" cy="2730.7" rx="160.41" ry="162.46"/>
          <path class="cls-1" d="M2931.23,2818.24c-6.95,0-13.42-3.69-17.02-9.75l-60.35-101.73c-5.65-9.52-2.61-21.88,6.8-27.6,9.4-5.72,21.6-2.64,27.25,6.88l41.89,70.62,55.38-110.16c4.98-9.9,16.93-13.84,26.7-8.8,9.77,5.04,13.66,17.15,8.69,27.05l-71.64,142.51c-3.28,6.52-9.79,10.72-17,10.97-.23,0-.47.01-.7.01Z"/>
        </g>
      </g>
    </g>
  </g>
</svg>